<svg width="218" height="41" viewBox="0 0 218 41" fill="none" xmlns="http://www.w3.org/2000/svg">
<path d="M85.8122 25.9035H75.1094L73.3025 32.353H70.5781L77.4446 7.3335H83.5327L90.3991 32.353H87.647L85.8122 25.9035ZM75.7488 23.4016H85.2284L81.4199 9.69645H79.5295L75.7488 23.4016Z" fill="#1E1E1E"/>
<path d="M88.7598 38.3022C90.0663 37.5516 91.0115 36.9122 91.6231 36.3562C92.2347 35.8003 92.6239 35.2165 92.8463 34.5771C93.0687 33.9377 93.1799 33.0203 93.1799 31.8527V14.2557H95.8486V31.9083C95.8486 33.4373 95.6818 34.6605 95.3482 35.5778C95.0146 36.4952 94.4308 37.3292 93.5969 38.052C92.7629 38.7748 91.5119 39.5532 89.8439 40.415L88.7598 38.3022ZM93.1799 7.02783H95.8486V10.1692H93.1799V7.02783Z" fill="#1E1E1E"/>
<path d="M99.6001 14.2557H102.269V15.5345C103.353 14.9229 104.354 14.5059 105.243 14.2557C106.161 14.0055 107.106 13.8943 108.079 13.8943C109.608 13.8943 110.803 14.1723 111.665 14.7561C112.499 15.3399 113.111 16.2573 113.444 17.536C113.806 18.8148 113.972 20.5662 113.972 22.7901V32.3253H111.304V22.8457C111.304 21.1221 111.192 19.8156 110.998 18.8982C110.803 17.9808 110.414 17.3136 109.886 16.8966C109.358 16.4796 108.579 16.285 107.579 16.285C106.772 16.285 105.911 16.3962 105.077 16.5908C104.215 16.7854 103.52 17.0356 102.992 17.2858L102.297 17.6194V32.2975H99.5723V14.2557H99.6001Z" fill="#1E1E1E"/>
<path d="M118.449 31.2689C117.587 30.3237 117.143 28.9894 117.143 27.2102C117.143 25.4866 117.587 24.18 118.449 23.3461C119.339 22.5121 120.729 21.9839 122.675 21.7893L128.346 21.2333V19.7043C128.346 17.4248 127.345 16.2572 125.371 16.2572C123.425 16.2572 121.035 16.424 118.255 16.7298L118.143 14.6726C120.729 14.1445 123.064 13.8665 125.204 13.8665C127.262 13.8665 128.735 14.339 129.68 15.2564C130.598 16.1738 131.07 17.6472 131.07 19.6765V28.9338C131.153 29.8233 131.848 30.3515 133.155 30.5183L133.044 32.6589C131.126 32.6589 129.708 32.1863 128.735 31.2133C126.594 32.1863 124.426 32.6589 122.23 32.6589C120.562 32.6867 119.311 32.2141 118.449 31.2689ZM127.512 29.5731L128.346 29.2951V23.3183L122.98 23.8187C121.896 23.9021 121.118 24.2357 120.618 24.7638C120.145 25.292 119.895 26.0704 119.895 27.0712C119.895 29.2951 120.812 30.4071 122.647 30.4071C124.287 30.4071 125.899 30.1291 127.512 29.5731Z" fill="#1E1E1E"/>
<path d="M132.209 7.75049H137.463L141.716 27.9885H143.357L147.61 7.75049H152.864L147.137 32.353H137.908L132.209 7.75049Z" fill="#1E1E1E"/>
<path d="M155.699 7.05566H160.536V11.9484H155.699V7.05566ZM155.699 14.2557H160.536V32.3254H155.699V14.2557Z" fill="#1E1E1E"/>
<path d="M165.735 30.4627C164.679 28.9338 164.15 26.6264 164.15 23.5407C164.15 20.1769 164.734 17.7028 165.93 16.146C167.125 14.5893 168.96 13.8109 171.434 13.8109C172.323 13.8109 173.686 13.9777 175.52 14.3113V7H180.357V32.3253H175.548V31.5747C174.547 32.0195 173.713 32.3531 173.018 32.5199C172.323 32.6867 171.628 32.7701 170.933 32.7701C168.543 32.7701 166.791 31.9917 165.735 30.4627ZM175.02 27.9886L175.52 27.8774V18.37C174.242 18.1198 173.157 18.0086 172.296 18.0086C171.128 18.0086 170.294 18.4256 169.794 19.2318C169.293 20.0379 169.043 21.4557 169.043 23.4295C169.043 25.2364 169.265 26.5152 169.738 27.2936C170.183 28.0442 170.961 28.4334 172.045 28.4334C172.935 28.4334 173.936 28.2944 175.02 27.9886Z" fill="#1E1E1E"/>
<path d="M191.06 32.3253H187.669L183.221 14.2556H188.002L191.283 28.2109H192.117L195.397 14.2556H200.178L193.812 39.9423H189.086L191.06 32.3253Z" fill="#1E1E1E"/>
<path d="M201.764 26.8209C201.764 24.9305 202.264 23.5962 203.265 22.7622C204.266 21.9282 205.878 21.4556 208.102 21.2888L211.966 21.0108V19.8988C211.966 19.1761 211.799 18.6757 211.466 18.3699C211.132 18.0919 210.604 17.9251 209.826 17.9251C209.019 17.9251 207.935 17.9529 206.545 18.0085C205.155 18.0641 203.988 18.1475 203.042 18.2031L202.903 14.8393C205.517 14.1443 207.963 13.783 210.27 13.783C212.578 13.783 214.246 14.2556 215.274 15.2285C216.303 16.2015 216.803 17.7305 216.803 19.8432V27.3769C216.859 27.9885 216.942 28.3777 217.109 28.6001C217.276 28.8225 217.554 28.9615 217.999 29.0727L217.86 32.7144C216.609 32.7144 215.608 32.631 214.885 32.4642C214.162 32.2974 213.412 31.9638 212.689 31.4634C210.937 32.2974 209.158 32.7422 207.379 32.7422C203.626 32.77 201.764 30.7962 201.764 26.8209ZM211.41 28.3777L211.966 28.2387V24.3745L208.686 24.6525C207.324 24.7637 206.656 25.4865 206.656 26.8209C206.656 28.1553 207.24 28.8225 208.436 28.8225C209.325 28.8225 210.326 28.6835 211.41 28.3777Z" fill="#1E1E1E"/>
<path d="M60.5726 31.8781C60.4163 31.6933 56.7069 27.387 50.8798 26.7901C50.2545 26.719 49.6718 27.188 49.6149 27.8276C49.5439 28.4671 50.0129 29.0356 50.6525 29.0925C54.1913 29.462 56.8774 31.5228 58.0997 32.6597C56.9911 33.7541 54.6177 35.7722 51.2778 36.9376C45.6071 38.9273 39.6664 37.7335 33.5835 33.3988C41.6561 31.1817 46.1472 25.9658 48.5348 21.7874C51.3631 16.8415 51.9173 12.3647 51.9316 12.1657L52.0737 11.0003L50.9083 10.8724C47.0567 10.4602 43.7595 12.4499 43.6316 12.5352C43.0915 12.8621 42.921 13.5727 43.2479 14.127C43.5748 14.667 44.2854 14.8376 44.8396 14.5107C44.8681 14.4965 46.9146 13.2742 49.416 13.1463C49.0607 14.7381 48.2506 17.6516 46.4883 20.7072C43.461 25.9658 39.0126 29.4478 33.2567 31.0964C35.5306 27.0743 39.9648 18.9449 40.576 15.6477C40.6612 15.2071 40.7181 14.7665 40.7465 14.3402C40.7891 13.7006 40.7749 13.2885 40.7749 13.1463C40.7607 9.7496 37.9751 6.97821 34.5784 6.97821C31.1675 6.97821 28.3819 9.76382 28.3819 13.1748C28.3819 15.2355 29.4051 17.1542 31.1106 18.3196C31.6365 18.6749 32.3613 18.5328 32.7166 18.0069C33.0719 17.4811 32.9298 16.7562 32.4039 16.4009C31.3238 15.6761 30.6842 14.4681 30.6842 13.1748C30.6842 11.0287 32.4323 9.29481 34.5642 9.29481C36.7102 9.29481 38.4441 11.0429 38.4441 13.1748V13.26C38.4441 13.26 38.4583 13.5727 38.4157 14.1696C38.3873 14.5107 38.3446 14.8518 38.2736 15.2213C37.7761 17.8932 33.9531 25.0846 31.4091 29.6183C30.7553 27.0601 29.7889 24.3314 28.3392 21.7732C28.1403 21.4321 27.9413 21.0768 27.7281 20.7499C27.4865 20.3804 25.9942 18.2912 25.8947 18.149C24.8714 16.5004 24.3029 14.5391 24.3029 12.5636C24.3029 6.90715 28.9077 2.30239 34.5642 2.30239C35.2037 2.30239 35.7154 1.79074 35.7154 1.15119C35.7154 0.511642 35.2037 0 34.5642 0C27.6286 0 22.0006 5.64226 22.0006 12.5636C22.0006 13.2885 22.0716 14.0133 22.1853 14.7239C21.5031 14.2265 20.7641 13.7432 19.9824 13.3169C15.1787 10.645 10.8724 10.8013 10.6876 10.8013L10.0196 10.8297L9.70696 11.4266C7.16297 16.3725 11.185 22.1711 11.3556 22.4127C11.7251 22.9386 12.4357 23.0523 12.9616 22.697C13.4874 22.3274 13.6153 21.6168 13.2458 21.091C13.2174 21.0483 10.247 16.7278 11.4977 13.1321C12.791 13.2032 15.7045 13.5727 18.8739 15.3208C20.9062 16.4436 22.6827 17.9074 24.1892 19.7266C25.1415 20.9489 25.1273 20.9489 25.1415 20.9489C26.9038 23.436 28.2539 26.4632 29.1493 30.0305C24.104 26.5627 17.1542 23.7913 9.45114 26.2784C4.02207 28.0266 0.838523 31.5796 0.710612 31.7217L0 32.5176L0.739039 33.2851C7.04928 39.7943 13.8285 40.3628 18.4191 39.6948C23.3507 38.97 26.7617 36.7387 26.918 36.6392C27.4439 36.2839 27.6002 35.5733 27.2449 35.0332C26.8896 34.5073 26.179 34.351 25.6389 34.7063C25.6105 34.7205 22.4411 36.7813 18.0069 37.4066C12.5068 38.1883 7.53249 36.5255 3.22618 32.475C4.4058 31.4091 6.86452 29.5046 10.2612 28.4245C16.7278 26.3779 23.4218 28.1403 30.1868 33.6688C35.4311 37.9609 40.7039 40.1354 45.8913 40.1354C46.5167 40.1354 47.1278 40.107 47.7531 40.0359C55.6978 39.24 60.4163 33.5693 60.601 33.3277L61.2121 32.5887L60.5726 31.8781Z" fill="#1E1E1E"/>
</svg>
