<svg width="596" height="277" viewBox="0 0 596 277" fill="none" xmlns="http://www.w3.org/2000/svg">
<path d="M40.32 73.192H17.472L14.88 85H1.632L16.32 19.72H41.472L56.16 85H42.912L40.32 73.192ZM31.2 30.664H26.592L19.968 61.672H37.824L31.2 30.664ZM11.904 0.519995H45.216V9.92799H11.904V0.519995ZM56.406 97.576C59.286 95.656 61.334 94.056 62.55 92.776C63.83 91.496 64.662 90.152 65.046 88.744C65.494 87.336 65.718 85.32 65.718 82.696V37H78.582V82.792C78.582 87.272 78.102 90.824 77.142 93.448C76.182 96.136 74.518 98.472 72.15 100.456C69.846 102.44 66.294 104.648 61.494 107.08L56.406 97.576ZM65.718 17.896H78.582V30.856H65.718V17.896ZM92.3857 37H105.154V39.688C107.586 38.28 109.73 37.288 111.586 36.712C113.506 36.136 115.554 35.848 117.73 35.848C123.618 35.848 127.81 37.736 130.306 41.512C132.802 45.288 134.05 51.112 134.05 58.984V85H121.186V59.368C121.186 54.952 120.642 51.848 119.554 50.056C118.53 48.264 116.546 47.368 113.602 47.368C111.49 47.368 109.09 47.816 106.402 48.712L105.25 49.096V85H92.3857V37ZM119.746 28.84C118.338 28.84 116.13 28.264 113.122 27.112C110.178 25.96 108.29 25.384 107.458 25.384C105.666 25.384 103.554 26.12 101.122 27.592L99.8737 28.36L97.0897 21.16C98.4337 19.624 100.066 18.28 101.986 17.128C103.97 15.976 105.666 15.4 107.074 15.4C108.546 15.4 110.754 15.976 113.698 17.128C116.706 18.28 118.562 18.856 119.266 18.856C120.866 18.856 122.978 18.056 125.602 16.456L126.946 15.592L129.73 22.888C128.706 24.168 127.17 25.48 125.122 26.824C123.138 28.168 121.346 28.84 119.746 28.84ZM159.08 86.152C149.16 86.152 144.2 80.904 144.2 70.408C144.2 65.416 145.512 61.832 148.136 59.656C150.824 57.416 155.112 56.104 161 55.72L171.272 54.952V51.976C171.272 50.056 170.824 48.712 169.928 47.944C169.096 47.176 167.656 46.792 165.608 46.792C163.496 46.792 160.584 46.888 156.872 47.08C153.16 47.208 150.056 47.368 147.56 47.56L147.176 38.632C154.088 36.776 160.616 35.848 166.76 35.848C172.904 35.848 177.32 37.128 180.008 39.688C182.76 42.248 184.136 46.344 184.136 51.976V71.944C184.264 73.544 184.52 74.632 184.904 75.208C185.352 75.784 186.152 76.2 187.304 76.456L186.92 86.152C183.592 86.152 180.936 85.928 178.952 85.48C177.032 85.032 175.112 84.136 173.192 82.792C168.52 85.032 163.816 86.152 159.08 86.152ZM161.864 75.688C164.296 75.688 166.952 75.304 169.832 74.536L171.272 74.152V63.88L162.536 64.648C158.952 64.968 157.16 66.888 157.16 70.408C157.16 73.928 158.728 75.688 161.864 75.688ZM151.688 18.088H179.24V27.688H151.688V18.088ZM13.44 155.064H5.824L4.96 159H0.544L5.44 137.24H13.824L18.72 159H14.304L13.44 155.064ZM10.4 140.888H8.864L6.656 151.224H12.608L10.4 140.888ZM18.802 163.192C19.762 162.552 20.4447 162.019 20.85 161.592C21.2767 161.165 21.554 160.717 21.682 160.248C21.8313 159.779 21.906 159.107 21.906 158.232V143H26.194V158.264C26.194 159.757 26.034 160.941 25.714 161.816C25.394 162.712 24.8393 163.491 24.05 164.152C23.282 164.813 22.098 165.549 20.498 166.36L18.802 163.192ZM21.906 136.632H26.194V140.952H21.906V136.632ZM30.7953 143H35.0513V143.896C35.8619 143.427 36.5766 143.096 37.1953 142.904C37.8353 142.712 38.5179 142.616 39.2433 142.616C41.2059 142.616 42.6033 143.245 43.4353 144.504C44.2673 145.763 44.6833 147.704 44.6833 150.328V159H40.3953V150.456C40.3953 148.984 40.2139 147.949 39.8513 147.352C39.5099 146.755 38.8486 146.456 37.8673 146.456C37.1633 146.456 36.3633 146.605 35.4673 146.904L35.0833 147.032V159H30.7953V143ZM53.0267 159.384C49.7201 159.384 48.0667 157.635 48.0667 154.136C48.0667 152.472 48.5041 151.277 49.3787 150.552C50.2747 149.805 51.7041 149.368 53.6667 149.24L57.0907 148.984V147.992C57.0907 147.352 56.9414 146.904 56.6427 146.648C56.3654 146.392 55.8854 146.264 55.2027 146.264C54.4987 146.264 53.5281 146.296 52.2907 146.36C51.0534 146.403 50.0187 146.456 49.1867 146.52L49.0587 143.544C51.3627 142.925 53.5387 142.616 55.5867 142.616C57.6347 142.616 59.1067 143.043 60.0027 143.896C60.9201 144.749 61.3787 146.115 61.3787 147.992V154.648C61.4214 155.181 61.5067 155.544 61.6347 155.736C61.7841 155.928 62.0507 156.067 62.4347 156.152L62.3067 159.384C61.1974 159.384 60.3121 159.309 59.6507 159.16C59.0107 159.011 58.3707 158.712 57.7307 158.264C56.1734 159.011 54.6054 159.384 53.0267 159.384ZM53.9547 155.896C54.7654 155.896 55.6507 155.768 56.6107 155.512L57.0907 155.384V151.96L54.1787 152.216C52.9841 152.323 52.3867 152.963 52.3867 154.136C52.3867 155.309 52.9094 155.896 53.9547 155.896ZM73.7777 143H78.0657V159H73.7777V143ZM73.7777 136.632H78.0657V140.952H73.7777V136.632ZM88.2677 159.384C86.8597 159.384 85.1424 159.192 83.1157 158.808L82.0917 158.616L82.2197 155.032C84.8011 155.373 86.6784 155.544 87.8517 155.544C88.6411 155.544 89.2597 155.459 89.7077 155.288C90.1771 155.117 90.4117 154.797 90.4117 154.328C90.4117 153.901 90.1877 153.592 89.7397 153.4C89.3131 153.208 88.5877 153.027 87.5637 152.856C87.1797 152.813 86.9131 152.771 86.7637 152.728C85.6971 152.536 84.8224 152.301 84.1397 152.024C83.4571 151.725 82.9024 151.267 82.4757 150.648C82.0491 150.008 81.8357 149.123 81.8357 147.992C81.8357 146.179 82.3904 144.835 83.4997 143.96C84.6091 143.085 86.1344 142.648 88.0757 142.648C89.2277 142.648 90.9237 142.851 93.1637 143.256L94.2197 143.448L94.1557 147C91.5744 146.659 89.6651 146.488 88.4277 146.488C87.7024 146.488 87.1264 146.563 86.6997 146.712C86.2944 146.861 86.0917 147.149 86.0917 147.576C86.0917 148.024 86.3051 148.344 86.7317 148.536C87.1584 148.707 87.8517 148.877 88.8117 149.048L89.9317 149.24C91.6384 149.581 92.8544 150.093 93.5797 150.776C94.3051 151.437 94.6677 152.515 94.6677 154.008C94.6677 155.843 94.1451 157.197 93.0997 158.072C92.0544 158.947 90.4437 159.384 88.2677 159.384ZM111.513 159.384C110.275 159.384 109.315 159.192 108.633 158.808C107.95 158.424 107.459 157.795 107.161 156.92C106.862 156.045 106.713 154.84 106.713 153.304V146.648H104.825V143H106.713V138.552H111.001V143H114.937V146.648H111.001V153.208C111.001 154.04 111.075 154.648 111.225 155.032C111.374 155.395 111.747 155.565 112.345 155.544L114.777 155.48L114.969 158.904C114.115 159.096 113.443 159.224 112.953 159.288C112.483 159.352 112.003 159.384 111.513 159.384ZM118.369 136.6H122.657V143.768C123.468 143.363 124.182 143.075 124.801 142.904C125.441 142.712 126.124 142.616 126.849 142.616C128.812 142.616 130.198 143.245 131.009 144.504C131.841 145.741 132.257 147.683 132.257 150.328V159H127.969V150.424C127.969 148.973 127.798 147.949 127.457 147.352C127.116 146.755 126.454 146.456 125.473 146.456C124.705 146.456 123.905 146.584 123.073 146.84L122.657 146.968V159H118.369V136.6ZM142.968 159.384C140.472 159.384 138.67 158.755 137.56 157.496C136.451 156.237 135.896 154.2 135.896 151.384C135.896 148.44 136.472 146.243 137.624 144.792C138.798 143.341 140.611 142.616 143.064 142.616C145.326 142.616 147.032 143.224 148.184 144.44C149.358 145.635 149.944 147.437 149.944 149.848L149.624 152.824H140.216C140.259 153.571 140.387 154.147 140.6 154.552C140.835 154.936 141.198 155.213 141.688 155.384C142.2 155.533 142.904 155.608 143.8 155.608C144.504 155.608 145.347 155.587 146.328 155.544C147.31 155.501 148.024 155.459 148.472 155.416L149.368 155.32L149.432 158.488C147.022 159.085 144.867 159.384 142.968 159.384ZM145.72 149.56C145.72 148.28 145.518 147.395 145.112 146.904C144.728 146.392 144.035 146.136 143.032 146.136C142.008 146.136 141.283 146.403 140.856 146.936C140.43 147.448 140.206 148.323 140.184 149.56H145.72ZM166.92 159.384C165.512 159.384 163.795 159.192 161.768 158.808L160.744 158.616L160.872 155.032C163.454 155.373 165.331 155.544 166.504 155.544C167.294 155.544 167.912 155.459 168.36 155.288C168.83 155.117 169.064 154.797 169.064 154.328C169.064 153.901 168.84 153.592 168.392 153.4C167.966 153.208 167.24 153.027 166.216 152.856C165.832 152.813 165.566 152.771 165.416 152.728C164.35 152.536 163.475 152.301 162.792 152.024C162.11 151.725 161.555 151.267 161.128 150.648C160.702 150.008 160.488 149.123 160.488 147.992C160.488 146.179 161.043 144.835 162.152 143.96C163.262 143.085 164.787 142.648 166.728 142.648C167.88 142.648 169.576 142.851 171.816 143.256L172.872 143.448L172.808 147C170.227 146.659 168.318 146.488 167.08 146.488C166.355 146.488 165.779 146.563 165.352 146.712C164.947 146.861 164.744 147.149 164.744 147.576C164.744 148.024 164.958 148.344 165.384 148.536C165.811 148.707 166.504 148.877 167.464 149.048L168.584 149.24C170.291 149.581 171.507 150.093 172.232 150.776C172.958 151.437 173.32 152.515 173.32 154.008C173.32 155.843 172.798 157.197 171.752 158.072C170.707 158.947 169.096 159.384 166.92 159.384ZM177.054 143H181.342V159H177.054V143ZM177.054 136.632H181.342V140.952H177.054V136.632ZM188.792 150.968L184.408 143H188.984L191.544 147.96L194.136 143H198.712L194.168 150.84L198.712 159H194.136L191.544 154.104L188.984 159H184.408L188.792 150.968ZM206.837 159.384C205.599 159.384 204.639 159.192 203.957 158.808C203.274 158.424 202.783 157.795 202.485 156.92C202.186 156.045 202.037 154.84 202.037 153.304V146.648H200.149V143H202.037V138.552H206.325V143H210.261V146.648H206.325V153.208C206.325 154.04 206.399 154.648 206.549 155.032C206.698 155.395 207.071 155.565 207.669 155.544L210.101 155.48L210.293 158.904C209.439 159.096 208.767 159.224 208.277 159.288C207.807 159.352 207.327 159.384 206.837 159.384ZM213.693 136.6H217.981V143.768C218.791 143.363 219.506 143.075 220.125 142.904C220.765 142.712 221.447 142.616 222.173 142.616C224.135 142.616 225.522 143.245 226.333 144.504C227.165 145.741 227.581 147.683 227.581 150.328V159H223.293V150.424C223.293 148.973 223.122 147.949 222.781 147.352C222.439 146.755 221.778 146.456 220.797 146.456C220.029 146.456 219.229 146.584 218.397 146.84L217.981 146.968V159H213.693V136.6ZM239.692 143H243.948V143.864C244.78 143.373 245.473 143.043 246.028 142.872C246.604 142.701 247.212 142.616 247.852 142.616C249.9 142.616 251.414 143.299 252.396 144.664C253.398 146.008 253.9 148.163 253.9 151.128C253.9 153.176 253.654 154.797 253.164 155.992C252.673 157.187 251.905 158.051 250.86 158.584C249.814 159.117 248.428 159.384 246.7 159.384C245.846 159.384 244.94 159.299 243.98 159.128V165.72H239.692V143ZM246.284 155.672C247.478 155.672 248.321 155.331 248.812 154.648C249.302 153.944 249.548 152.771 249.548 151.128C249.548 149.507 249.324 148.323 248.876 147.576C248.428 146.829 247.692 146.456 246.668 146.456C245.921 146.456 245.153 146.616 244.364 146.936L243.98 147.096V155.48C244.94 155.608 245.708 155.672 246.284 155.672ZM257.738 143H261.994V144.696C263.828 143.629 265.535 142.936 267.114 142.616V146.936C265.514 147.256 264.031 147.629 262.666 148.056L262.026 148.28V159H257.738V143ZM270.284 143H274.572V159H270.284V143ZM270.284 136.632H274.572V140.952H270.284V136.632ZM279.174 143H283.43V143.896C284.219 143.448 284.902 143.128 285.478 142.936C286.075 142.723 286.694 142.616 287.334 142.616C288.081 142.616 288.795 142.744 289.478 143C290.182 143.235 290.758 143.608 291.206 144.12C292.209 143.608 293.147 143.235 294.022 143C294.918 142.744 295.825 142.616 296.742 142.616C298.726 142.616 300.134 143.224 300.966 144.44C301.798 145.656 302.214 147.619 302.214 150.328V159H297.926V150.456C297.926 149.027 297.766 148.003 297.446 147.384C297.126 146.765 296.529 146.456 295.654 146.456C295.035 146.456 294.214 146.605 293.19 146.904L292.71 147.064C292.795 148.493 292.838 149.709 292.838 150.712V159H288.55V150.776C288.55 149.624 288.486 148.749 288.358 148.152C288.251 147.555 288.027 147.128 287.686 146.872C287.366 146.595 286.875 146.456 286.214 146.456C285.531 146.456 284.742 146.605 283.846 146.904L283.462 147.032V159H279.174V143ZM310.562 159.384C307.255 159.384 305.602 157.635 305.602 154.136C305.602 152.472 306.039 151.277 306.914 150.552C307.81 149.805 309.239 149.368 311.202 149.24L314.626 148.984V147.992C314.626 147.352 314.476 146.904 314.178 146.648C313.9 146.392 313.42 146.264 312.738 146.264C312.034 146.264 311.063 146.296 309.826 146.36C308.588 146.403 307.554 146.456 306.722 146.52L306.594 143.544C308.898 142.925 311.074 142.616 313.122 142.616C315.17 142.616 316.642 143.043 317.538 143.896C318.455 144.749 318.914 146.115 318.914 147.992V154.648C318.956 155.181 319.042 155.544 319.17 155.736C319.319 155.928 319.586 156.067 319.97 156.152L319.842 159.384C318.732 159.384 317.847 159.309 317.186 159.16C316.546 159.011 315.906 158.712 315.266 158.264C313.708 159.011 312.14 159.384 310.562 159.384ZM311.49 155.896C312.3 155.896 313.186 155.768 314.146 155.512L314.626 155.384V151.96L311.714 152.216C310.519 152.323 309.922 152.963 309.922 154.136C309.922 155.309 310.444 155.896 311.49 155.896ZM323.642 143H327.898V144.696C329.732 143.629 331.439 142.936 333.018 142.616V146.936C331.418 147.256 329.935 147.629 328.57 148.056L327.93 148.28V159H323.642V143ZM341.66 159H338.652L334.716 143H338.94L341.852 155.352H342.588L345.5 143H349.724L344.092 165.72H339.9L341.66 159ZM366.291 159.384C363.987 159.384 362.312 158.723 361.267 157.4C360.243 156.056 359.731 153.923 359.731 151C359.731 148.035 360.264 145.901 361.331 144.6C362.398 143.277 364.136 142.616 366.547 142.616C367.166 142.616 367.848 142.669 368.595 142.776C369.342 142.883 370.344 143.064 371.603 143.32L371.475 146.712C369.662 146.541 368.403 146.456 367.699 146.456C366.718 146.456 365.971 146.595 365.459 146.872C364.947 147.128 364.584 147.576 364.371 148.216C364.179 148.856 364.083 149.773 364.083 150.968C364.083 152.184 364.179 153.112 364.371 153.752C364.584 154.392 364.947 154.851 365.459 155.128C365.992 155.405 366.76 155.544 367.763 155.544L371.475 155.288L371.603 158.712C369.342 159.16 367.571 159.384 366.291 159.384ZM375.42 136.6H379.708V143.768C380.519 143.363 381.234 143.075 381.852 142.904C382.492 142.712 383.175 142.616 383.9 142.616C385.863 142.616 387.25 143.245 388.06 144.504C388.892 145.741 389.308 147.683 389.308 150.328V159H385.02V150.424C385.02 148.973 384.85 147.949 384.508 147.352C384.167 146.755 383.506 146.456 382.524 146.456C381.756 146.456 380.956 146.584 380.124 146.84L379.708 146.968V159H375.42V136.6ZM397.652 159.384C394.345 159.384 392.692 157.635 392.692 154.136C392.692 152.472 393.129 151.277 394.004 150.552C394.9 149.805 396.329 149.368 398.292 149.24L401.716 148.984V147.992C401.716 147.352 401.566 146.904 401.268 146.648C400.99 146.392 400.51 146.264 399.828 146.264C399.124 146.264 398.153 146.296 396.916 146.36C395.678 146.403 394.644 146.456 393.812 146.52L393.684 143.544C395.988 142.925 398.164 142.616 400.212 142.616C402.26 142.616 403.732 143.043 404.628 143.896C405.545 144.749 406.004 146.115 406.004 147.992V154.648C406.046 155.181 406.132 155.544 406.26 155.736C406.409 155.928 406.676 156.067 407.06 156.152L406.932 159.384C405.822 159.384 404.937 159.309 404.276 159.16C403.636 159.011 402.996 158.712 402.356 158.264C400.798 159.011 399.23 159.384 397.652 159.384ZM398.58 155.896C399.39 155.896 400.276 155.768 401.236 155.512L401.716 155.384V151.96L398.804 152.216C397.609 152.323 397.012 152.963 397.012 154.136C397.012 155.309 397.534 155.896 398.58 155.896ZM410.731 136.6H415.019V149.336L416.651 149.048L419.819 143H424.619L420.459 150.584L424.843 159H420.011L416.779 152.76L415.019 153.048V159H410.731V136.6ZM427.84 143H432.096V144.696C433.931 143.629 435.638 142.936 437.216 142.616V146.936C435.616 147.256 434.134 147.629 432.768 148.056L432.128 148.28V159H427.84V143ZM444.29 159.384C440.984 159.384 439.33 157.635 439.33 154.136C439.33 152.472 439.768 151.277 440.642 150.552C441.538 149.805 442.968 149.368 444.93 149.24L448.354 148.984V147.992C448.354 147.352 448.205 146.904 447.906 146.648C447.629 146.392 447.149 146.264 446.466 146.264C445.762 146.264 444.792 146.296 443.554 146.36C442.317 146.403 441.282 146.456 440.45 146.52L440.322 143.544C442.626 142.925 444.802 142.616 446.85 142.616C448.898 142.616 450.37 143.043 451.266 143.896C452.184 144.749 452.642 146.115 452.642 147.992V154.648C452.685 155.181 452.77 155.544 452.898 155.736C453.048 155.928 453.314 156.067 453.698 156.152L453.57 159.384C452.461 159.384 451.576 159.309 450.914 159.16C450.274 159.011 449.634 158.712 448.994 158.264C447.437 159.011 445.869 159.384 444.29 159.384ZM445.218 155.896C446.029 155.896 446.914 155.768 447.874 155.512L448.354 155.384V151.96L445.442 152.216C444.248 152.323 443.65 152.963 443.65 154.136C443.65 155.309 444.173 155.896 445.218 155.896ZM457.626 154.616H462.362L459.482 162.936H456.026L457.626 154.616ZM480.616 159.384C478.205 159.384 476.37 158.659 475.112 157.208C473.874 155.736 473.256 153.656 473.256 150.968C473.256 148.301 473.874 146.243 475.112 144.792C476.37 143.341 478.205 142.616 480.616 142.616C483.026 142.616 484.85 143.341 486.088 144.792C487.346 146.243 487.976 148.301 487.976 150.968C487.976 153.656 487.346 155.736 486.088 157.208C484.85 158.659 483.026 159.384 480.616 159.384ZM480.616 155.736C481.64 155.736 482.397 155.363 482.888 154.616C483.378 153.869 483.624 152.653 483.624 150.968C483.624 149.283 483.378 148.077 482.888 147.352C482.397 146.627 481.64 146.264 480.616 146.264C479.592 146.264 478.834 146.627 478.344 147.352C477.853 148.077 477.608 149.283 477.608 150.968C477.608 152.653 477.853 153.869 478.344 154.616C478.834 155.363 479.592 155.736 480.616 155.736ZM491.759 143H496.015V144.696C497.85 143.629 499.556 142.936 501.135 142.616V146.936C499.535 147.256 498.052 147.629 496.687 148.056L496.047 148.28V159H491.759V143ZM517.416 159.384C516.179 159.384 515.219 159.192 514.536 158.808C513.854 158.424 513.363 157.795 513.064 156.92C512.766 156.045 512.616 154.84 512.616 153.304V146.648H510.728V143H512.616V138.552H516.904V143H520.84V146.648H516.904V153.208C516.904 154.04 516.979 154.648 517.128 155.032C517.278 155.395 517.651 155.565 518.248 155.544L520.68 155.48L520.872 158.904C520.019 159.096 519.347 159.224 518.856 159.288C518.387 159.352 517.907 159.384 517.416 159.384ZM524.273 136.6H528.561V143.768C529.371 143.363 530.086 143.075 530.705 142.904C531.345 142.712 532.027 142.616 532.753 142.616C534.715 142.616 536.102 143.245 536.913 144.504C537.745 145.741 538.161 147.683 538.161 150.328V159H533.873V150.424C533.873 148.973 533.702 147.949 533.361 147.352C533.019 146.755 532.358 146.456 531.377 146.456C530.609 146.456 529.809 146.584 528.977 146.84L528.561 146.968V159H524.273V136.6ZM548.872 159.384C546.376 159.384 544.574 158.755 543.464 157.496C542.355 156.237 541.8 154.2 541.8 151.384C541.8 148.44 542.376 146.243 543.528 144.792C544.702 143.341 546.515 142.616 548.968 142.616C551.23 142.616 552.936 143.224 554.088 144.44C555.262 145.635 555.848 147.437 555.848 149.848L555.528 152.824H546.12C546.163 153.571 546.291 154.147 546.504 154.552C546.739 154.936 547.102 155.213 547.592 155.384C548.104 155.533 548.808 155.608 549.704 155.608C550.408 155.608 551.251 155.587 552.232 155.544C553.214 155.501 553.928 155.459 554.376 155.416L555.272 155.32L555.336 158.488C552.926 159.085 550.771 159.384 548.872 159.384ZM551.624 149.56C551.624 148.28 551.422 147.395 551.016 146.904C550.632 146.392 549.939 146.136 548.936 146.136C547.912 146.136 547.187 146.403 546.76 146.936C546.334 147.448 546.11 148.323 546.088 149.56H551.624ZM7.424 196.384C6.18667 196.384 5.22667 196.192 4.544 195.808C3.86133 195.424 3.37067 194.795 3.072 193.92C2.77333 193.045 2.624 191.84 2.624 190.304V183.648H0.736V180H2.624V175.552H6.912V180H10.848V183.648H6.912V190.208C6.912 191.04 6.98667 191.648 7.136 192.032C7.28533 192.395 7.65867 192.565 8.256 192.544L10.688 192.48L10.88 195.904C10.0267 196.096 9.35467 196.224 8.864 196.288C8.39467 196.352 7.91467 196.384 7.424 196.384ZM14.2803 173.6H18.5683V180.768C19.3789 180.363 20.0936 180.075 20.7123 179.904C21.3523 179.712 22.0349 179.616 22.7603 179.616C24.7229 179.616 26.1096 180.245 26.9203 181.504C27.7523 182.741 28.1683 184.683 28.1683 187.328V196H23.8803V187.424C23.8803 185.973 23.7096 184.949 23.3683 184.352C23.0269 183.755 22.3656 183.456 21.3843 183.456C20.6163 183.456 19.8163 183.584 18.9843 183.84L18.5683 183.968V196H14.2803V173.6ZM32.6078 180H36.8958V196H32.6078V180ZM32.6078 173.632H36.8958V177.952H32.6078V173.632ZM41.4977 180H45.7537V181.696C47.5884 180.629 49.2951 179.936 50.8737 179.616V183.936C49.2737 184.256 47.7911 184.629 46.4257 185.056L45.7857 185.28V196H41.4977V180ZM59.292 196.384C57.1587 196.384 55.6227 195.712 54.684 194.368C53.7453 193.003 53.276 190.955 53.276 188.224C53.276 185.237 53.7987 183.061 54.844 181.696C55.9107 180.309 57.5427 179.616 59.74 179.616C60.5293 179.616 61.7347 179.765 63.356 180.064V173.6H67.644V196H63.388V195.328C62.5133 195.733 61.7667 196.011 61.148 196.16C60.5293 196.309 59.9107 196.384 59.292 196.384ZM60.284 192.544C61.052 192.544 61.9267 192.416 62.908 192.16L63.356 192.064V183.648C62.2253 183.435 61.276 183.328 60.508 183.328C59.484 183.328 58.748 183.691 58.3 184.416C57.852 185.141 57.628 186.379 57.628 188.128C57.628 189.728 57.8307 190.869 58.236 191.552C58.6413 192.213 59.324 192.544 60.284 192.544ZM86.1897 196.384C83.6937 196.384 81.8911 195.755 80.7817 194.496C79.6724 193.237 79.1177 191.2 79.1177 188.384C79.1177 185.44 79.6937 183.243 80.8457 181.792C82.0191 180.341 83.8324 179.616 86.2857 179.616C88.5471 179.616 90.2537 180.224 91.4057 181.44C92.5791 182.635 93.1657 184.437 93.1657 186.848L92.8457 189.824H83.4377C83.4804 190.571 83.6084 191.147 83.8217 191.552C84.0564 191.936 84.4191 192.213 84.9097 192.384C85.4217 192.533 86.1257 192.608 87.0217 192.608C87.7257 192.608 88.5684 192.587 89.5497 192.544C90.5311 192.501 91.2457 192.459 91.6937 192.416L92.5897 192.32L92.6537 195.488C90.2431 196.085 88.0884 196.384 86.1897 196.384ZM88.9417 186.56C88.9417 185.28 88.7391 184.395 88.3337 183.904C87.9497 183.392 87.2564 183.136 86.2537 183.136C85.2297 183.136 84.5044 183.403 84.0777 183.936C83.6511 184.448 83.4271 185.323 83.4057 186.56H88.9417ZM102.092 196H99.0843L95.1483 180H99.3723L102.284 192.352H103.02L105.932 180H110.156L104.524 202.72H100.332L102.092 196ZM119.282 196.384C116.786 196.384 114.984 195.755 113.874 194.496C112.765 193.237 112.21 191.2 112.21 188.384C112.21 185.44 112.786 183.243 113.938 181.792C115.112 180.341 116.925 179.616 119.378 179.616C121.64 179.616 123.346 180.224 124.498 181.44C125.672 182.635 126.258 184.437 126.258 186.848L125.938 189.824H116.53C116.573 190.571 116.701 191.147 116.914 191.552C117.149 191.936 117.512 192.213 118.002 192.384C118.514 192.533 119.218 192.608 120.114 192.608C120.818 192.608 121.661 192.587 122.642 192.544C123.624 192.501 124.338 192.459 124.786 192.416L125.682 192.32L125.746 195.488C123.336 196.085 121.181 196.384 119.282 196.384ZM122.034 186.56C122.034 185.28 121.832 184.395 121.426 183.904C121.042 183.392 120.349 183.136 119.346 183.136C118.322 183.136 117.597 183.403 117.17 183.936C116.744 184.448 116.52 185.323 116.498 186.56H122.034ZM130.219 191.616H134.955L132.075 199.936H128.619L130.219 191.616ZM146.68 180H150.968V196H146.68V180ZM146.68 173.632H150.968V177.952H146.68V173.632ZM155.57 180H159.826V180.896C160.637 180.427 161.352 180.096 161.97 179.904C162.61 179.712 163.293 179.616 164.018 179.616C165.981 179.616 167.378 180.245 168.21 181.504C169.042 182.763 169.458 184.704 169.458 187.328V196H165.17V187.456C165.17 185.984 164.989 184.949 164.626 184.352C164.285 183.755 163.624 183.456 162.642 183.456C161.938 183.456 161.138 183.605 160.242 183.904L159.858 184.032V196H155.57V180ZM186.305 187.2L179.585 174.24H184.481L188.481 182.912L192.481 174.24H197.377L190.721 187.2V196H186.305V187.2ZM204.331 196.384C201.92 196.384 200.085 195.659 198.827 194.208C197.589 192.736 196.971 190.656 196.971 187.968C196.971 185.301 197.589 183.243 198.827 181.792C200.085 180.341 201.92 179.616 204.331 179.616C206.741 179.616 208.565 180.341 209.803 181.792C211.061 183.243 211.691 185.301 211.691 187.968C211.691 190.656 211.061 192.736 209.803 194.208C208.565 195.659 206.741 196.384 204.331 196.384ZM204.331 192.736C205.355 192.736 206.112 192.363 206.603 191.616C207.093 190.869 207.339 189.653 207.339 187.968C207.339 186.283 207.093 185.077 206.603 184.352C206.112 183.627 205.355 183.264 204.331 183.264C203.307 183.264 202.549 183.627 202.059 184.352C201.568 185.077 201.323 186.283 201.323 187.968C201.323 189.653 201.568 190.869 202.059 191.616C202.549 192.363 203.307 192.736 204.331 192.736ZM221.906 203.36C219.623 203.36 217.842 203.019 216.562 202.336C215.303 201.675 214.674 200.587 214.674 199.072C214.674 198.283 214.855 197.579 215.218 196.96C215.602 196.363 216.189 195.744 216.978 195.104C216.594 194.848 216.295 194.517 216.082 194.112C215.89 193.707 215.794 193.28 215.794 192.832C215.794 192.512 215.869 192.181 216.018 191.84C216.189 191.499 216.53 190.923 217.042 190.112C215.591 189.045 214.866 187.488 214.866 185.44C214.866 183.499 215.453 182.059 216.626 181.12C217.821 180.16 219.474 179.68 221.586 179.68C222.482 179.68 223.559 179.819 224.818 180.096L229.97 179.936V183.36L227.57 183.168C227.847 183.616 228.029 184 228.114 184.32C228.221 184.64 228.274 185.077 228.274 185.632C228.274 187.552 227.73 188.928 226.642 189.76C225.554 190.571 223.901 190.976 221.682 190.976C221.042 190.976 220.551 190.933 220.21 190.848C219.997 191.36 219.89 191.797 219.89 192.16C219.89 192.608 220.103 192.885 220.53 192.992C220.978 193.077 221.799 193.131 222.994 193.152C224.637 193.195 225.938 193.323 226.898 193.536C227.879 193.749 228.637 194.187 229.17 194.848C229.703 195.488 229.97 196.437 229.97 197.696C229.97 199.637 229.309 201.067 227.986 201.984C226.663 202.901 224.637 203.36 221.906 203.36ZM221.618 187.712C223.239 187.712 224.05 186.923 224.05 185.344C224.05 183.787 223.239 183.008 221.618 183.008C219.975 183.008 219.154 183.787 219.154 185.344C219.154 186.923 219.975 187.712 221.618 187.712ZM222.194 199.84C223.41 199.84 224.285 199.701 224.818 199.424C225.373 199.147 225.65 198.72 225.65 198.144C225.65 197.611 225.447 197.269 225.042 197.12C224.658 196.992 224.199 196.917 223.666 196.896C223.154 196.875 222.813 196.864 222.642 196.864L219.762 196.64C219.186 197.216 218.898 197.792 218.898 198.368C218.898 198.88 219.165 199.253 219.698 199.488C220.253 199.723 221.085 199.84 222.194 199.84ZM233.208 180H237.496V196H233.208V180ZM233.208 173.632H237.496V177.952H233.208V173.632ZM247.734 196.384C245.43 196.384 243.755 195.723 242.71 194.4C241.686 193.056 241.174 190.923 241.174 188C241.174 185.035 241.707 182.901 242.774 181.6C243.84 180.277 245.579 179.616 247.99 179.616C248.608 179.616 249.291 179.669 250.038 179.776C250.784 179.883 251.787 180.064 253.046 180.32L252.918 183.712C251.104 183.541 249.846 183.456 249.142 183.456C248.16 183.456 247.414 183.595 246.902 183.872C246.39 184.128 246.027 184.576 245.814 185.216C245.622 185.856 245.526 186.773 245.526 187.968C245.526 189.184 245.622 190.112 245.814 190.752C246.027 191.392 246.39 191.851 246.902 192.128C247.435 192.405 248.203 192.544 249.206 192.544L252.918 192.288L253.046 195.712C250.784 196.16 249.014 196.384 247.734 196.384ZM270.134 196.384C268.726 196.384 267.009 196.192 264.982 195.808L263.958 195.616L264.086 192.032C266.667 192.373 268.545 192.544 269.718 192.544C270.507 192.544 271.126 192.459 271.574 192.288C272.043 192.117 272.278 191.797 272.278 191.328C272.278 190.901 272.054 190.592 271.606 190.4C271.179 190.208 270.454 190.027 269.43 189.856C269.046 189.813 268.779 189.771 268.63 189.728C267.563 189.536 266.689 189.301 266.006 189.024C265.323 188.725 264.769 188.267 264.342 187.648C263.915 187.008 263.702 186.123 263.702 184.992C263.702 183.179 264.257 181.835 265.366 180.96C266.475 180.085 268.001 179.648 269.942 179.648C271.094 179.648 272.79 179.851 275.03 180.256L276.086 180.448L276.022 184C273.441 183.659 271.531 183.488 270.294 183.488C269.569 183.488 268.993 183.563 268.566 183.712C268.161 183.861 267.958 184.149 267.958 184.576C267.958 185.024 268.171 185.344 268.598 185.536C269.025 185.707 269.718 185.877 270.678 186.048L271.798 186.24C273.505 186.581 274.721 187.093 275.446 187.776C276.171 188.437 276.534 189.515 276.534 191.008C276.534 192.843 276.011 194.197 274.966 195.072C273.921 195.947 272.31 196.384 270.134 196.384ZM285.521 196H282.513L278.577 180H282.801L285.713 192.352H286.449L289.361 180H293.585L287.953 202.72H283.761L285.521 196ZM302.07 196.384C300.662 196.384 298.945 196.192 296.918 195.808L295.894 195.616L296.022 192.032C298.604 192.373 300.481 192.544 301.654 192.544C302.444 192.544 303.062 192.459 303.51 192.288C303.98 192.117 304.214 191.797 304.214 191.328C304.214 190.901 303.99 190.592 303.542 190.4C303.116 190.208 302.39 190.027 301.366 189.856C300.982 189.813 300.716 189.771 300.566 189.728C299.5 189.536 298.625 189.301 297.942 189.024C297.26 188.725 296.705 188.267 296.278 187.648C295.852 187.008 295.638 186.123 295.638 184.992C295.638 183.179 296.193 181.835 297.302 180.96C298.412 180.085 299.937 179.648 301.878 179.648C303.03 179.648 304.726 179.851 306.966 180.256L308.022 180.448L307.958 184C305.377 183.659 303.468 183.488 302.23 183.488C301.505 183.488 300.929 183.563 300.502 183.712C300.097 183.861 299.894 184.149 299.894 184.576C299.894 185.024 300.108 185.344 300.534 185.536C300.961 185.707 301.654 185.877 302.614 186.048L303.734 186.24C305.441 186.581 306.657 187.093 307.382 187.776C308.108 188.437 308.47 189.515 308.47 191.008C308.47 192.843 307.948 194.197 306.902 195.072C305.857 195.947 304.246 196.384 302.07 196.384ZM317.644 196.384C316.407 196.384 315.447 196.192 314.764 195.808C314.081 195.424 313.591 194.795 313.292 193.92C312.993 193.045 312.844 191.84 312.844 190.304V183.648H310.956V180H312.844V175.552H317.132V180H321.068V183.648H317.132V190.208C317.132 191.04 317.207 191.648 317.356 192.032C317.505 192.395 317.879 192.565 318.476 192.544L320.908 192.48L321.1 195.904C320.247 196.096 319.575 196.224 319.084 196.288C318.615 196.352 318.135 196.384 317.644 196.384ZM330.772 196.384C328.276 196.384 326.474 195.755 325.364 194.496C324.255 193.237 323.7 191.2 323.7 188.384C323.7 185.44 324.276 183.243 325.428 181.792C326.602 180.341 328.415 179.616 330.868 179.616C333.13 179.616 334.836 180.224 335.988 181.44C337.162 182.635 337.748 184.437 337.748 186.848L337.428 189.824H328.02C328.063 190.571 328.191 191.147 328.404 191.552C328.639 191.936 329.002 192.213 329.492 192.384C330.004 192.533 330.708 192.608 331.604 192.608C332.308 192.608 333.151 192.587 334.132 192.544C335.114 192.501 335.828 192.459 336.276 192.416L337.172 192.32L337.236 195.488C334.826 196.085 332.671 196.384 330.772 196.384ZM333.524 186.56C333.524 185.28 333.322 184.395 332.916 183.904C332.532 183.392 331.839 183.136 330.836 183.136C329.812 183.136 329.087 183.403 328.66 183.936C328.234 184.448 328.01 185.323 327.988 186.56H333.524ZM341.453 180H345.709V180.896C346.498 180.448 347.181 180.128 347.757 179.936C348.354 179.723 348.973 179.616 349.613 179.616C350.359 179.616 351.074 179.744 351.757 180C352.461 180.235 353.037 180.608 353.485 181.12C354.487 180.608 355.426 180.235 356.301 180C357.197 179.744 358.103 179.616 359.021 179.616C361.005 179.616 362.413 180.224 363.245 181.44C364.077 182.656 364.493 184.619 364.493 187.328V196H360.205V187.456C360.205 186.027 360.045 185.003 359.725 184.384C359.405 183.765 358.807 183.456 357.933 183.456C357.314 183.456 356.493 183.605 355.469 183.904L354.989 184.064C355.074 185.493 355.117 186.709 355.117 187.712V196H350.829V187.776C350.829 186.624 350.765 185.749 350.637 185.152C350.53 184.555 350.306 184.128 349.965 183.872C349.645 183.595 349.154 183.456 348.493 183.456C347.81 183.456 347.021 183.605 346.125 183.904L345.741 184.032V196H341.453V180ZM382.048 196.384C380.81 196.384 379.85 196.192 379.168 195.808C378.485 195.424 377.994 194.795 377.696 193.92C377.397 193.045 377.248 191.84 377.248 190.304V183.648H375.36V180H377.248V175.552H381.536V180H385.472V183.648H381.536V190.208C381.536 191.04 381.61 191.648 381.76 192.032C381.909 192.395 382.282 192.565 382.88 192.544L385.312 192.48L385.504 195.904C384.65 196.096 383.978 196.224 383.488 196.288C383.018 196.352 382.538 196.384 382.048 196.384ZM388.904 173.6H393.192V180.768C394.003 180.363 394.717 180.075 395.336 179.904C395.976 179.712 396.659 179.616 397.384 179.616C399.347 179.616 400.733 180.245 401.544 181.504C402.376 182.741 402.792 184.683 402.792 187.328V196H398.504V187.424C398.504 185.973 398.333 184.949 397.992 184.352C397.651 183.755 396.989 183.456 396.008 183.456C395.24 183.456 394.44 183.584 393.608 183.84L393.192 183.968V196H388.904V173.6ZM411.135 196.384C407.829 196.384 406.175 194.635 406.175 191.136C406.175 189.472 406.613 188.277 407.487 187.552C408.383 186.805 409.813 186.368 411.775 186.24L415.199 185.984V184.992C415.199 184.352 415.05 183.904 414.751 183.648C414.474 183.392 413.994 183.264 413.311 183.264C412.607 183.264 411.637 183.296 410.399 183.36C409.162 183.403 408.127 183.456 407.295 183.52L407.167 180.544C409.471 179.925 411.647 179.616 413.695 179.616C415.743 179.616 417.215 180.043 418.111 180.896C419.029 181.749 419.487 183.115 419.487 184.992V191.648C419.53 192.181 419.615 192.544 419.743 192.736C419.893 192.928 420.159 193.067 420.543 193.152L420.415 196.384C419.306 196.384 418.421 196.309 417.759 196.16C417.119 196.011 416.479 195.712 415.839 195.264C414.282 196.011 412.714 196.384 411.135 196.384ZM412.063 192.896C412.874 192.896 413.759 192.768 414.719 192.512L415.199 192.384V188.96L412.287 189.216C411.093 189.323 410.495 189.963 410.495 191.136C410.495 192.309 411.018 192.896 412.063 192.896ZM429.655 196.384C428.418 196.384 427.458 196.192 426.775 195.808C426.093 195.424 425.602 194.795 425.303 193.92C425.005 193.045 424.855 191.84 424.855 190.304V183.648H422.967V180H424.855V175.552H429.143V180H433.079V183.648H429.143V190.208C429.143 191.04 429.218 191.648 429.367 192.032C429.517 192.395 429.89 192.565 430.487 192.544L432.919 192.48L433.111 195.904C432.258 196.096 431.586 196.224 431.095 196.288C430.626 196.352 430.146 196.384 429.655 196.384ZM448.087 196.384C444.78 196.384 443.127 194.635 443.127 191.136C443.127 189.472 443.564 188.277 444.439 187.552C445.335 186.805 446.764 186.368 448.727 186.24L452.151 185.984V184.992C452.151 184.352 452.001 183.904 451.703 183.648C451.425 183.392 450.945 183.264 450.263 183.264C449.559 183.264 448.588 183.296 447.351 183.36C446.113 183.403 445.079 183.456 444.247 183.52L444.119 180.544C446.423 179.925 448.599 179.616 450.647 179.616C452.695 179.616 454.167 180.043 455.063 180.896C455.98 181.749 456.439 183.115 456.439 184.992V191.648C456.481 192.181 456.567 192.544 456.695 192.736C456.844 192.928 457.111 193.067 457.495 193.152L457.367 196.384C456.257 196.384 455.372 196.309 454.711 196.16C454.071 196.011 453.431 195.712 452.791 195.264C451.233 196.011 449.665 196.384 448.087 196.384ZM449.015 192.896C449.825 192.896 450.711 192.768 451.671 192.512L452.151 192.384V188.96L449.239 189.216C448.044 189.323 447.447 189.963 447.447 191.136C447.447 192.309 447.969 192.896 449.015 192.896ZM461.358 173.6H465.646V196H461.358V173.6ZM470.624 173.6H474.912V196H470.624V173.6ZM486.068 196.384C483.658 196.384 481.823 195.659 480.564 194.208C479.327 192.736 478.708 190.656 478.708 187.968C478.708 185.301 479.327 183.243 480.564 181.792C481.823 180.341 483.658 179.616 486.068 179.616C488.479 179.616 490.303 180.341 491.54 181.792C492.799 183.243 493.428 185.301 493.428 187.968C493.428 190.656 492.799 192.736 491.54 194.208C490.303 195.659 488.479 196.384 486.068 196.384ZM486.068 192.736C487.092 192.736 487.85 192.363 488.34 191.616C488.831 190.869 489.076 189.653 489.076 187.968C489.076 186.283 488.831 185.077 488.34 184.352C487.85 183.627 487.092 183.264 486.068 183.264C485.044 183.264 484.287 183.627 483.796 184.352C483.306 185.077 483.06 186.283 483.06 187.968C483.06 189.653 483.306 190.869 483.796 191.616C484.287 192.363 485.044 192.736 486.068 192.736ZM495.996 180H500.22L502.172 192.352H502.94L505.372 180.32H509.788L512.22 192.352H512.988L514.94 180H519.164L516.124 196H509.404L507.58 186.208L505.756 196H499.036L495.996 180ZM528.17 196.384C526.762 196.384 525.045 196.192 523.018 195.808L521.994 195.616L522.122 192.032C524.704 192.373 526.581 192.544 527.754 192.544C528.544 192.544 529.162 192.459 529.61 192.288C530.08 192.117 530.314 191.797 530.314 191.328C530.314 190.901 530.09 190.592 529.642 190.4C529.216 190.208 528.49 190.027 527.466 189.856C527.082 189.813 526.816 189.771 526.666 189.728C525.6 189.536 524.725 189.301 524.042 189.024C523.36 188.725 522.805 188.267 522.378 187.648C521.952 187.008 521.738 186.123 521.738 184.992C521.738 183.179 522.293 181.835 523.402 180.96C524.512 180.085 526.037 179.648 527.978 179.648C529.13 179.648 530.826 179.851 533.066 180.256L534.122 180.448L534.058 184C531.477 183.659 529.568 183.488 528.33 183.488C527.605 183.488 527.029 183.563 526.602 183.712C526.197 183.861 525.994 184.149 525.994 184.576C525.994 185.024 526.208 185.344 526.634 185.536C527.061 185.707 527.754 185.877 528.714 186.048L529.834 186.24C531.541 186.581 532.757 187.093 533.482 187.776C534.208 188.437 534.57 189.515 534.57 191.008C534.57 192.843 534.048 194.197 533.002 195.072C531.957 195.947 530.346 196.384 528.17 196.384ZM552.503 196.384C550.093 196.384 548.258 195.659 546.999 194.208C545.762 192.736 545.143 190.656 545.143 187.968C545.143 185.301 545.762 183.243 546.999 181.792C548.258 180.341 550.093 179.616 552.503 179.616C554.914 179.616 556.738 180.341 557.975 181.792C559.234 183.243 559.863 185.301 559.863 187.968C559.863 190.656 559.234 192.736 557.975 194.208C556.738 195.659 554.914 196.384 552.503 196.384ZM552.503 192.736C553.527 192.736 554.285 192.363 554.775 191.616C555.266 190.869 555.511 189.653 555.511 187.968C555.511 186.283 555.266 185.077 554.775 184.352C554.285 183.627 553.527 183.264 552.503 183.264C551.479 183.264 550.722 183.627 550.231 184.352C549.741 185.077 549.495 186.283 549.495 187.968C549.495 189.653 549.741 190.869 550.231 191.616C550.722 192.363 551.479 192.736 552.503 192.736ZM563.646 180H567.902V180.896C568.713 180.427 569.428 180.096 570.046 179.904C570.686 179.712 571.369 179.616 572.094 179.616C574.057 179.616 575.454 180.245 576.286 181.504C577.118 182.763 577.534 184.704 577.534 187.328V196H573.246V187.456C573.246 185.984 573.065 184.949 572.702 184.352C572.361 183.755 571.7 183.456 570.718 183.456C570.014 183.456 569.214 183.605 568.318 183.904L567.934 184.032V196H563.646V180ZM588.246 196.384C585.75 196.384 583.947 195.755 582.838 194.496C581.729 193.237 581.174 191.2 581.174 188.384C581.174 185.44 581.75 183.243 582.902 181.792C584.075 180.341 585.889 179.616 588.342 179.616C590.603 179.616 592.31 180.224 593.462 181.44C594.635 182.635 595.222 184.437 595.222 186.848L594.902 189.824H585.494C585.537 190.571 585.665 191.147 585.878 191.552C586.113 191.936 586.475 192.213 586.966 192.384C587.478 192.533 588.182 192.608 589.078 192.608C589.782 192.608 590.625 192.587 591.606 192.544C592.587 192.501 593.302 192.459 593.75 192.416L594.646 192.32L594.71 195.488C592.299 196.085 590.145 196.384 588.246 196.384ZM590.998 186.56C590.998 185.28 590.795 184.395 590.39 183.904C590.006 183.392 589.313 183.136 588.31 183.136C587.286 183.136 586.561 183.403 586.134 183.936C585.707 184.448 585.483 185.323 585.462 186.56H590.998ZM7.424 233.384C6.18667 233.384 5.22667 233.192 4.544 232.808C3.86133 232.424 3.37067 231.795 3.072 230.92C2.77333 230.045 2.624 228.84 2.624 227.304V220.648H0.736V217H2.624V212.552H6.912V217H10.848V220.648H6.912V227.208C6.912 228.04 6.98667 228.648 7.136 229.032C7.28533 229.395 7.65867 229.565 8.256 229.544L10.688 229.48L10.88 232.904C10.0267 233.096 9.35467 233.224 8.864 233.288C8.39467 233.352 7.91467 233.384 7.424 233.384ZM20.8083 233.384C18.3976 233.384 16.5629 232.659 15.3043 231.208C14.0669 229.736 13.4483 227.656 13.4483 224.968C13.4483 222.301 14.0669 220.243 15.3043 218.792C16.5629 217.341 18.3976 216.616 20.8083 216.616C23.2189 216.616 25.0429 217.341 26.2803 218.792C27.5389 220.243 28.1683 222.301 28.1683 224.968C28.1683 227.656 27.5389 229.736 26.2803 231.208C25.0429 232.659 23.2189 233.384 20.8083 233.384ZM20.8083 229.736C21.8323 229.736 22.5896 229.363 23.0803 228.616C23.5709 227.869 23.8163 226.653 23.8163 224.968C23.8163 223.283 23.5709 222.077 23.0803 221.352C22.5896 220.627 21.8323 220.264 20.8083 220.264C19.7843 220.264 19.0269 220.627 18.5363 221.352C18.0456 222.077 17.8003 223.283 17.8003 224.968C17.8003 226.653 18.0456 227.869 18.5363 228.616C19.0269 229.363 19.7843 229.736 20.8083 229.736ZM39.6227 217H43.8787V217.864C44.7107 217.373 45.4041 217.043 45.9587 216.872C46.5347 216.701 47.1427 216.616 47.7827 216.616C49.8307 216.616 51.3454 217.299 52.3267 218.664C53.3294 220.008 53.8307 222.163 53.8307 225.128C53.8307 227.176 53.5854 228.797 53.0947 229.992C52.6041 231.187 51.8361 232.051 50.7907 232.584C49.7454 233.117 48.3587 233.384 46.6307 233.384C45.7774 233.384 44.8707 233.299 43.9107 233.128V239.72H39.6227V217ZM46.2147 229.672C47.4094 229.672 48.2521 229.331 48.7427 228.648C49.2334 227.944 49.4787 226.771 49.4787 225.128C49.4787 223.507 49.2547 222.323 48.8067 221.576C48.3587 220.829 47.6227 220.456 46.5987 220.456C45.8521 220.456 45.0841 220.616 44.2947 220.936L43.9107 221.096V229.48C44.8707 229.608 45.6387 229.672 46.2147 229.672ZM63.941 233.384C61.445 233.384 59.6423 232.755 58.533 231.496C57.4237 230.237 56.869 228.2 56.869 225.384C56.869 222.44 57.445 220.243 58.597 218.792C59.7703 217.341 61.5837 216.616 64.037 216.616C66.2983 216.616 68.005 217.224 69.157 218.44C70.3303 219.635 70.917 221.437 70.917 223.848L70.597 226.824H61.189C61.2317 227.571 61.3597 228.147 61.573 228.552C61.8077 228.936 62.1703 229.213 62.661 229.384C63.173 229.533 63.877 229.608 64.773 229.608C65.477 229.608 66.3197 229.587 67.301 229.544C68.2823 229.501 68.997 229.459 69.445 229.416L70.341 229.32L70.405 232.488C67.9943 233.085 65.8397 233.384 63.941 233.384ZM66.693 223.56C66.693 222.28 66.4903 221.395 66.085 220.904C65.701 220.392 65.0077 220.136 64.005 220.136C62.981 220.136 62.2557 220.403 61.829 220.936C61.4023 221.448 61.1783 222.323 61.157 223.56H66.693ZM74.6215 217H78.8775V218.696C80.7122 217.629 82.4188 216.936 83.9975 216.616V220.936C82.3975 221.256 80.9148 221.629 79.5495 222.056L78.9095 222.28V233H74.6215V217ZM92.9597 233.384C90.6557 233.384 88.9811 232.723 87.9357 231.4C86.9117 230.056 86.3997 227.923 86.3997 225C86.3997 222.035 86.9331 219.901 87.9997 218.6C89.0664 217.277 90.8051 216.616 93.2157 216.616C93.8344 216.616 94.5171 216.669 95.2637 216.776C96.0104 216.883 97.0131 217.064 98.2717 217.32L98.1437 220.712C96.3304 220.541 95.0717 220.456 94.3677 220.456C93.3864 220.456 92.6397 220.595 92.1277 220.872C91.6157 221.128 91.2531 221.576 91.0397 222.216C90.8477 222.856 90.7517 223.773 90.7517 224.968C90.7517 226.184 90.8477 227.112 91.0397 227.752C91.2531 228.392 91.6157 228.851 92.1277 229.128C92.6611 229.405 93.4291 229.544 94.4317 229.544L98.1437 229.288L98.2717 232.712C96.0104 233.16 94.2397 233.384 92.9597 233.384ZM108.236 233.384C105.74 233.384 103.937 232.755 102.828 231.496C101.719 230.237 101.164 228.2 101.164 225.384C101.164 222.44 101.74 220.243 102.892 218.792C104.065 217.341 105.879 216.616 108.332 216.616C110.593 216.616 112.3 217.224 113.452 218.44C114.625 219.635 115.212 221.437 115.212 223.848L114.892 226.824H105.484C105.527 227.571 105.655 228.147 105.868 228.552C106.103 228.936 106.465 229.213 106.956 229.384C107.468 229.533 108.172 229.608 109.068 229.608C109.772 229.608 110.615 229.587 111.596 229.544C112.577 229.501 113.292 229.459 113.74 229.416L114.636 229.32L114.7 232.488C112.289 233.085 110.135 233.384 108.236 233.384ZM110.988 223.56C110.988 222.28 110.785 221.395 110.38 220.904C109.996 220.392 109.303 220.136 108.3 220.136C107.276 220.136 106.551 220.403 106.124 220.936C105.697 221.448 105.473 222.323 105.452 223.56H110.988ZM118.917 217H123.205V233H118.917V217ZM118.917 210.632H123.205V214.952H118.917V210.632ZM126.303 217H130.783L133.343 229.352H134.239L136.927 217H141.279L137.439 233H130.143L126.303 217ZM150.437 233.384C147.941 233.384 146.139 232.755 145.029 231.496C143.92 230.237 143.365 228.2 143.365 225.384C143.365 222.44 143.941 220.243 145.093 218.792C146.267 217.341 148.08 216.616 150.533 216.616C152.795 216.616 154.501 217.224 155.653 218.44C156.827 219.635 157.413 221.437 157.413 223.848L157.093 226.824H147.685C147.728 227.571 147.856 228.147 148.069 228.552C148.304 228.936 148.667 229.213 149.157 229.384C149.669 229.533 150.373 229.608 151.269 229.608C151.973 229.608 152.816 229.587 153.797 229.544C154.779 229.501 155.493 229.459 155.941 229.416L156.837 229.32L156.901 232.488C154.491 233.085 152.336 233.384 150.437 233.384ZM153.189 223.56C153.189 222.28 152.987 221.395 152.581 220.904C152.197 220.392 151.504 220.136 150.501 220.136C149.477 220.136 148.752 220.403 148.325 220.936C147.899 221.448 147.675 222.323 147.653 223.56H153.189ZM174.229 233.384C172.992 233.384 172.032 233.192 171.349 232.808C170.666 232.424 170.176 231.795 169.877 230.92C169.578 230.045 169.429 228.84 169.429 227.304V220.648H167.541V217H169.429V212.552H173.717V217H177.653V220.648H173.717V227.208C173.717 228.04 173.792 228.648 173.941 229.032C174.09 229.395 174.464 229.565 175.061 229.544L177.493 229.48L177.685 232.904C176.832 233.096 176.16 233.224 175.669 233.288C175.2 233.352 174.72 233.384 174.229 233.384ZM181.085 210.6H185.373V217.768C186.184 217.363 186.899 217.075 187.517 216.904C188.157 216.712 188.84 216.616 189.565 216.616C191.528 216.616 192.915 217.245 193.725 218.504C194.557 219.741 194.973 221.683 194.973 224.328V233H190.685V224.424C190.685 222.973 190.515 221.949 190.173 221.352C189.832 220.755 189.171 220.456 188.189 220.456C187.421 220.456 186.621 220.584 185.789 220.84L185.373 220.968V233H181.085V210.6ZM199.413 217H203.701V233H199.413V217ZM199.413 210.632H203.701V214.952H199.413V210.632ZM208.303 217H212.559V217.896C213.369 217.427 214.084 217.096 214.703 216.904C215.343 216.712 216.025 216.616 216.751 216.616C218.713 216.616 220.111 217.245 220.943 218.504C221.775 219.763 222.191 221.704 222.191 224.328V233H217.903V224.456C217.903 222.984 217.721 221.949 217.359 221.352C217.017 220.755 216.356 220.456 215.375 220.456C214.671 220.456 213.871 220.605 212.975 220.904L212.591 221.032V233H208.303V217ZM233.062 240.36C230.78 240.36 228.998 240.019 227.718 239.336C226.46 238.675 225.83 237.587 225.83 236.072C225.83 235.283 226.012 234.579 226.374 233.96C226.758 233.363 227.345 232.744 228.134 232.104C227.75 231.848 227.452 231.517 227.238 231.112C227.046 230.707 226.95 230.28 226.95 229.832C226.95 229.512 227.025 229.181 227.174 228.84C227.345 228.499 227.686 227.923 228.198 227.112C226.748 226.045 226.022 224.488 226.022 222.44C226.022 220.499 226.609 219.059 227.782 218.12C228.977 217.16 230.63 216.68 232.742 216.68C233.638 216.68 234.716 216.819 235.974 217.096L241.126 216.936V220.36L238.726 220.168C239.004 220.616 239.185 221 239.27 221.32C239.377 221.64 239.43 222.077 239.43 222.632C239.43 224.552 238.886 225.928 237.798 226.76C236.71 227.571 235.057 227.976 232.838 227.976C232.198 227.976 231.708 227.933 231.366 227.848C231.153 228.36 231.046 228.797 231.046 229.16C231.046 229.608 231.26 229.885 231.686 229.992C232.134 230.077 232.956 230.131 234.15 230.152C235.793 230.195 237.094 230.323 238.054 230.536C239.036 230.749 239.793 231.187 240.326 231.848C240.86 232.488 241.126 233.437 241.126 234.696C241.126 236.637 240.465 238.067 239.142 238.984C237.82 239.901 235.793 240.36 233.062 240.36ZM232.774 224.712C234.396 224.712 235.206 223.923 235.206 222.344C235.206 220.787 234.396 220.008 232.774 220.008C231.132 220.008 230.31 220.787 230.31 222.344C230.31 223.923 231.132 224.712 232.774 224.712ZM233.35 236.84C234.566 236.84 235.441 236.701 235.974 236.424C236.529 236.147 236.806 235.72 236.806 235.144C236.806 234.611 236.604 234.269 236.198 234.12C235.814 233.992 235.356 233.917 234.822 233.896C234.31 233.875 233.969 233.864 233.798 233.864L230.918 233.64C230.342 234.216 230.054 234.792 230.054 235.368C230.054 235.88 230.321 236.253 230.854 236.488C231.409 236.723 232.241 236.84 233.35 236.84ZM249.964 233.384C248.556 233.384 246.839 233.192 244.812 232.808L243.788 232.616L243.916 229.032C246.497 229.373 248.375 229.544 249.548 229.544C250.337 229.544 250.956 229.459 251.404 229.288C251.873 229.117 252.108 228.797 252.108 228.328C252.108 227.901 251.884 227.592 251.436 227.4C251.009 227.208 250.284 227.027 249.26 226.856C248.876 226.813 248.609 226.771 248.46 226.728C247.393 226.536 246.519 226.301 245.836 226.024C245.153 225.725 244.599 225.267 244.172 224.648C243.745 224.008 243.532 223.123 243.532 221.992C243.532 220.179 244.087 218.835 245.196 217.96C246.305 217.085 247.831 216.648 249.772 216.648C250.924 216.648 252.62 216.851 254.86 217.256L255.916 217.448L255.852 221C253.271 220.659 251.361 220.488 250.124 220.488C249.399 220.488 248.823 220.563 248.396 220.712C247.991 220.861 247.788 221.149 247.788 221.576C247.788 222.024 248.001 222.344 248.428 222.536C248.855 222.707 249.548 222.877 250.508 223.048L251.628 223.24C253.335 223.581 254.551 224.093 255.276 224.776C256.001 225.437 256.364 226.515 256.364 228.008C256.364 229.843 255.841 231.197 254.796 232.072C253.751 232.947 252.14 233.384 249.964 233.384ZM274.361 233.384C272.846 233.384 271.054 233.277 268.985 233.064L267.769 232.936V210.6H272.057V217.48C272.868 217.16 273.529 216.936 274.041 216.808C274.553 216.68 275.15 216.616 275.833 216.616C277.945 216.616 279.492 217.267 280.473 218.568C281.476 219.869 281.977 222.003 281.977 224.968C281.977 227.059 281.721 228.712 281.209 229.928C280.718 231.144 279.918 232.029 278.809 232.584C277.7 233.117 276.217 233.384 274.361 233.384ZM274.105 229.544C275.428 229.544 276.345 229.213 276.857 228.552C277.369 227.869 277.625 226.685 277.625 225C277.625 223.357 277.39 222.195 276.921 221.512C276.473 220.808 275.748 220.456 274.745 220.456C274.041 220.456 273.145 220.595 272.057 220.872V229.416C272.932 229.501 273.614 229.544 274.105 229.544ZM292.087 233.384C289.591 233.384 287.789 232.755 286.679 231.496C285.57 230.237 285.015 228.2 285.015 225.384C285.015 222.44 285.591 220.243 286.743 218.792C287.917 217.341 289.73 216.616 292.183 216.616C294.445 216.616 296.151 217.224 297.303 218.44C298.477 219.635 299.063 221.437 299.063 223.848L298.743 226.824H289.335C289.378 227.571 289.506 228.147 289.719 228.552C289.954 228.936 290.317 229.213 290.807 229.384C291.319 229.533 292.023 229.608 292.919 229.608C293.623 229.608 294.466 229.587 295.447 229.544C296.429 229.501 297.143 229.459 297.591 229.416L298.487 229.32L298.551 232.488C296.141 233.085 293.986 233.384 292.087 233.384ZM294.839 223.56C294.839 222.28 294.637 221.395 294.231 220.904C293.847 220.392 293.154 220.136 292.151 220.136C291.127 220.136 290.402 220.403 289.975 220.936C289.549 221.448 289.325 222.323 289.303 223.56H294.839ZM307.99 233H304.982L301.046 217H305.27L308.182 229.352H308.918L311.83 217H316.054L310.422 239.72H306.23L307.99 233ZM325.436 233.384C323.025 233.384 321.19 232.659 319.932 231.208C318.694 229.736 318.076 227.656 318.076 224.968C318.076 222.301 318.694 220.243 319.932 218.792C321.19 217.341 323.025 216.616 325.436 216.616C327.846 216.616 329.67 217.341 330.908 218.792C332.166 220.243 332.796 222.301 332.796 224.968C332.796 227.656 332.166 229.736 330.908 231.208C329.67 232.659 327.846 233.384 325.436 233.384ZM325.436 229.736C326.46 229.736 327.217 229.363 327.708 228.616C328.198 227.869 328.444 226.653 328.444 224.968C328.444 223.283 328.198 222.077 327.708 221.352C327.217 220.627 326.46 220.264 325.436 220.264C324.412 220.264 323.654 220.627 323.164 221.352C322.673 222.077 322.428 223.283 322.428 224.968C322.428 226.653 322.673 227.869 323.164 228.616C323.654 229.363 324.412 229.736 325.436 229.736ZM336.579 217H340.835V217.896C341.646 217.427 342.36 217.096 342.979 216.904C343.619 216.712 344.302 216.616 345.027 216.616C346.99 216.616 348.387 217.245 349.219 218.504C350.051 219.763 350.467 221.704 350.467 224.328V233H346.179V224.456C346.179 222.984 345.998 221.949 345.635 221.352C345.294 220.755 344.632 220.456 343.651 220.456C342.947 220.456 342.147 220.605 341.251 220.904L340.867 221.032V233H336.579V217ZM360.154 233.384C358.021 233.384 356.485 232.712 355.546 231.368C354.608 230.003 354.138 227.955 354.138 225.224C354.138 222.237 354.661 220.061 355.706 218.696C356.773 217.309 358.405 216.616 360.602 216.616C361.392 216.616 362.597 216.765 364.218 217.064V210.6H368.506V233H364.25V232.328C363.376 232.733 362.629 233.011 362.01 233.16C361.392 233.309 360.773 233.384 360.154 233.384ZM361.146 229.544C361.914 229.544 362.789 229.416 363.77 229.16L364.218 229.064V220.648C363.088 220.435 362.138 220.328 361.37 220.328C360.346 220.328 359.61 220.691 359.162 221.416C358.714 222.141 358.49 223.379 358.49 225.128C358.49 226.728 358.693 227.869 359.098 228.552C359.504 229.213 360.186 229.544 361.146 229.544ZM387.308 233.384C384.898 233.384 383.063 232.659 381.804 231.208C380.567 229.736 379.948 227.656 379.948 224.968C379.948 222.301 380.567 220.243 381.804 218.792C383.063 217.341 384.898 216.616 387.308 216.616C389.719 216.616 391.543 217.341 392.78 218.792C394.039 220.243 394.668 222.301 394.668 224.968C394.668 227.656 394.039 229.736 392.78 231.208C391.543 232.659 389.719 233.384 387.308 233.384ZM387.308 229.736C388.332 229.736 389.09 229.363 389.58 228.616C390.071 227.869 390.316 226.653 390.316 224.968C390.316 223.283 390.071 222.077 389.58 221.352C389.09 220.627 388.332 220.264 387.308 220.264C386.284 220.264 385.527 220.627 385.036 221.352C384.546 222.077 384.3 223.283 384.3 224.968C384.3 226.653 384.546 227.869 385.036 228.616C385.527 229.363 386.284 229.736 387.308 229.736ZM398.451 217H402.707V218.696C404.542 217.629 406.249 216.936 407.827 216.616V220.936C406.227 221.256 404.745 221.629 403.379 222.056L402.739 222.28V233H398.451V217ZM416.246 233.384C414.112 233.384 412.576 232.712 411.638 231.368C410.699 230.003 410.23 227.955 410.23 225.224C410.23 222.237 410.752 220.061 411.798 218.696C412.864 217.309 414.496 216.616 416.694 216.616C417.483 216.616 418.688 216.765 420.31 217.064V210.6H424.598V233H420.342V232.328C419.467 232.733 418.72 233.011 418.102 233.16C417.483 233.309 416.864 233.384 416.246 233.384ZM417.238 229.544C418.006 229.544 418.88 229.416 419.862 229.16L420.31 229.064V220.648C419.179 220.435 418.23 220.328 417.462 220.328C416.438 220.328 415.702 220.691 415.254 221.416C414.806 222.141 414.582 223.379 414.582 225.128C414.582 226.728 414.784 227.869 415.19 228.552C415.595 229.213 416.278 229.544 417.238 229.544ZM429.2 217H433.488V233H429.2V217ZM429.2 210.632H433.488V214.952H429.2V210.632ZM438.09 217H442.346V217.896C443.157 217.427 443.872 217.096 444.49 216.904C445.13 216.712 445.813 216.616 446.538 216.616C448.501 216.616 449.898 217.245 450.73 218.504C451.562 219.763 451.978 221.704 451.978 224.328V233H447.69V224.456C447.69 222.984 447.509 221.949 447.146 221.352C446.805 220.755 446.144 220.456 445.162 220.456C444.458 220.456 443.658 220.605 442.762 220.904L442.378 221.032V233H438.09V217ZM460.322 233.384C457.015 233.384 455.362 231.635 455.362 228.136C455.362 226.472 455.799 225.277 456.674 224.552C457.57 223.805 458.999 223.368 460.962 223.24L464.386 222.984V221.992C464.386 221.352 464.236 220.904 463.938 220.648C463.66 220.392 463.18 220.264 462.498 220.264C461.794 220.264 460.823 220.296 459.586 220.36C458.348 220.403 457.314 220.456 456.482 220.52L456.354 217.544C458.658 216.925 460.834 216.616 462.882 216.616C464.93 216.616 466.402 217.043 467.298 217.896C468.215 218.749 468.674 220.115 468.674 221.992V228.648C468.716 229.181 468.802 229.544 468.93 229.736C469.079 229.928 469.346 230.067 469.73 230.152L469.602 233.384C468.492 233.384 467.607 233.309 466.946 233.16C466.306 233.011 465.666 232.712 465.026 232.264C463.468 233.011 461.9 233.384 460.322 233.384ZM461.25 229.896C462.06 229.896 462.946 229.768 463.906 229.512L464.386 229.384V225.96L461.474 226.216C460.279 226.323 459.682 226.963 459.682 228.136C459.682 229.309 460.204 229.896 461.25 229.896ZM473.402 217H477.658V218.696C479.492 217.629 481.199 216.936 482.778 216.616V220.936C481.178 221.256 479.695 221.629 478.33 222.056L477.69 222.28V233H473.402V217ZM491.42 233H488.412L484.476 217H488.7L491.612 229.352H492.348L495.26 217H499.484L493.852 239.72H489.66L491.42 233ZM1.984 254H6.24V254.864C7.072 254.373 7.76533 254.043 8.32 253.872C8.896 253.701 9.504 253.616 10.144 253.616C12.192 253.616 13.7067 254.299 14.688 255.664C15.6907 257.008 16.192 259.163 16.192 262.128C16.192 264.176 15.9467 265.797 15.456 266.992C14.9653 268.187 14.1973 269.051 13.152 269.584C12.1067 270.117 10.72 270.384 8.992 270.384C8.13867 270.384 7.232 270.299 6.272 270.128V276.72H1.984V254ZM8.576 266.672C9.77067 266.672 10.6133 266.331 11.104 265.648C11.5947 264.944 11.84 263.771 11.84 262.128C11.84 260.507 11.616 259.323 11.168 258.576C10.72 257.829 9.984 257.456 8.96 257.456C8.21333 257.456 7.44533 257.616 6.656 257.936L6.272 258.096V266.48C7.232 266.608 8 266.672 8.576 266.672ZM26.3022 270.384C23.8062 270.384 22.0036 269.755 20.8942 268.496C19.7849 267.237 19.2302 265.2 19.2302 262.384C19.2302 259.44 19.8062 257.243 20.9582 255.792C22.1316 254.341 23.9449 253.616 26.3982 253.616C28.6596 253.616 30.3663 254.224 31.5183 255.44C32.6916 256.635 33.2782 258.437 33.2782 260.848L32.9583 263.824H23.5502C23.5929 264.571 23.7209 265.147 23.9342 265.552C24.1689 265.936 24.5316 266.213 25.0222 266.384C25.5342 266.533 26.2382 266.608 27.1342 266.608C27.8382 266.608 28.6809 266.587 29.6622 266.544C30.6436 266.501 31.3582 266.459 31.8062 266.416L32.7023 266.32L32.7662 269.488C30.3556 270.085 28.2009 270.384 26.3022 270.384ZM29.0542 260.56C29.0542 259.28 28.8516 258.395 28.4462 257.904C28.0622 257.392 27.3689 257.136 26.3663 257.136C25.3422 257.136 24.6169 257.403 24.1902 257.936C23.7636 258.448 23.5396 259.323 23.5182 260.56H29.0542ZM36.9827 254H41.2387V255.696C43.0734 254.629 44.7801 253.936 46.3587 253.616V257.936C44.7587 258.256 43.2761 258.629 41.9107 259.056L41.2707 259.28V270H36.9827V254ZM55.321 270.384C53.017 270.384 51.3423 269.723 50.297 268.4C49.273 267.056 48.761 264.923 48.761 262C48.761 259.035 49.2943 256.901 50.361 255.6C51.4277 254.277 53.1663 253.616 55.577 253.616C56.1957 253.616 56.8783 253.669 57.625 253.776C58.3717 253.883 59.3743 254.064 60.633 254.32L60.505 257.712C58.6917 257.541 57.433 257.456 56.729 257.456C55.7477 257.456 55.001 257.595 54.489 257.872C53.977 258.128 53.6143 258.576 53.401 259.216C53.209 259.856 53.113 260.773 53.113 261.968C53.113 263.184 53.209 264.112 53.401 264.752C53.6143 265.392 53.977 265.851 54.489 266.128C55.0223 266.405 55.7903 266.544 56.793 266.544L60.505 266.288L60.633 269.712C58.3717 270.16 56.601 270.384 55.321 270.384ZM70.5973 270.384C68.1013 270.384 66.2986 269.755 65.1893 268.496C64.0799 267.237 63.5253 265.2 63.5253 262.384C63.5253 259.44 64.1013 257.243 65.2533 255.792C66.4266 254.341 68.2399 253.616 70.6933 253.616C72.9546 253.616 74.6613 254.224 75.8133 255.44C76.9866 256.635 77.5733 258.437 77.5733 260.848L77.2533 263.824H67.8453C67.8879 264.571 68.0159 265.147 68.2293 265.552C68.4639 265.936 68.8266 266.213 69.3173 266.384C69.8293 266.533 70.5333 266.608 71.4293 266.608C72.1333 266.608 72.9759 266.587 73.9573 266.544C74.9386 266.501 75.6533 266.459 76.1013 266.416L76.9973 266.32L77.0613 269.488C74.6506 270.085 72.4959 270.384 70.5973 270.384ZM73.3493 260.56C73.3493 259.28 73.1466 258.395 72.7413 257.904C72.3573 257.392 71.6639 257.136 70.6613 257.136C69.6373 257.136 68.9119 257.403 68.4853 257.936C68.0586 258.448 67.8346 259.323 67.8133 260.56H73.3493ZM81.2777 254H85.5337V254.864C86.3657 254.373 87.0591 254.043 87.6137 253.872C88.1897 253.701 88.7977 253.616 89.4377 253.616C91.4857 253.616 93.0004 254.299 93.9817 255.664C94.9844 257.008 95.4857 259.163 95.4857 262.128C95.4857 264.176 95.2404 265.797 94.7497 266.992C94.2591 268.187 93.4911 269.051 92.4457 269.584C91.4004 270.117 90.0137 270.384 88.2857 270.384C87.4324 270.384 86.5257 270.299 85.5657 270.128V276.72H81.2777V254ZM87.8697 266.672C89.0644 266.672 89.9071 266.331 90.3977 265.648C90.8884 264.944 91.1337 263.771 91.1337 262.128C91.1337 260.507 90.9097 259.323 90.4617 258.576C90.0137 257.829 89.2777 257.456 88.2537 257.456C87.5071 257.456 86.7391 257.616 85.9497 257.936L85.5657 258.096V266.48C86.5257 266.608 87.2937 266.672 87.8697 266.672ZM104.764 270.384C103.527 270.384 102.567 270.192 101.884 269.808C101.201 269.424 100.711 268.795 100.412 267.92C100.113 267.045 99.964 265.84 99.964 264.304V257.648H98.076V254H99.964V249.552H104.252V254H108.188V257.648H104.252V264.208C104.252 265.04 104.327 265.648 104.476 266.032C104.625 266.395 104.999 266.565 105.596 266.544L108.028 266.48L108.22 269.904C107.367 270.096 106.695 270.224 106.204 270.288C105.735 270.352 105.255 270.384 104.764 270.384ZM111.62 254H115.908V270H111.62V254ZM111.62 247.632H115.908V251.952H111.62V247.632ZM126.882 270.384C124.471 270.384 122.637 269.659 121.378 268.208C120.141 266.736 119.522 264.656 119.522 261.968C119.522 259.301 120.141 257.243 121.378 255.792C122.637 254.341 124.471 253.616 126.882 253.616C129.293 253.616 131.117 254.341 132.354 255.792C133.613 257.243 134.242 259.301 134.242 261.968C134.242 264.656 133.613 266.736 132.354 268.208C131.117 269.659 129.293 270.384 126.882 270.384ZM126.882 266.736C127.906 266.736 128.663 266.363 129.154 265.616C129.645 264.869 129.89 263.653 129.89 261.968C129.89 260.283 129.645 259.077 129.154 258.352C128.663 257.627 127.906 257.264 126.882 257.264C125.858 257.264 125.101 257.627 124.61 258.352C124.119 259.077 123.874 260.283 123.874 261.968C123.874 263.653 124.119 264.869 124.61 265.616C125.101 266.363 125.858 266.736 126.882 266.736ZM138.025 254H142.281V254.896C143.092 254.427 143.807 254.096 144.425 253.904C145.065 253.712 145.748 253.616 146.473 253.616C148.436 253.616 149.833 254.245 150.665 255.504C151.497 256.763 151.913 258.704 151.913 261.328V270H147.625V261.456C147.625 259.984 147.444 258.949 147.081 258.352C146.74 257.755 146.079 257.456 145.097 257.456C144.393 257.456 143.593 257.605 142.697 257.904L142.313 258.032V270H138.025V254ZM156.161 264.688H160.769V270H156.161V264.688Z" fill="white"/>
</svg>
