<svg width="335" height="276" viewBox="0 0 335 276" fill="none" xmlns="http://www.w3.org/2000/svg">
<path d="M141.99 16.3155C65.6984 -14.0605 2.09761 70.7919 2.09761 113.102C-20.2999 296.761 141.99 239.296 235.127 239.296C328.265 239.296 381.328 79.2266 280.398 79.2266C179.467 79.2266 237.354 54.2855 141.99 16.3155Z" fill="#F1E6FF"/>
<path d="M46.279 56.9428C44.7852 51.6258 47.8845 46.1045 53.2015 44.6108L200.949 3.1017C206.266 1.60791 211.787 4.70724 213.281 10.0242L272.008 219.057C273.502 224.374 270.403 229.895 265.086 231.389L117.338 272.898C112.021 274.392 106.5 271.293 105.006 265.976L46.279 56.9428Z" fill="#7000FF"/>
<path d="M81.9844 86.9431L140.205 70.5862" stroke="#E2CCFF" stroke-width="10" stroke-linecap="round"/>
<path d="M201.074 172.506L229.419 164.543" stroke="#E2CCFF" stroke-width="10" stroke-linecap="round"/>
<path d="M90.1621 116.054L206.604 83.3398" stroke="#E2CCFF" stroke-width="10" stroke-linecap="round"/>
<path d="M95.1113 133.673L194.7 105.694" stroke="#E2CCFF" stroke-width="10" stroke-linecap="round"/>
<path d="M100.922 154.357L177.528 132.835" stroke="#E2CCFF" stroke-width="10" stroke-linecap="round"/>
<circle cx="253.041" cy="33.7601" r="7.95724" fill="#F1E6FF"/>
<ellipse cx="295.214" cy="56.4382" rx="15.1188" ry="14.7209" fill="#F1E6FF"/>
</svg>
