<svg width="1920" height="496" viewBox="0 0 1920 496" fill="none" xmlns="http://www.w3.org/2000/svg">
<circle cx="973" cy="142" r="142" fill="#F1E6FF"/>
<circle cx="913.736" cy="191.736" r="22.5" transform="rotate(-30 913.736 191.736)" fill="#D4B3FF"/>
<circle cx="985.132" cy="250.397" r="11" transform="rotate(-30 985.132 250.397)" fill="#D4B3FF"/>
<path d="M391.701 493.61L397.432 463.522H436.76L442.491 493.61H391.701Z" fill="#F1E6FF" stroke="#E2CCFF" stroke-width="4.06593"/>
<path d="M1475.27 493.813L1481 463.725H1520.33L1526.06 493.813H1475.27Z" fill="#F1E6FF" stroke="#E2CCFF" stroke-width="4.06593"/>
<path d="M934.457 493.813L940.188 463.725H979.516L985.247 493.813H934.457Z" fill="white" stroke="#E2CCFF" stroke-width="4.06593"/>
<rect x="-4.96703" y="333.033" width="693.934" height="12.9341" fill="#F1E6FF" stroke="#E2CCFF" stroke-width="4.06593"/>
<rect x="689.033" y="333.033" width="542.934" height="12.9341" stroke="#E2CCFF" stroke-width="4.06593"/>
<rect x="1232.03" y="333.033" width="697.934" height="12.9341" fill="#F1E6FF" stroke="#E2CCFF" stroke-width="4.06593"/>
<rect x="1487.86" y="25.8242" width="25.6154" height="437.495" fill="#F1E6FF" stroke="#E2CCFF" stroke-width="4.06593"/>
<rect x="404.287" y="25.6211" width="25.6154" height="437.495" fill="#F1E6FF" stroke="#E2CCFF" stroke-width="4.06593"/>
<rect x="947.033" y="333.033" width="25.9341" height="129.934" stroke="#E2CCFF" stroke-width="4.06593"/>
<path d="M399.004 16.2692L417.301 12L435.597 16.2692V23.5879H399.004V16.2692Z" fill="#E2CCFF"/>
<path d="M1482.57 16.4726L1500.87 12.2034L1519.17 16.4726V23.7913H1482.57V16.4726Z" fill="#E2CCFF"/>
<path d="M146.394 352.489C-28.9609 352.489 -98.9332 424.749 -112 460.879V345H403.967V460.879C391.174 424.749 321.749 352.489 146.394 352.489Z" fill="#F1E6FF" stroke="#E2CCFF" stroke-width="4.06593"/>
<path d="M1733.35 353.497C1584.49 353.497 1525.09 425.832 1514 462V346H1952V462C1941.14 425.832 1882.21 353.497 1733.35 353.497Z" fill="#F1E6FF" stroke="#E2CCFF" stroke-width="4.06593"/>
<path d="M947.002 461.879L945.1 462.596L949.035 461.879H947.002ZM688.57 353.662H686.537V355.65L688.525 355.695L688.57 353.662ZM947.002 346H949.035V343.967H947.002V346ZM688.57 346V343.967H686.537V346H688.57ZM948.905 461.162C935.259 424.946 864.112 355.546 688.616 351.63L688.525 355.695C863.225 359.593 932.294 428.607 945.1 462.596L948.905 461.162ZM944.969 346V461.879H949.035V346H944.969ZM688.57 348.033H947.002V343.967H688.57V348.033ZM686.537 346V353.662H690.603V346H686.537Z" fill="#E2CCFF"/>
<path fill-rule="evenodd" clip-rule="evenodd" d="M1231.57 353.662C1405.31 357.57 1474.88 426.777 1488 461.879V346H1231.57V353.662Z" fill="#F1E6FF"/>
<path d="M1488 461.879L1486.1 462.591L1490.03 461.879H1488ZM1231.57 353.662H1229.54V355.65L1231.52 355.695L1231.57 353.662ZM1488 346H1490.03V343.967H1488V346ZM1231.57 346V343.967H1229.54V346H1231.57ZM1489.9 461.167C1476.37 424.953 1405.77 355.546 1231.62 351.63L1231.52 355.695C1404.86 359.593 1473.39 428.6 1486.1 462.591L1489.9 461.167ZM1485.97 346V461.879H1490.03V346H1485.97ZM1231.57 348.033H1488V343.967H1231.57V348.033ZM1229.54 346V353.662H1233.6V346H1229.54Z" fill="#E2CCFF"/>
<path fill-rule="evenodd" clip-rule="evenodd" d="M688.43 353.662C513.331 357.569 443.224 426.777 429.998 461.879V346H688.43V353.662Z" fill="#F1E6FF"/>
<path d="M429.998 461.879L431.9 462.596L427.965 461.879H429.998ZM688.43 353.662H690.463V355.65L688.475 355.695L688.43 353.662ZM429.998 346H427.965V343.967H429.998V346ZM688.43 346V343.967H690.463V346H688.43ZM428.095 461.162C441.741 424.946 512.888 355.546 688.384 351.63L688.475 355.695C513.775 359.593 444.706 428.607 431.9 462.596L428.095 461.162ZM432.031 346V461.879H427.965V346H432.031ZM688.43 348.033H429.998V343.967H688.43V348.033ZM690.463 346V353.662H686.397V346H690.463Z" fill="#E2CCFF"/>
<path d="M973 461.879L974.902 462.596L970.967 461.879H973ZM1231.43 353.662H1233.46V355.65L1231.48 355.695L1231.43 353.662ZM973 346H970.967V343.967H973V346ZM1231.43 346V343.967H1233.46V346H1231.43ZM971.097 461.162C984.743 424.946 1055.89 355.546 1231.39 351.63L1231.48 355.695C1056.78 359.593 987.708 428.607 974.902 462.596L971.097 461.162ZM975.033 346V461.879H970.967V346H975.033ZM1231.43 348.033H973V343.967H1231.43V348.033ZM1233.46 346V353.662H1229.4V346H1233.46Z" fill="#E2CCFF"/>
<path d="M240.112 239.384C237.808 239.384 236.038 238.979 234.8 238.168C233.563 237.357 232.71 236.163 232.24 234.584C231.792 232.984 231.568 230.861 231.568 228.216C231.568 225.315 231.814 223.053 232.304 221.432C232.816 219.811 233.659 218.648 234.832 217.944C236.006 217.219 237.648 216.856 239.76 216.856C241.702 216.856 243.867 217.144 246.256 217.72L246.128 221.24C244.016 220.92 242.299 220.76 240.976 220.76C239.632 220.76 238.619 220.973 237.936 221.4C237.254 221.827 236.774 222.531 236.496 223.512C236.24 224.472 236.112 225.837 236.112 227.608V228.792C236.155 230.627 236.283 232.003 236.496 232.92C236.731 233.816 237.179 234.467 237.84 234.872C238.502 235.277 239.515 235.48 240.88 235.48C242.331 235.48 244.08 235.331 246.128 235.032L246.224 238.648C243.899 239.139 241.862 239.384 240.112 239.384ZM258.324 239.384C256.127 239.384 254.367 238.989 253.044 238.2C251.721 237.411 250.761 236.205 250.164 234.584C249.588 232.941 249.3 230.819 249.3 228.216C249.3 225.592 249.588 223.459 250.164 221.816C250.761 220.152 251.721 218.915 253.044 218.104C254.367 217.272 256.127 216.856 258.324 216.856C260.521 216.856 262.281 217.272 263.604 218.104C264.927 218.915 265.876 220.152 266.452 221.816C267.049 223.459 267.348 225.592 267.348 228.216C267.348 230.776 267.06 232.867 266.484 234.488C265.929 236.109 264.991 237.336 263.668 238.168C262.345 238.979 260.564 239.384 258.324 239.384ZM258.324 235.544C259.476 235.544 260.372 235.309 261.012 234.84C261.673 234.349 262.132 233.581 262.388 232.536C262.665 231.469 262.804 230.029 262.804 228.216C262.804 226.403 262.665 224.963 262.388 223.896C262.111 222.808 261.641 222.008 260.98 221.496C260.34 220.963 259.455 220.696 258.324 220.696C257.193 220.696 256.297 220.963 255.636 221.496C254.996 222.008 254.537 222.808 254.26 223.896C253.983 224.963 253.844 226.403 253.844 228.216C253.844 229.901 253.961 231.267 254.196 232.312C254.431 233.357 254.868 234.157 255.508 234.712C256.169 235.267 257.108 235.544 258.324 235.544ZM294.495 217.24V239H290.079V222.168H289.599L285.343 238.04H280.927L276.671 222.168H276.191V239H271.775V217.24H279.295L283.135 233.08L286.975 217.24H294.495ZM299.884 217.24H307.884C313.046 217.24 315.628 219.757 315.628 224.792C315.628 227.352 314.966 229.304 313.644 230.648C312.342 231.992 310.422 232.664 307.884 232.664H304.3V239H299.884V217.24ZM307.852 228.888C310.049 228.888 311.148 227.523 311.148 224.792C311.148 223.469 310.881 222.509 310.348 221.912C309.836 221.315 309.004 221.016 307.852 221.016H304.3V228.888H307.852ZM329.846 235.064H322.23L321.366 239H316.95L321.846 217.24H330.23L335.126 239H330.71L329.846 235.064ZM326.806 220.888H325.27L323.062 231.224H329.014L326.806 220.888ZM356.104 217.24V239H348.84L343.4 221.08H343.08V239H338.664V217.24H346.12L351.368 235.16H351.688V217.24H356.104ZM365.843 230.2L359.123 217.24H364.019L368.019 225.912L372.019 217.24H376.915L370.259 230.2V239H365.843V230.2Z" fill="#7000FF"/>
<path d="M1545.37 206.24H1553.82C1558.94 206.24 1561.5 208.629 1561.5 213.408C1561.5 216.245 1560.43 218.336 1558.3 219.68L1561.4 228H1556.57L1554.04 220.704H1549.78V228H1545.37V206.24ZM1553.88 216.928C1554.88 216.928 1555.65 216.619 1556.18 216C1556.72 215.36 1556.98 214.507 1556.98 213.44C1556.98 212.373 1556.71 211.541 1556.15 210.944C1555.6 210.325 1554.82 210.016 1553.82 210.016H1549.78V216.928H1553.88ZM1565.85 206.24H1570.27V228H1565.85V206.24ZM1583.62 228.384C1581.38 228.384 1579.61 227.989 1578.3 227.2C1577.02 226.411 1576.11 225.195 1575.55 223.552C1575 221.909 1574.72 219.733 1574.72 217.024C1574.72 214.357 1575.01 212.213 1575.58 210.592C1576.16 208.949 1577.08 207.755 1578.34 207.008C1579.62 206.24 1581.32 205.856 1583.46 205.856C1585.44 205.856 1587.58 206.08 1589.89 206.528L1591.04 206.752L1590.91 210.176C1588.44 209.899 1586.35 209.76 1584.64 209.76C1582.95 209.76 1581.73 210.048 1580.96 210.624C1580.19 211.179 1579.71 211.947 1579.52 212.928C1579.35 213.888 1579.26 215.328 1579.26 217.248C1579.26 219.147 1579.39 220.608 1579.65 221.632C1579.9 222.656 1580.36 223.403 1581.02 223.872C1581.71 224.32 1582.71 224.544 1584.03 224.544C1585.29 224.544 1586.18 224.501 1586.69 224.416V220.192H1584.7V216.352H1591.04V227.648C1587.93 228.139 1585.45 228.384 1583.62 228.384ZM1612.78 206.24V228H1608.36V218.976H1600.27V228H1595.85V206.24H1600.27V215.136H1608.36V206.24H1612.78ZM1622.02 210.144H1616.19V206.24H1632.19V210.144H1626.43V228H1622.02V210.144ZM1649.64 228.384C1647.97 228.384 1645.94 228.128 1643.53 227.616L1642.37 227.392L1642.82 223.968C1645.68 224.352 1647.87 224.544 1649.38 224.544C1651.64 224.544 1652.77 223.605 1652.77 221.728C1652.77 220.96 1652.48 220.395 1651.88 220.032C1651.28 219.669 1650.28 219.285 1648.87 218.88C1647.18 218.411 1645.85 217.888 1644.87 217.312C1643.91 216.736 1643.21 216.053 1642.76 215.264C1642.33 214.475 1642.12 213.493 1642.12 212.32C1642.12 210.187 1642.77 208.576 1644.07 207.488C1645.37 206.4 1647.2 205.856 1649.54 205.856C1650.46 205.856 1651.41 205.92 1652.39 206.048C1653.37 206.155 1654.81 206.379 1656.71 206.72L1656.36 210.208C1653.44 209.867 1651.31 209.696 1649.99 209.696C1647.66 209.696 1646.5 210.464 1646.5 212C1646.5 212.533 1646.69 212.971 1647.08 213.312C1647.46 213.653 1647.94 213.941 1648.52 214.176C1649.09 214.389 1650.06 214.709 1651.43 215.136C1652.9 215.605 1654.04 216.096 1654.85 216.608C1655.66 217.12 1656.25 217.76 1656.61 218.528C1656.98 219.275 1657.16 220.245 1657.16 221.44C1657.16 223.68 1656.48 225.397 1655.11 226.592C1653.77 227.787 1651.94 228.384 1649.64 228.384ZM1668.71 219.296L1665.76 219.584V228H1661.35V206.24H1665.76V215.744L1668.74 215.456L1672.29 206.24H1677.32L1672.58 217.12L1677.44 228H1672.36L1668.71 219.296ZM1680.96 206.24H1685.37V228H1680.96V206.24ZM1703.14 224.096V228H1690.75V206.24H1695.17V224.096H1703.14ZM1718.87 224.096V228H1706.49V206.24H1710.9V224.096H1718.87ZM1551.7 265.384C1550.04 265.384 1548 265.128 1545.59 264.616L1544.44 264.392L1544.89 260.968C1547.75 261.352 1549.93 261.544 1551.45 261.544C1553.71 261.544 1554.84 260.605 1554.84 258.728C1554.84 257.96 1554.54 257.395 1553.94 257.032C1553.35 256.669 1552.34 256.285 1550.94 255.88C1549.25 255.411 1547.92 254.888 1546.94 254.312C1545.98 253.736 1545.27 253.053 1544.82 252.264C1544.4 251.475 1544.18 250.493 1544.18 249.32C1544.18 247.187 1544.83 245.576 1546.14 244.488C1547.44 243.4 1549.26 242.856 1551.61 242.856C1552.53 242.856 1553.47 242.92 1554.46 243.048C1555.44 243.155 1556.88 243.379 1558.78 243.72L1558.42 247.208C1555.5 246.867 1553.38 246.696 1552.06 246.696C1549.73 246.696 1548.57 247.464 1548.57 249C1548.57 249.533 1548.76 249.971 1549.14 250.312C1549.53 250.653 1550.01 250.941 1550.58 251.176C1551.16 251.389 1552.13 251.709 1553.5 252.136C1554.97 252.605 1556.11 253.096 1556.92 253.608C1557.73 254.12 1558.32 254.76 1558.68 255.528C1559.04 256.275 1559.22 257.245 1559.22 258.44C1559.22 260.68 1558.54 262.397 1557.18 263.592C1555.83 264.787 1554.01 265.384 1551.7 265.384ZM1567.83 247.08V252.168H1575.57V255.944H1567.83V261.16H1577.49V265H1563.41V243.24H1577.49V247.08H1567.83ZM1585.64 247.144H1579.82V243.24H1595.82V247.144H1590.06V265H1585.64V247.144Z" fill="#7000FF"/>
</svg>
