<svg width="45" height="28" viewBox="0 0 45 28" fill="none" xmlns="http://www.w3.org/2000/svg">
<path d="M14.4761 0.666667H11.1672C10.5593 0.666667 10.0147 1.04655 9.77017 1.61158H15.873C15.6286 1.04657 15.0841 0.666667 14.4761 0.666667Z" fill="white" stroke="white" stroke-width="1.33333"/>
<path d="M35.2658 15.8292V15.1626V14.4117H36.8473V15.1626V15.8292H37.514H40.0163C41.5904 15.8292 42.9932 16.674 43.7728 18.1177L35.2658 15.8292ZM35.2658 15.8292H34.5992M35.2658 15.8292H34.5992M34.5992 15.8292H4.98355C3.40964 15.8292 2.00703 16.6739 1.22711 18.1177C0.958889 18.6148 0.788021 19.141 0.712147 19.6745H41.9802H44.2877M34.5992 15.8292L44.2877 19.6745M44.2877 19.6745C44.2119 19.141 44.041 18.615 43.7728 18.1179L44.2877 19.6745Z" fill="white" stroke="white" stroke-width="1.33333"/>
<path d="M27.6957 22.0562H23.8405C23.8702 23.1668 24.743 24.0196 25.7681 24.0196C26.7933 24.0196 27.6661 23.1669 27.6957 22.0562Z" fill="white" stroke="white" stroke-width="1.33333"/>
<path d="M19.1136 24.0197C20.1388 24.0197 21.0119 23.1669 21.0415 22.0563H17.186C17.2156 23.167 18.0884 24.0197 19.1136 24.0197Z" fill="white" stroke="white" stroke-width="1.33333"/>
<path d="M12.4615 24.0196C13.4867 24.0196 14.3595 23.1669 14.3892 22.0562H10.5339C10.5636 23.1669 11.4363 24.0196 12.4615 24.0196Z" fill="white" stroke="white" stroke-width="1.33333"/>
<path d="M4.62614 22.0559H6.99419C6.76471 22.5068 6.31089 22.8029 5.81025 22.8029L4.62614 22.0559ZM4.62614 22.0559C4.85559 22.5069 5.30944 22.8029 5.81016 22.8029L4.62614 22.0559Z" fill="white" stroke="white" stroke-width="1.33333"/>
<path d="M1.31688 22.0558C1.40472 22.6326 1.60374 23.1981 1.91602 23.7242L1.34271 24.0645L1.91603 23.7243C3.14288 25.7917 5.39722 27.0766 7.79347 27.0766H36.9042C39.3005 27.0766 41.5548 25.7914 42.7817 23.7242L42.7817 23.7242C43.094 23.1982 43.293 22.6328 43.3809 22.0558H42.5981C42.5188 22.4753 42.3662 22.8846 42.1397 23.2661L1.31688 22.0558ZM1.31688 22.0558H2.1004C2.17967 22.4749 2.33191 22.884 2.55823 23.2655L2.74551 23.5812L2.75984 23.5816C3.88335 25.2292 5.77811 26.2348 7.79379 26.2348L36.9046 26.2351H36.9046C39.0461 26.2351 41.0507 25.1002 42.1396 23.2661L1.31688 22.0558Z" fill="white" stroke="white" stroke-width="1.33333"/>
<path d="M37.8879 22.056C38.1173 22.507 38.5712 22.8029 39.0719 22.8029L39.0719 22.8029C39.5724 22.8029 40.0262 22.5069 40.2558 22.0562L37.8879 22.056Z" fill="white" stroke="white" stroke-width="1.33333"/>
<path d="M32.4186 24.0196C33.4437 24.0196 34.3165 23.1669 34.3462 22.0562H30.491C30.5206 23.1669 31.3934 24.0196 32.4186 24.0196Z" fill="white" stroke="white" stroke-width="1.33333"/>
<path d="M26.7627 6.40956L21.5904 4.1458V4.82023V5.4869H20.9238H18.6739H18.0072V4.82023V4.03853L4.64905 4.03919C4.6138 4.03919 4.56425 4.05383 4.51265 4.11236C4.4599 4.17219 4.41572 4.26948 4.41572 4.39304V5.86312H5.80748H6.47415V6.52979V8.73799V9.40466H5.80748H4.41572V10.1944C4.41572 10.3233 4.46503 10.4277 4.52362 10.487L4.52383 10.4872L7.37429 13.3749C7.37432 13.375 7.37436 13.375 7.3744 13.3751C7.4226 13.4238 7.46854 13.4361 7.49958 13.4361H22.9112C22.9372 13.4361 22.9722 13.4276 23.0115 13.3969C23.0115 13.3969 23.0115 13.3969 23.0115 13.3969L26.7791 10.4506C26.7821 10.4456 26.786 10.4389 26.7905 10.4303C26.8129 10.3879 26.8391 10.3238 26.864 10.2413C26.9156 10.07 26.9389 9.89514 26.9389 9.80352V9.79069V9.12402H27.6056H28.1566V8.65797H28.8233H44.3314V8.43898H28.8236H28.1569V7.84324H27.6059H26.9392V7.17657V6.75109C26.9392 6.55533 26.8339 6.44069 26.7628 6.40961L26.7627 6.40956Z" fill="white" stroke="white" stroke-width="1.33333"/>
</svg>
