<svg width="157" height="166" viewBox="0 0 157 166" fill="none" xmlns="http://www.w3.org/2000/svg">
<path d="M0 10C0 4.47716 4.47715 0 10 0L111.436 0C116.959 0 121.436 4.47715 121.436 10L121.436 156C121.436 161.523 116.959 166 111.436 166H9.99999C4.47715 166 0 161.523 0 156L0 10Z" fill="#F1E6FF"/>
<path d="M18.3828 33.9799H60.7184" stroke="#D4B3FF" stroke-width="10" stroke-linecap="round"/>
<path d="M82.4434 114.195L103.054 114.195" stroke="#D4B3FF" stroke-width="10" stroke-linecap="round"/>
<path d="M18.3828 55.1476L103.054 55.1476" stroke="#D4B3FF" stroke-width="10" stroke-linecap="round"/>
<path d="M18.3828 67.9597H90.7989" stroke="#D4B3FF" stroke-width="10" stroke-linecap="round"/>
<path d="M18.3828 83H74.0875" stroke="#D4B3FF" stroke-width="10" stroke-linecap="round"/>
<path d="M72.2196 141.949L81.3253 139.322L136.151 83.8399C136.583 83.3967 136.824 82.8013 136.821 82.1821C136.818 81.5629 136.572 80.9697 136.135 80.5306L132.852 77.211C132.64 76.993 132.386 76.8194 132.106 76.7004C131.826 76.5814 131.525 76.5194 131.221 76.518C130.917 76.5165 130.616 76.5757 130.334 76.692C130.053 76.8083 129.798 76.9795 129.584 77.1955L74.9032 132.533L72.2144 141.944L72.2196 141.949ZM139.352 70.6338L142.635 73.9586C147.165 78.545 147.206 85.9444 142.718 90.4843L86.222 147.663L66.7593 153.268C65.571 153.6 64.2994 153.448 63.2233 152.844C62.1473 152.24 61.3548 151.234 61.0197 150.046C60.7704 149.192 60.7668 148.286 61.0094 147.43L66.6714 127.574L123.017 70.5459C124.089 69.467 125.364 68.6123 126.769 68.0316C128.174 67.4509 129.681 67.1558 131.202 67.1635C132.722 67.1712 134.226 67.4815 135.625 68.0765C137.024 68.6714 138.291 69.5442 139.352 70.6338Z" fill="#D4B3FF"/>
<path d="M73.3984 140.416L132.445 80.2548" stroke="#D4B3FF" stroke-width="22" stroke-linecap="round"/>
</svg>
