<svg width="28" height="29" viewBox="0 0 28 29" fill="none" xmlns="http://www.w3.org/2000/svg">
<rect y="0.5" width="28" height="28" rx="14" fill="#5D5D5D"/>
<path d="M12.5918 15.1969C12.8941 15.6011 13.2798 15.9355 13.7228 16.1775C14.1657 16.4195 14.6555 16.5634 15.1589 16.5995C15.6624 16.6355 16.1677 16.5629 16.6406 16.3865C17.1135 16.2101 17.5429 15.934 17.8997 15.5771L20.0117 13.4651C20.6528 12.8013 21.0076 11.9122 20.9996 10.9893C20.9916 10.0664 20.6214 9.18355 19.9688 8.53094C19.3162 7.87833 18.4333 7.50815 17.5105 7.50013C16.5876 7.49211 15.6984 7.8469 15.0346 8.48807L13.8237 9.69186" stroke="white" stroke-width="2" stroke-linecap="round" stroke-linejoin="round"/>
<path d="M15.4079 13.789C15.1056 13.3848 14.7199 13.0504 14.277 12.8084C13.834 12.5664 13.3442 12.4225 12.8408 12.3864C12.3373 12.3504 11.832 12.423 11.3591 12.5994C10.8862 12.7758 10.4568 13.0519 10.1 13.4088L7.98807 15.5208C7.3469 16.1846 6.99211 17.0737 7.00013 17.9966C7.00815 18.9195 7.37833 19.8023 8.03094 20.455C8.68355 21.1076 9.56638 21.4777 10.4893 21.4858C11.4122 21.4938 12.3013 21.139 12.9651 20.4978L14.1689 19.294" stroke="white" stroke-width="2" stroke-linecap="round" stroke-linejoin="round"/>
</svg>
