<svg width="40" height="40" viewBox="0 0 40 40" fill="none" xmlns="http://www.w3.org/2000/svg">
<path d="M12 13C13.1046 13 14 12.1046 14 11C14 9.89543 13.1046 9 12 9C10.8954 9 10 9.89543 10 11C10 12.1046 10.8954 13 12 13Z" fill="white"/>
<path d="M14 16H10V28H14V16Z" fill="white"/>
<path d="M24 15C25.5913 15 27.1174 15.6321 28.2426 16.7574C29.3679 17.8826 30 19.4087 30 21V28H26V21C26 20.4696 25.7893 19.9609 25.4142 19.5858C25.0391 19.2107 24.5304 19 24 19C23.4696 19 22.9609 19.2107 22.5858 19.5858C22.2107 19.9609 22 20.4696 22 21V28H18V21C18 19.4087 18.6321 17.8826 19.7574 16.7574C20.8826 15.6321 22.4087 15 24 15V15Z" fill="white"/>
<circle opacity="0.2" cx="20" cy="20" r="19.5" stroke="white"/>
</svg>
