<svg width="28" height="29" viewBox="0 0 28 29" fill="none" xmlns="http://www.w3.org/2000/svg">
<circle cx="14" cy="14.5" r="14" fill="#5D5D5D"/>
<path d="M17.1002 11.4C18.1345 11.4 19.1265 11.8109 19.8579 12.5423C20.5893 13.2737 21.0002 14.2657 21.0002 15.3V19.85H18.4002V15.3C18.4002 14.9552 18.2632 14.6246 18.0194 14.3808C17.7756 14.137 17.445 14 17.1002 14C16.7554 14 16.4248 14.137 16.181 14.3808C15.9372 14.6246 15.8002 14.9552 15.8002 15.3V19.85H13.2002V15.3C13.2002 14.2657 13.6111 13.2737 14.3425 12.5423C15.0739 11.8109 16.0659 11.4 17.1002 11.4V11.4Z" fill="white"/>
<path d="M10.6 12.05H8V19.85H10.6V12.05Z" fill="white"/>
<path d="M9.3 10.1C10.018 10.1 10.6 9.51797 10.6 8.8C10.6 8.08203 10.018 7.5 9.3 7.5C8.58203 7.5 8 8.08203 8 8.8C8 9.51797 8.58203 10.1 9.3 10.1Z" fill="white"/>
</svg>
