<svg width="390" height="117" viewBox="0 0 390 117" fill="none" xmlns="http://www.w3.org/2000/svg">
<circle cx="196.5" cy="36.5" r="36.5" fill="#F1E6FF"/>
<circle cx="181.196" cy="49.0384" r="5.81274" transform="rotate(-30 181.196 49.0384)" fill="#D4B3FF"/>
<circle cx="199.638" cy="64.1929" r="2.84179" transform="rotate(-30 199.638 64.1929)" fill="#D4B3FF"/>
<path d="M77.6041 116.497L78.704 110.503H86.296L87.3959 116.497H77.6041Z" fill="#F1E6FF" stroke="#E2CCFF" stroke-width="1.00663"/>
<path d="M300.614 116.497L301.814 110.503H310.186L311.386 116.497H300.614Z" fill="#F1E6FF" stroke="#E2CCFF" stroke-width="1.00663"/>
<path d="M189.604 116.497L190.704 110.503H198.296L199.396 116.497H189.604Z" fill="white" stroke="#E2CCFF" stroke-width="1.00663"/>
<rect x="-4.49668" y="83.5033" width="142.993" height="2.99337" fill="#F1E6FF" stroke="#E2CCFF" stroke-width="1.00663"/>
<rect x="138.503" y="83.5033" width="111.993" height="2.99337" stroke="#E2CCFF" stroke-width="1.00663"/>
<rect x="250.503" y="83.5033" width="143.993" height="2.99337" fill="#F1E6FF" stroke="#E2CCFF" stroke-width="1.00663"/>
<rect x="303.503" y="20.5033" width="4.99337" height="89.9934" fill="#F1E6FF" stroke="#E2CCFF" stroke-width="1.00663"/>
<rect x="79.5033" y="20.5033" width="5.99337" height="89.9934" fill="#F1E6FF" stroke="#E2CCFF" stroke-width="1.00663"/>
<rect x="191.503" y="83.5033" width="5.99337" height="26.9934" stroke="#E2CCFF" stroke-width="1.00663"/>
<path d="M79 18.1053L82.5 17L86 18.1053V20H79V18.1053Z" fill="#E2CCFF"/>
<path d="M302 18.1053L306 17L310 18.1053V20H302V18.1053Z" fill="#E2CCFF"/>
<path d="M37.0668 88.5512C8.51885 88.5512 -2.87271 103.517 -5 111V87H79V111C76.9173 103.517 65.6148 88.5512 37.0668 88.5512Z" fill="#F1E6FF" stroke="#E2CCFF" stroke-width="0.97664"/>
<path d="M352.068 88.4865C322.841 88.4865 311.178 102.829 309 110V87H395V110C392.868 102.829 381.296 88.4865 352.068 88.4865Z" fill="#F1E6FF" stroke="#E2CCFF" stroke-width="1.00663"/>
<path d="M191.825 110.136L191.354 110.314L192.329 110.136H191.825ZM138.518 87.8146H138.014V88.3068L138.506 88.3178L138.518 87.8146ZM191.825 86.2341H192.329V85.7308H191.825V86.2341ZM138.518 86.2341V85.7308H138.014V86.2341H138.518ZM192.296 109.959C189.465 102.443 174.746 88.1192 138.529 87.3114L138.506 88.3178C174.526 89.1211 188.73 103.349 191.354 110.314L192.296 109.959ZM191.322 86.2341V110.136H192.329V86.2341H191.322ZM138.518 86.7374H191.825V85.7308H138.518V86.7374ZM138.014 86.2341V87.8146H139.021V86.2341H138.014Z" fill="#E2CCFF"/>
<path fill-rule="evenodd" clip-rule="evenodd" d="M250.523 87.8146C286.36 88.6208 300.709 102.896 303.416 110.136V86.2341H250.523V87.8146Z" fill="#F1E6FF"/>
<path d="M303.416 110.136L302.945 110.313L303.919 110.136H303.416ZM250.523 87.8146H250.02V88.3068L250.512 88.3178L250.523 87.8146ZM303.416 86.2341H303.919V85.7308H303.416V86.2341ZM250.523 86.2341V85.7308H250.02V86.2341H250.523ZM303.888 109.96C301.078 102.444 286.473 88.1199 250.535 87.3114L250.512 88.3178C286.248 89.1217 300.341 103.347 302.945 110.313L303.888 109.96ZM302.913 86.2341V110.136H303.919V86.2341H302.913ZM250.523 86.7374H303.416V85.7308H250.523V86.7374ZM250.02 86.2341V87.8146H251.027V86.2341H250.02Z" fill="#E2CCFF"/>
<path fill-rule="evenodd" clip-rule="evenodd" d="M138.49 87.8146C102.372 88.6202 87.9104 102.896 85.1823 110.136V86.2341H138.49V87.8146Z" fill="#F1E6FF"/>
<path d="M85.1823 110.136L85.6533 110.314L84.679 110.136H85.1823ZM138.49 87.8146H138.994V88.3068L138.501 88.3178L138.49 87.8146ZM85.1823 86.2341H84.679V85.7308H85.1823V86.2341ZM138.49 86.2341V85.7308H138.994V86.2341H138.49ZM84.7113 109.959C87.5433 102.443 102.262 88.1192 138.479 87.3114L138.501 88.3178C102.482 89.1211 88.2776 103.349 85.6533 110.314L84.7113 109.959ZM85.6856 86.2341V110.136H84.679V86.2341H85.6856ZM138.49 86.7374H85.1823V85.7308H138.49V86.7374ZM138.994 86.2341V87.8146H137.987V86.2341H138.994Z" fill="#E2CCFF"/>
<path d="M197.186 110.136L197.657 110.314L196.683 110.136H197.186ZM250.494 87.8146H250.997V88.3068L250.505 88.3178L250.494 87.8146ZM197.186 86.2341H196.683V85.7308H197.186V86.2341ZM250.494 86.2341V85.7308H250.997V86.2341H250.494ZM196.715 109.959C199.547 102.443 214.266 88.1192 250.483 87.3114L250.505 88.3178C214.486 89.1211 200.281 103.349 197.657 110.314L196.715 109.959ZM197.69 86.2341V110.136H196.683V86.2341H197.69ZM250.494 86.7374H197.186V85.7308H250.494V86.7374ZM250.997 86.2341V87.8146H249.991V86.2341H250.997Z" fill="#E2CCFF"/>
<path d="M16.9487 63.2227H18.4135C18.3666 63.7812 18.2104 64.2793 17.9448 64.7168C17.6791 65.1504 17.3061 65.4922 16.8256 65.7422C16.3452 65.9922 15.7612 66.1172 15.0737 66.1172C14.5463 66.1172 14.0717 66.0234 13.6498 65.8359C13.228 65.6445 12.8666 65.375 12.5659 65.0273C12.2651 64.6758 12.0346 64.252 11.8745 63.7559C11.7182 63.2598 11.6401 62.7051 11.6401 62.0918V61.3828C11.6401 60.7695 11.7202 60.2148 11.8803 59.7188C12.0444 59.2227 12.2787 58.7988 12.5834 58.4473C12.8881 58.0918 13.2534 57.8203 13.6791 57.6328C14.1088 57.4453 14.5912 57.3516 15.1264 57.3516C15.8061 57.3516 16.3803 57.4766 16.8491 57.7266C17.3178 57.9766 17.6811 58.3223 17.9389 58.7637C18.2006 59.2051 18.3608 59.7109 18.4194 60.2812H16.9545C16.9155 59.9141 16.8295 59.5996 16.6967 59.3379C16.5678 59.0762 16.3764 58.877 16.1225 58.7402C15.8686 58.5996 15.5366 58.5293 15.1264 58.5293C14.7905 58.5293 14.4975 58.5918 14.2475 58.7168C13.9975 58.8418 13.7885 59.0254 13.6205 59.2676C13.4526 59.5098 13.3256 59.8086 13.2397 60.1641C13.1577 60.5156 13.1166 60.918 13.1166 61.3711V62.0918C13.1166 62.5215 13.1537 62.9121 13.228 63.2637C13.3061 63.6113 13.4233 63.9102 13.5795 64.1602C13.7397 64.4102 13.9428 64.6035 14.1889 64.7402C14.435 64.877 14.7299 64.9453 15.0737 64.9453C15.4916 64.9453 15.8295 64.8789 16.0873 64.7461C16.3491 64.6133 16.5463 64.4199 16.6791 64.166C16.8159 63.9082 16.9057 63.5938 16.9487 63.2227ZM27.0322 61.5V61.9688C27.0322 62.6133 26.9482 63.1914 26.7802 63.7031C26.6123 64.2148 26.372 64.6504 26.0595 65.0098C25.7509 65.3691 25.3798 65.6445 24.9462 65.8359C24.5127 66.0234 24.0322 66.1172 23.5048 66.1172C22.9814 66.1172 22.5029 66.0234 22.0693 65.8359C21.6396 65.6445 21.2666 65.3691 20.9502 65.0098C20.6337 64.6504 20.3877 64.2148 20.2119 63.7031C20.04 63.1914 19.9541 62.6133 19.9541 61.9688V61.5C19.9541 60.8555 20.04 60.2793 20.2119 59.7715C20.3837 59.2598 20.6259 58.8242 20.9384 58.4648C21.2548 58.1016 21.6279 57.8262 22.0576 57.6387C22.4912 57.4473 22.9697 57.3516 23.4931 57.3516C24.0205 57.3516 24.5009 57.4473 24.9345 57.6387C25.3681 57.8262 25.7412 58.1016 26.0537 58.4648C26.3662 58.8242 26.6064 59.2598 26.7744 59.7715C26.9462 60.2793 27.0322 60.8555 27.0322 61.5ZM25.5615 61.9688V61.4883C25.5615 61.0117 25.5146 60.5918 25.4209 60.2285C25.331 59.8613 25.1962 59.5547 25.0166 59.3086C24.8408 59.0586 24.624 58.8711 24.3662 58.7461C24.1084 58.6172 23.8173 58.5527 23.4931 58.5527C23.1689 58.5527 22.8798 58.6172 22.6259 58.7461C22.372 58.8711 22.1552 59.0586 21.9755 59.3086C21.7998 59.5547 21.665 59.8613 21.5712 60.2285C21.4775 60.5918 21.4306 61.0117 21.4306 61.4883V61.9688C21.4306 62.4453 21.4775 62.8672 21.5712 63.2344C21.665 63.6016 21.8017 63.9121 21.9814 64.166C22.165 64.416 22.3837 64.6055 22.6377 64.7344C22.8916 64.8594 23.1806 64.9219 23.5048 64.9219C23.833 64.9219 24.124 64.8594 24.3779 64.7344C24.6318 64.6055 24.8466 64.416 25.0224 64.166C25.1982 63.9121 25.331 63.6016 25.4209 63.2344C25.5146 62.8672 25.5615 62.4453 25.5615 61.9688ZM29.5805 57.4688H30.893L33.3598 64.0488L35.8208 57.4688H37.1333L33.8755 66H32.8325L29.5805 57.4688ZM28.9829 57.4688H30.2309L30.4477 63.1641V66H28.9829V57.4688ZM36.4829 57.4688H37.7368V66H36.2661V63.1641L36.4829 57.4688ZM43.2031 62.8184H40.9824V61.6523H43.2031C43.5898 61.6523 43.9023 61.5898 44.1406 61.4648C44.3789 61.3398 44.5527 61.168 44.6621 60.9492C44.7754 60.7266 44.832 60.4727 44.832 60.1875C44.832 59.918 44.7754 59.666 44.6621 59.4316C44.5527 59.1934 44.3789 59.002 44.1406 58.8574C43.9023 58.7129 43.5898 58.6406 43.2031 58.6406H41.4336V66H39.9629V57.4688H43.2031C43.8633 57.4688 44.4238 57.5859 44.8848 57.8203C45.3496 58.0508 45.7031 58.3711 45.9453 58.7812C46.1875 59.1875 46.3086 59.6523 46.3086 60.1758C46.3086 60.7266 46.1875 61.1992 45.9453 61.5938C45.7031 61.9883 45.3496 62.291 44.8848 62.502C44.4238 62.7129 43.8633 62.8184 43.2031 62.8184ZM50.5386 58.6055L47.9898 66H46.4487L49.6597 57.4688H50.6441L50.5386 58.6055ZM52.6714 66L50.1167 58.6055L50.0054 57.4688H50.9956L54.2183 66H52.6714ZM52.5484 62.8359V64.002H47.9077V62.8359H52.5484ZM62.4209 57.4688V66H60.9502L57.1241 59.8887V66H55.6534V57.4688H57.1241L60.962 63.5918V57.4688H62.4209ZM65.3033 57.4688L67.2838 61.541L69.2642 57.4688H70.8931L68.022 62.8594V66H66.5396V62.8594L63.6685 57.4688H65.3033Z" fill="#7000FF"/>
<path d="M317.867 43.4688H320.885C321.533 43.4688 322.086 43.5664 322.543 43.7617C323 43.957 323.35 44.2461 323.592 44.6289C323.838 45.0078 323.961 45.4766 323.961 46.0352C323.961 46.4609 323.883 46.8359 323.727 47.1602C323.57 47.4844 323.35 47.7578 323.064 47.9805C322.779 48.1992 322.439 48.3691 322.045 48.4902L321.6 48.707H318.887L318.875 47.541H320.908C321.26 47.541 321.553 47.4785 321.787 47.3535C322.021 47.2285 322.197 47.0586 322.314 46.8438C322.436 46.625 322.496 46.3789 322.496 46.1055C322.496 45.8086 322.438 45.5508 322.32 45.332C322.207 45.1094 322.031 44.9395 321.793 44.8223C321.555 44.7012 321.252 44.6406 320.885 44.6406H319.338V52H317.867V43.4688ZM322.736 52L320.732 48.168L322.273 48.1621L324.307 51.9238V52H322.736ZM327.476 43.4688V52H326.005V43.4688H327.476ZM336.335 47.6406V50.8984C336.214 51.0586 336.024 51.2344 335.767 51.4258C335.513 51.6133 335.175 51.7754 334.753 51.9121C334.331 52.0488 333.806 52.1172 333.177 52.1172C332.642 52.1172 332.151 52.0273 331.706 51.8477C331.261 51.6641 330.876 51.3965 330.552 51.0449C330.231 50.6934 329.983 50.2656 329.808 49.7617C329.632 49.2539 329.544 48.6758 329.544 48.0273V47.4355C329.544 46.791 329.624 46.2168 329.784 45.7129C329.948 45.2051 330.183 44.7754 330.487 44.4238C330.792 44.0723 331.159 43.8066 331.589 43.627C332.023 43.4434 332.513 43.3516 333.06 43.3516C333.759 43.3516 334.337 43.4688 334.794 43.7031C335.255 43.9336 335.61 44.2539 335.86 44.6641C336.11 45.0742 336.269 45.543 336.335 46.0703H334.894C334.847 45.7734 334.755 45.5078 334.618 45.2734C334.485 45.0391 334.294 44.8555 334.044 44.7227C333.798 44.5859 333.478 44.5176 333.083 44.5176C332.743 44.5176 332.444 44.582 332.187 44.7109C331.929 44.8398 331.714 45.0293 331.542 45.2793C331.374 45.5293 331.247 45.834 331.161 46.1934C331.075 46.5527 331.032 46.9629 331.032 47.4238V48.0273C331.032 48.4961 331.081 48.9121 331.179 49.2754C331.28 49.6387 331.425 49.9453 331.612 50.1953C331.804 50.4453 332.036 50.6348 332.31 50.7637C332.583 50.8887 332.892 50.9512 333.235 50.9512C333.571 50.9512 333.847 50.9238 334.062 50.8691C334.276 50.8105 334.446 50.7422 334.571 50.6641C334.7 50.582 334.8 50.5039 334.87 50.4297V48.7363H333.095V47.6406H336.335ZM344.081 47.0312V48.1973H339.551V47.0312H344.081ZM339.915 43.4688V52H338.444V43.4688H339.915ZM345.211 43.4688V52H343.747V43.4688H345.211ZM350.777 43.4688V52H349.318V43.4688H350.777ZM353.455 43.4688V44.6406H346.664V43.4688H353.455ZM322.355 63.8027C322.355 63.627 322.328 63.4707 322.273 63.334C322.223 63.1973 322.131 63.0723 321.998 62.959C321.865 62.8457 321.678 62.7363 321.436 62.6309C321.197 62.5215 320.893 62.4102 320.521 62.2969C320.115 62.1719 319.74 62.0332 319.396 61.8809C319.057 61.7246 318.76 61.5449 318.506 61.3418C318.252 61.1348 318.055 60.8984 317.914 60.6328C317.773 60.3633 317.703 60.0527 317.703 59.7012C317.703 59.3535 317.775 59.0371 317.92 58.752C318.068 58.4668 318.277 58.2207 318.547 58.0137C318.82 57.8027 319.143 57.6406 319.514 57.5273C319.885 57.4102 320.295 57.3516 320.744 57.3516C321.377 57.3516 321.922 57.4688 322.379 57.7031C322.84 57.9375 323.193 58.252 323.439 58.6465C323.689 59.041 323.814 59.4766 323.814 59.9531H322.355C322.355 59.6719 322.295 59.4238 322.174 59.209C322.057 58.9902 321.877 58.8184 321.635 58.6934C321.396 58.5684 321.094 58.5059 320.727 58.5059C320.379 58.5059 320.09 58.5586 319.859 58.6641C319.629 58.7695 319.457 58.9121 319.344 59.0918C319.23 59.2715 319.174 59.4746 319.174 59.7012C319.174 59.8613 319.211 60.0078 319.285 60.1406C319.359 60.2695 319.473 60.3906 319.625 60.5039C319.777 60.6133 319.969 60.7168 320.199 60.8145C320.43 60.9121 320.701 61.0059 321.014 61.0957C321.486 61.2363 321.898 61.3926 322.25 61.5645C322.602 61.7324 322.895 61.9238 323.129 62.1387C323.363 62.3535 323.539 62.5977 323.656 62.8711C323.773 63.1406 323.832 63.4473 323.832 63.791C323.832 64.1504 323.76 64.4746 323.615 64.7637C323.471 65.0488 323.264 65.293 322.994 65.4961C322.729 65.6953 322.408 65.8496 322.033 65.959C321.662 66.0645 321.248 66.1172 320.791 66.1172C320.381 66.1172 319.977 66.0625 319.578 65.9531C319.184 65.8438 318.824 65.6777 318.5 65.4551C318.176 65.2285 317.918 64.9473 317.727 64.6113C317.535 64.2715 317.439 63.875 317.439 63.4219H318.91C318.91 63.6992 318.957 63.9355 319.051 64.1309C319.148 64.3262 319.283 64.4863 319.455 64.6113C319.627 64.7324 319.826 64.8223 320.053 64.8809C320.283 64.9395 320.529 64.9688 320.791 64.9688C321.135 64.9688 321.422 64.9199 321.652 64.8223C321.887 64.7246 322.062 64.5879 322.18 64.4121C322.297 64.2363 322.355 64.0332 322.355 63.8027ZM327.084 57.4688V66H325.613V57.4688H327.084ZM332.21 57.4688L328.753 61.5762L326.785 63.6621L326.527 62.2031L327.933 60.4688L330.418 57.4688H332.21ZM330.628 66L327.822 61.957L328.835 60.9551L332.375 66H330.628ZM335.245 57.4688V66H333.774V57.4688H335.245ZM342.897 64.834V66H338.614V64.834H342.897ZM339.024 57.4688V66H337.553V57.4688H339.024ZM349.858 64.834V66H345.574V64.834H349.858ZM345.984 57.4688V66H344.514V57.4688H345.984ZM359.431 63.8027C359.431 63.627 359.403 63.4707 359.349 63.334C359.298 63.1973 359.206 63.0723 359.073 62.959C358.941 62.8457 358.753 62.7363 358.511 62.6309C358.273 62.5215 357.968 62.4102 357.597 62.2969C357.191 62.1719 356.816 62.0332 356.472 61.8809C356.132 61.7246 355.835 61.5449 355.581 61.3418C355.327 61.1348 355.13 60.8984 354.989 60.6328C354.849 60.3633 354.778 60.0527 354.778 59.7012C354.778 59.3535 354.851 59.0371 354.995 58.752C355.144 58.4668 355.353 58.2207 355.622 58.0137C355.896 57.8027 356.218 57.6406 356.589 57.5273C356.96 57.4102 357.37 57.3516 357.819 57.3516C358.452 57.3516 358.997 57.4688 359.454 57.7031C359.915 57.9375 360.269 58.252 360.515 58.6465C360.765 59.041 360.89 59.4766 360.89 59.9531H359.431C359.431 59.6719 359.37 59.4238 359.249 59.209C359.132 58.9902 358.952 58.8184 358.71 58.6934C358.472 58.5684 358.169 58.5059 357.802 58.5059C357.454 58.5059 357.165 58.5586 356.935 58.6641C356.704 58.7695 356.532 58.9121 356.419 59.0918C356.306 59.2715 356.249 59.4746 356.249 59.7012C356.249 59.8613 356.286 60.0078 356.36 60.1406C356.435 60.2695 356.548 60.3906 356.7 60.5039C356.853 60.6133 357.044 60.7168 357.275 60.8145C357.505 60.9121 357.776 61.0059 358.089 61.0957C358.562 61.2363 358.974 61.3926 359.325 61.5645C359.677 61.7324 359.97 61.9238 360.204 62.1387C360.439 62.3535 360.614 62.5977 360.732 62.8711C360.849 63.1406 360.907 63.4473 360.907 63.791C360.907 64.1504 360.835 64.4746 360.691 64.7637C360.546 65.0488 360.339 65.293 360.069 65.4961C359.804 65.6953 359.484 65.8496 359.109 65.959C358.737 66.0645 358.323 66.1172 357.866 66.1172C357.456 66.1172 357.052 66.0625 356.653 65.9531C356.259 65.8438 355.9 65.6777 355.575 65.4551C355.251 65.2285 354.993 64.9473 354.802 64.6113C354.61 64.2715 354.515 63.875 354.515 63.4219H355.985C355.985 63.6992 356.032 63.9355 356.126 64.1309C356.224 64.3262 356.359 64.4863 356.53 64.6113C356.702 64.7324 356.901 64.8223 357.128 64.8809C357.359 64.9395 357.605 64.9688 357.866 64.9688C358.21 64.9688 358.497 64.9199 358.728 64.8223C358.962 64.7246 359.138 64.5879 359.255 64.4121C359.372 64.2363 359.431 64.0332 359.431 63.8027ZM368.272 64.834V66H363.743V64.834H368.272ZM364.159 57.4688V66H362.688V57.4688H364.159ZM367.68 61.0312V62.1797H363.743V61.0312H367.68ZM368.243 57.4688V58.6406H363.743V57.4688H368.243ZM373.58 57.4688V66H372.121V57.4688H373.58ZM376.258 57.4688V58.6406H369.467V57.4688H376.258Z" fill="#7000FF"/>
</svg>
