<svg width="249" height="249" viewBox="0 0 249 249" fill="none" xmlns="http://www.w3.org/2000/svg">
<circle cx="124.5" cy="124.5" r="124.5" fill="#F1E6FF"/>
<path d="M95.8442 147.513L93.8118 164.318C93.5404 166.486 94.8961 168.519 97.0646 169.062C105.467 170.824 114.276 171.772 123.627 171.772C132.843 171.772 141.787 170.823 150.055 169.062C152.223 168.52 153.714 166.487 153.308 164.318L151.275 147.377C150.462 140.601 146.396 134.909 140.704 131.792C135.96 135.587 129.862 137.756 123.492 137.756C116.987 137.756 111.024 135.452 106.28 131.792C100.723 135.045 96.6567 140.736 95.8438 147.513H95.8442Z" fill="#7000FF"/>
<path d="M123.625 130.03C134.061 130.03 142.463 121.628 142.463 111.192C142.463 100.757 134.061 92.3545 123.625 92.3545C113.189 92.3545 104.787 100.757 104.787 111.192C104.787 121.628 113.189 130.03 123.625 130.03Z" fill="#7000FF"/>
<path d="M173.636 143.989C182.851 135.587 188.001 123.66 188.001 111.192C188.001 98.724 182.716 86.7978 173.636 78.3953C172.416 77.311 170.654 77.4461 169.57 78.5305C168.485 79.75 168.621 81.512 169.705 82.5964C177.701 89.9143 182.173 100.215 182.173 111.057C182.173 121.899 177.566 132.198 169.705 139.517C169.027 140.058 168.756 140.872 168.756 141.685C168.756 142.363 169.027 143.041 169.569 143.583C170.519 144.937 172.416 145.072 173.636 143.988L173.636 143.989Z" fill="#7000FF"/>
<path d="M174.99 111.192C174.99 102.112 171.06 93.5739 164.284 87.6108C163.064 86.5265 161.302 86.6617 160.218 87.8821C159.133 89.1016 159.269 90.8637 160.489 91.9481C166.046 96.827 169.163 103.739 169.163 111.193C169.163 118.647 166.046 125.558 160.489 130.437C159.811 130.979 159.54 131.793 159.54 132.606C159.54 133.284 159.811 133.961 160.218 134.503C161.302 135.722 163.064 135.859 164.284 134.774C171.06 128.811 174.99 120.273 174.99 111.193V111.192Z" fill="#7000FF"/>
<path d="M161.979 111.192C161.979 105.5 159.404 100.215 154.932 96.6907C153.712 95.7416 151.815 95.8777 150.866 97.2324C149.917 98.4519 150.053 100.349 151.407 101.298C154.524 103.737 156.151 107.262 156.151 111.191C156.151 115.121 154.389 118.645 151.407 121.084C150.73 121.626 150.323 122.44 150.323 123.388C150.323 124.066 150.458 124.608 151.001 125.15C151.95 126.37 153.847 126.641 155.067 125.692C159.404 122.17 161.979 116.884 161.979 111.192L161.979 111.192Z" fill="#7000FF"/>
<path d="M73.6173 143.989C64.5372 135.587 59.252 123.66 59.252 111.192C59.252 98.724 64.5374 86.7978 73.6173 78.3953C74.8368 77.311 76.5988 77.4461 77.6833 78.5305C78.7676 79.75 78.6324 81.512 77.5481 82.5964C69.5524 89.9143 65.0798 100.215 65.0798 111.057C65.0798 121.899 69.6874 132.198 77.5481 139.517C78.2259 140.058 78.4972 140.872 78.4972 141.685C78.4972 142.363 78.2259 143.041 77.6842 143.583C76.7342 144.937 74.8368 145.072 73.6173 143.988L73.6173 143.989Z" fill="#7000FF"/>
<path d="M72.2617 111.192C72.2617 102.112 76.1914 93.5739 82.9677 87.6108C84.1872 86.5265 85.9492 86.6617 87.0336 87.8821C88.118 89.1016 87.9828 90.8637 86.7623 91.9481C81.2056 96.827 78.0888 103.739 78.0888 111.193C78.0888 118.647 81.2056 125.558 86.7623 130.437C87.4402 130.979 87.7115 131.793 87.7115 132.606C87.7115 133.284 87.4401 133.961 87.0336 134.503C85.9493 135.722 84.1872 135.859 82.9677 134.774C76.1914 128.811 72.2617 120.273 72.2617 111.193V111.192Z" fill="#7000FF"/>
<path d="M85.2734 111.192C85.2734 105.5 87.8486 100.215 92.321 96.6907C93.5405 95.7416 95.4378 95.8777 96.3869 97.2324C97.3361 98.4519 97.1999 100.349 95.8452 101.298C92.7284 103.737 91.1014 107.262 91.1014 111.191C91.1014 115.121 92.8635 118.645 95.8452 121.084C96.5231 121.626 96.9296 122.44 96.9296 123.388C96.9296 124.066 96.7944 124.608 96.2517 125.15C95.3026 126.37 93.4052 126.641 92.1858 125.692C87.8485 122.17 85.2735 116.884 85.2735 111.192L85.2734 111.192Z" fill="#7000FF"/>
</svg>
