<svg width="249" height="249" viewBox="0 0 249 249" fill="none" xmlns="http://www.w3.org/2000/svg">
<circle cx="124.5" cy="124.5" r="124.5" fill="#F1E6FF"/>
<rect x="88" y="77" width="75.6222" height="97.7556" rx="9.22222" fill="#7000FF"/>
<path d="M150.398 181.89C151.4 182.458 152.6 182.458 153.602 181.89C158.821 178.93 175 168.598 175 154.256V136.87C175 135.328 174.041 133.949 172.596 133.412L153.285 126.233C152.456 125.925 151.544 125.925 150.715 126.233L131.404 133.412C129.959 133.949 129 135.328 129 136.87V154.256C129 168.598 145.179 178.93 150.398 181.89Z" fill="#7000FF" stroke="#F1E6FF" stroke-width="3.68889" stroke-linecap="round" stroke-linejoin="round"/>
<path d="M100.91 93.6001H136.877" stroke="#F1E6FF" stroke-width="3.68889" stroke-linecap="round"/>
<path d="M100.91 102.822H136.877" stroke="#F1E6FF" stroke-width="3.68889" stroke-linecap="round"/>
<path d="M100.91 112.044H136.877" stroke="#F1E6FF" stroke-width="3.68889" stroke-linecap="round"/>
<path d="M100.91 121.267H124.888" stroke="#F1E6FF" stroke-width="3.68889" stroke-linecap="round"/>
<path d="M100.91 130.489H115.666" stroke="#F1E6FF" stroke-width="3.68889" stroke-linecap="round"/>
</svg>
