<svg width="249" height="249" viewBox="0 0 249 249" fill="none" xmlns="http://www.w3.org/2000/svg">
<circle cx="124.5" cy="124.5" r="124.5" fill="#F1E6FF"/>
<path fill-rule="evenodd" clip-rule="evenodd" d="M79.7309 73.4179C80.5134 72.6354 81.7826 72.6371 82.563 73.4216L90.8832 81.7854C91.6608 82.567 91.6592 83.8305 90.8795 84.6101L61.5592 113.929C60.7767 114.712 59.5075 114.71 58.7271 113.926L50.4069 105.562C49.6293 104.78 49.6309 103.517 50.4106 102.737L79.7309 73.4179Z" fill="#7000FF"/>
<path fill-rule="evenodd" clip-rule="evenodd" d="M166.141 73.4142C166.922 72.6332 168.188 72.6332 168.969 73.4142L198.288 102.733C199.069 103.514 199.069 104.781 198.288 105.562L189.917 113.933C189.136 114.714 187.87 114.714 187.089 113.933L157.77 84.6138C156.989 83.8328 156.989 82.5664 157.77 81.7854L166.141 73.4142Z" fill="#7000FF"/>
<path fill-rule="evenodd" clip-rule="evenodd" d="M91.0148 89.6978C93.3567 91.8015 100.041 97.4277 109.584 98.9827C113.076 99.5511 116.917 99.4372 120.321 99.041C120.785 98.9866 121.21 98.931 121.655 98.8675L105.697 114.826C102.582 117.941 102.582 123.084 105.697 126.199C108.808 129.31 113.901 129.31 117.013 126.199L125.485 117.727L151.134 143.376C152.813 145.055 152.813 147.789 151.134 149.47C149.455 151.149 146.721 151.149 145.04 149.47L125.89 130.32C125.191 129.637 123.934 129.651 123.249 130.35C122.566 131.049 122.58 132.306 123.279 132.99C130.265 140.237 138.372 148.412 144.808 154.519C146.487 156.198 146.487 158.874 144.808 160.554C143.129 162.233 140.395 162.233 138.716 160.554C132.095 154.041 125.507 147.365 118.928 140.766C118.585 140.404 118.092 140.19 117.593 140.186C116.129 140.204 115.264 142.36 116.317 143.377C122.882 149.998 129.614 156.57 136.105 163.224C137.784 164.903 137.784 167.579 136.105 169.259C135.36 170.004 133.856 170.641 132.332 170.477C131.208 170.357 130.025 169.883 128.966 168.736C128.948 168.715 128.925 168.697 128.909 168.679C122.953 162.491 116.047 155.353 109.703 149.008C109.36 148.645 108.866 148.432 108.368 148.428C106.904 148.446 106.039 150.602 107.091 151.619C113.246 158.074 120.091 165.017 125.835 170.71C126.966 171.842 126.288 174.262 124.965 175.585C124.195 176.355 122.568 177.044 121.077 177.036C119.809 177.036 118.751 176.609 117.886 175.526C118.427 173.029 117.727 170.317 115.797 168.389C114.283 166.888 112.331 166.126 110.342 166.126C110.115 166.126 109.874 166.165 109.646 166.183C109.83 163.979 109.115 161.706 107.441 160.031C105.936 158.526 103.976 157.769 101.987 157.769C101.758 157.769 101.518 157.807 101.291 157.825C101.469 155.634 100.756 153.397 99.0859 151.732V151.675C97.5829 150.165 95.6176 149.412 93.6318 149.412C92.5689 149.412 91.4879 149.676 90.4988 150.108C83.6001 142.354 80.5189 138.383 77.6163 133.803C75.2925 130.099 75.233 127.96 74.5986 124.518C73.915 120.849 71.2301 117.955 67.2285 113.55L91.0148 89.6978Z" fill="#7000FF"/>
<path fill-rule="evenodd" clip-rule="evenodd" d="M159.374 91.4376L180.555 112.619C178.622 113.688 176.514 114.757 174.462 116.1C171.727 117.89 169.088 120.295 167.673 123.991C165.576 129.459 161.125 132.902 152.586 139.602L140.11 127.126C141.626 126.994 143.373 126.876 145.217 126.836C146.19 126.854 147.088 125.98 147.104 125.008C147.122 124.035 146.248 123.137 145.276 123.121C145.237 123.12 145.198 123.12 145.16 123.121C142.989 123.169 140.896 123.318 139.242 123.47C137.917 123.59 137.199 123.65 136.689 123.701L128.1 115.113L130.595 112.618C131.163 111.913 131.102 110.78 130.462 110.139C129.821 109.498 128.688 109.438 127.984 110.006L114.405 123.585C112.725 125.264 109.991 125.264 108.312 123.585C106.636 121.909 106.636 119.111 108.312 117.434L128.797 97.0081C133.301 94.9626 139.12 96.8216 143.362 98.111C147.109 99.2425 150.756 97.7071 153.692 95.8481C156.106 94.3192 158.02 92.6388 159.379 91.4373L159.374 91.4376Z" fill="#7000FF"/>
<path fill-rule="evenodd" clip-rule="evenodd" d="M93.6264 153.125C94.653 153.125 95.6718 153.539 96.4693 154.343C98.0785 155.939 98.0785 158.434 96.4693 160.03C94.8756 161.624 92.3756 161.624 90.7822 160.03C89.1898 158.436 89.1898 155.936 90.7822 154.343C91.5809 153.539 92.5998 153.125 93.6251 153.125H93.6264Z" fill="#7000FF"/>
<path fill-rule="evenodd" clip-rule="evenodd" d="M101.982 161.479C103.015 161.479 104.028 161.843 104.825 162.639C106.414 164.229 106.414 166.795 104.825 168.385C103.233 169.976 100.695 169.981 99.0791 168.385C97.4971 166.796 97.4971 164.228 99.0791 162.639C99.8856 161.842 100.95 161.479 101.98 161.479H101.982Z" fill="#7000FF"/>
<path fill-rule="evenodd" clip-rule="evenodd" d="M110.337 169.834C111.368 169.834 112.375 170.198 113.18 170.994C114.881 172.696 114.8 175.12 113.18 176.74C111.566 178.336 109.027 178.331 107.435 176.74C105.842 175.146 105.842 172.588 107.435 170.994C108.231 170.198 109.303 169.833 110.336 169.834H110.337Z" fill="#7000FF"/>
</svg>
