<svg width="201" height="24" viewBox="0 0 201 24" fill="none" xmlns="http://www.w3.org/2000/svg">
<path d="M123.056 1.17629C125.464 0.96514 128.021 1.57031 129.86 3.18786C132.156 5.18436 133.201 8.32332 133.12 11.3001C133.186 13.8339 132.563 16.462 131.005 18.5056C129.62 20.3795 127.375 21.5201 125.074 21.7709C122.513 22.1177 119.718 21.5201 117.789 19.7348C115.535 17.7383 114.549 14.6389 114.589 11.6979C114.53 8.7739 115.472 5.71788 117.604 3.63656C119.047 2.19434 121.029 1.34973 123.056 1.17629ZM122.929 4.8205C121.839 5.0637 120.931 5.8197 120.346 6.74912C119.451 8.15742 119.169 9.8598 119.127 11.5019C119.155 13.1948 119.464 14.95 120.422 16.3828C121.156 17.4876 122.415 18.3227 123.781 18.2662C125.163 18.3567 126.491 17.5762 127.229 16.4356C128.445 14.5994 128.624 12.2993 128.445 10.1614C128.259 8.51372 127.684 6.80946 126.423 5.66698C125.492 4.81674 124.143 4.56222 122.929 4.8205Z" fill="#AEAEAE"/>
<path d="M157.682 1.17647C160.085 0.965326 162.639 1.56672 164.48 3.17674C166.787 5.17322 167.836 8.32162 167.752 11.3079C167.819 13.8398 167.192 16.4678 165.637 18.5096C164.251 20.3779 162.012 21.5185 159.714 21.7711C157.152 22.1179 154.353 21.5223 152.422 19.735C150.168 17.7404 149.184 14.641 149.221 11.7019C149.161 8.77974 150.103 5.7275 152.229 3.6424C153.673 2.20016 155.653 1.3518 157.682 1.17647ZM157.553 4.82256C156.463 5.06766 155.556 5.82742 154.973 6.75874C154.082 8.16514 153.802 9.86376 153.76 11.5021C153.789 13.1931 154.095 14.9445 155.051 16.3773C155.783 17.4821 157.04 18.3192 158.405 18.2664C159.839 18.3644 161.206 17.5236 161.936 16.3227C163.117 14.4431 163.269 12.1261 163.057 9.9731C162.839 8.348 162.237 6.67012 160.952 5.58044C160.025 4.7924 158.725 4.57372 157.553 4.82256Z" fill="#AEAEAE"/>
<path d="M192.304 1.33849C194.649 0.906763 197.138 1.15562 199.324 2.12276C199 3.33122 198.642 4.53212 198.358 5.75C196.835 5.04492 195.116 4.62828 193.438 4.88844C192.565 5.02606 191.588 5.61426 191.53 6.57952C191.42 7.24878 191.783 7.89354 192.325 8.2706C193.856 9.31504 195.737 9.67512 197.287 10.6894C198.319 11.3455 199.242 12.2542 199.687 13.4098C200.518 15.5534 200.088 18.2116 198.394 19.8273C196.992 21.2073 194.976 21.7389 193.057 21.8483C190.932 21.9369 188.755 21.5823 186.836 20.6417C187.122 19.3955 187.421 18.1494 187.722 16.9051C189.24 17.7195 190.956 18.1437 192.679 18.1776C193.576 18.1211 194.592 17.9571 195.207 17.2312C195.83 16.479 195.8 15.2593 195.077 14.5825C193.928 13.4739 192.275 13.2326 190.907 12.5011C189.338 11.7244 187.837 10.5009 187.305 8.77774C186.815 7.10174 187.08 5.17312 188.151 3.7667C189.143 2.4489 190.701 1.6439 192.304 1.33849Z" fill="#AEAEAE"/>
<path d="M0.888491 1.2915C7.48817 1.30093 14.0879 1.29716 20.6875 1.29339C20.697 3.28046 20.6742 5.2694 20.699 7.25836C18.8044 7.25648 16.9098 7.26402 15.0153 7.25458C15.0077 12.0545 15.0077 16.8562 15.0153 21.6561C12.269 21.6561 9.52278 21.6581 6.77844 21.6561C6.81629 17.9572 6.75951 14.2546 6.80305 10.5557C6.69706 9.44904 6.92606 8.33484 6.75193 7.23762C4.79682 7.28852 2.83983 7.24328 0.882812 7.26024C0.89606 5.2713 0.886597 3.28046 0.888491 1.2915Z" fill="#AEAEAE"/>
<path d="M26.3776 1.34993C29.1295 1.22362 31.8908 1.32919 34.6485 1.29149C34.8869 1.26132 35.0441 1.35936 35.1197 1.58559C37.7485 8.27826 40.3358 14.9898 42.9912 21.6731C40.3225 21.6449 37.6521 21.6523 34.9816 21.6693C33.5356 17.6499 32.1899 13.5966 30.7421 9.57722C29.2923 13.5759 27.9578 17.6179 26.5725 21.6411C23.9266 21.6787 21.2806 21.6449 18.6328 21.6581C21.2334 14.8974 23.8357 8.1331 26.3776 1.34993Z" fill="#AEAEAE"/>
<path d="M41.0974 1.29169C46.7017 1.29169 52.3057 1.29923 57.908 1.29923C58.8921 1.29923 59.8802 1.25587 60.8625 1.33317C60.8436 3.3108 60.8472 5.28844 60.8587 7.26608C58.9641 7.24912 57.0676 7.26608 55.1712 7.25666C55.1806 12.0584 55.1637 16.8602 55.1806 21.66C52.4382 21.6582 49.6957 21.6488 46.9553 21.6656C46.978 16.8639 46.9515 12.0622 46.9684 7.25854C45.0096 7.2623 43.0525 7.251 41.0938 7.26608C41.1012 5.27524 41.0938 3.28252 41.0974 1.29169Z" fill="#AEAEAE"/>
<path d="M66.5671 1.36084C67.8995 1.19494 69.2488 1.35519 70.5907 1.29297C72.139 1.33068 73.6947 1.21002 75.2392 1.35896C77.8528 8.13648 80.5026 14.9008 83.1731 21.6557C80.4931 21.6557 77.815 21.6595 75.1369 21.6539C73.8481 17.8682 72.508 14.0977 71.2077 10.3158C71.1225 10.099 71.0733 9.82377 70.8084 9.76345C69.5063 13.7395 68.0774 17.674 66.7656 21.6463C64.1161 21.6765 61.4681 21.6387 58.8203 21.6651C61.417 14.9027 64.0156 8.14023 66.5671 1.36084Z" fill="#AEAEAE"/>
<path d="M170.744 1.73987C172.865 1.41184 175.013 1.29495 177.16 1.32889C179.062 1.38921 181.11 1.60413 182.658 2.81448C185.028 4.5904 185.266 8.46838 183.22 10.578C182.652 11.202 181.943 11.6884 181.153 11.99C182.196 12.5028 182.972 13.4492 183.364 14.5295C184.185 16.8012 184.464 19.2351 185.323 21.4956C183.812 21.4466 182.302 21.5182 180.794 21.456C180.226 19.8591 179.844 18.2076 179.469 16.5599C179.242 15.6531 178.973 14.6426 178.182 14.0563C177.273 13.4191 176.104 13.6001 175.059 13.5605C175.061 16.2017 175.053 18.843 175.065 21.4842C173.619 21.4768 172.173 21.4768 170.727 21.4842C170.746 14.9028 170.713 8.32132 170.744 1.73987ZM175.053 4.82794C175.082 6.65852 175.027 8.48912 175.082 10.3178C176.391 10.2688 177.815 10.4894 178.99 9.76544C180.608 8.86428 180.709 6.19098 179.121 5.21252C177.898 4.4867 176.399 4.7186 175.053 4.82794Z" fill="#AEAEAE"/>
<path d="M92.0023 1.51172C93.9554 1.53246 95.9087 1.5136 97.86 1.52303C99.1167 6.10422 100.559 10.6458 101.388 15.3326C101.577 15.1158 101.613 14.8254 101.674 14.554C102.637 10.1349 104.04 5.83462 105.372 1.51737C107.289 1.52492 109.206 1.51737 111.124 1.52115C111.408 8.17612 111.832 14.8236 112.119 21.4786C110.704 21.4804 109.288 21.4786 107.874 21.4786C107.764 17.331 107.49 13.1909 107.441 9.04146C107.465 7.8971 107.397 6.75276 107.388 5.60652C106.01 10.8381 104.356 15.9924 102.807 21.177C101.668 21.177 100.529 21.177 99.3893 21.177C98.2462 16.7032 96.9061 12.2747 95.9958 7.7444C95.8273 7.02234 95.7648 6.272 95.5132 5.5707C95.3976 10.8777 95.0758 16.1772 94.8468 21.4786C93.4937 21.4804 92.1422 21.4766 90.7891 21.4824C91.1921 14.8236 91.6427 8.17046 92.0023 1.51172Z" fill="#AEAEAE"/>
<path d="M133.703 1.52135C138.633 1.51946 143.564 1.52135 148.494 1.52135C148.49 2.77694 148.477 4.03252 148.502 5.28998C146.755 5.33146 145.01 5.29564 143.263 5.30884C143.267 10.7007 143.257 16.0925 143.269 21.4843C141.809 21.4731 140.35 21.4825 138.893 21.4787C138.895 16.0888 138.893 10.6988 138.893 5.30884C137.167 5.30884 135.439 5.30506 133.713 5.31072C133.703 4.0476 133.716 2.78448 133.703 1.52135Z" fill="#AEAEAE"/>
</svg>
