<svg width="28" height="29" viewBox="0 0 28 29" fill="none" xmlns="http://www.w3.org/2000/svg">
<rect y="0.5" width="28" height="28" rx="14" fill="#5D5D5D"/>
<path d="M22 8.50672C21.3036 8.95846 20.5324 9.30396 19.7164 9.52993C19.2784 9.06682 18.6962 8.73858 18.0488 8.5896C17.4013 8.44062 16.7196 8.4781 16.0961 8.69696C15.4725 8.91581 14.937 9.30549 14.5622 9.81329C14.1873 10.3211 13.9911 10.9225 14 11.5362V12.205C12.7219 12.2354 11.4555 11.9748 10.3135 11.4462C9.17145 10.9177 8.18932 10.1376 7.45455 9.17548C7.45455 9.17548 4.54545 15.1943 11.0909 17.8694C9.59311 18.8043 7.80884 19.273 6 19.2069C12.5455 22.5507 20.5455 19.2069 20.5455 11.5161C20.5448 11.3299 20.5253 11.144 20.4873 10.9611C21.2295 10.288 21.7533 9.43811 22 8.50672Z" fill="white"/>
</svg>
