<svg width="10" height="15" viewBox="0 0 10 15" fill="none" xmlns="http://www.w3.org/2000/svg">
<path d="M9.1003 14.6054C9.227 14.4811 9.32752 14.3335 9.39611 14.1709C9.4647 14.0084 9.5 13.8342 9.5 13.6583C9.5 13.4823 9.4647 13.3081 9.39611 13.1456C9.32752 12.9831 9.227 12.8355 9.1003 12.7112L3.79725 7.49883L9.1003 2.28648C9.35585 2.03529 9.49942 1.69462 9.49942 1.33939C9.49942 0.98416 9.35585 0.643479 9.1003 0.392296C8.84474 0.141111 8.49814 0 8.13673 0C7.77532 0 7.42871 0.141111 7.17316 0.392296L0.899701 6.55846C0.772997 6.68274 0.672475 6.83036 0.603889 6.99288C0.535302 7.15539 0.5 7.32961 0.5 7.50555C0.5 7.68149 0.535302 7.8557 0.603889 8.01822C0.672475 8.18073 0.772997 8.32835 0.899701 8.45264L7.17316 14.6188C7.69253 15.1293 8.56726 15.1293 9.1003 14.6054Z" fill="#858585"/>
</svg>
