<svg width="30" height="30" viewBox="0 0 30 30" fill="none" xmlns="http://www.w3.org/2000/svg">
<path d="M9.53206 20.4658H10.6045L17.2115 13.8493L16.1391 12.7753L9.53206 19.3918V20.4658ZM20.4863 12.737L17.2307 9.51507L18.3031 8.4411C18.5968 8.14703 18.9576 8 19.3855 8C19.813 8 20.1735 8.14703 20.4671 8.4411L21.5396 9.51507C21.8332 9.80913 21.9864 10.1641 21.9992 10.5798C22.012 10.9951 21.8715 11.3498 21.5779 11.6438L20.4863 12.737ZM19.3755 13.8685L11.2556 22H8V18.7397L16.1199 10.6082L19.3755 13.8685ZM16.6753 13.3123L16.1391 12.7753L17.2115 13.8493L16.6753 13.3123Z" fill="#9A9A9A"/>
<rect x="0.5" y="0.5" width="29" height="29" rx="14.5" stroke="#9A9A9A"/>
</svg>
