<svg width="6" height="9" viewBox="0 0 6 9" fill="none" xmlns="http://www.w3.org/2000/svg">
<path d="M0.982028 0.532822C0.912501 0.602207 0.85734 0.684623 0.819704 0.775353C0.782068 0.866084 0.762695 0.963345 0.762695 1.06157C0.762695 1.1598 0.782068 1.25706 0.819704 1.34779C0.85734 1.43852 0.912501 1.52094 0.982028 1.59032L3.89203 4.50032L0.982028 7.41032C0.841795 7.55055 0.763013 7.74075 0.763013 7.93907C0.763013 8.13739 0.841795 8.32759 0.982028 8.46782C1.12226 8.60806 1.31246 8.68684 1.51078 8.68684C1.7091 8.68684 1.8993 8.60806 2.03953 8.46782L5.48203 5.02532C5.55156 4.95594 5.60672 4.87352 5.64435 4.78279C5.68199 4.69206 5.70136 4.5948 5.70136 4.49657C5.70136 4.39834 5.68199 4.30108 5.64435 4.21035C5.60672 4.11962 5.55156 4.03721 5.48203 3.96782L2.03953 0.525322C1.75453 0.240322 1.27453 0.240322 0.982028 0.532822Z" fill="#5D5D5D"/>
</svg>
