<svg width="49" height="32" viewBox="0 0 49 32" fill="none" xmlns="http://www.w3.org/2000/svg">
<path d="M48.0903 25.3089C47.9662 25.1622 45.0212 21.7433 40.3949 21.2694C39.8985 21.213 39.4358 21.5853 39.3907 22.0931C39.3343 22.6009 39.7066 23.0522 40.2144 23.0973C43.024 23.3907 45.1566 25.0268 46.127 25.9295C45.2468 26.7983 43.3625 28.4006 40.7109 29.3258C36.2088 30.9055 31.4923 29.9577 26.6629 26.5162C33.0719 24.756 36.6375 20.615 38.5332 17.2976C40.7786 13.3709 41.2186 9.81665 41.2299 9.65868L41.3428 8.73343L40.4175 8.63188C37.3597 8.30466 34.7419 9.88435 34.6403 9.95205C34.2116 10.2116 34.0762 10.7757 34.3357 11.2158C34.5952 11.6446 35.1594 11.78 35.5994 11.5205C35.622 11.5092 37.2468 10.5388 39.2327 10.4372C38.9506 11.701 38.3075 14.0141 36.9083 16.4401C34.5049 20.615 30.9732 23.3794 26.4034 24.6883C28.2088 21.4951 31.7292 15.0409 32.2144 12.4231C32.2821 12.0733 32.3272 11.7236 32.3498 11.3851C32.3836 10.8773 32.3724 10.5501 32.3724 10.4372C32.3611 7.74048 30.1495 5.5402 27.4528 5.5402C24.7447 5.5402 22.5332 7.75177 22.5332 10.4598C22.5332 12.0959 23.3456 13.6192 24.6996 14.5444C25.1171 14.8265 25.6925 14.7137 25.9746 14.2962C26.2567 13.8787 26.1439 13.3032 25.7264 13.0212C24.8688 12.4457 24.3611 11.4866 24.3611 10.4598C24.3611 8.756 25.749 7.37941 27.4415 7.37941C29.1453 7.37941 30.5219 8.76728 30.5219 10.4598V10.5275C30.5219 10.5275 30.5332 10.7757 30.4993 11.2497C30.4767 11.5205 30.4429 11.7913 30.3865 12.0846C29.9915 14.2059 26.9563 19.9154 24.9365 23.5148C24.4175 21.4838 23.6502 19.3174 22.4993 17.2863C22.3413 17.0155 22.1834 16.7334 22.0141 16.4739C21.8223 16.1805 20.6375 14.5219 20.5585 14.409C19.7461 13.1001 19.2948 11.543 19.2948 9.97461C19.2948 5.48378 22.9506 1.82793 27.4415 1.82793C27.9492 1.82793 28.3554 1.42172 28.3554 0.913964C28.3554 0.406207 27.9492 0 27.4415 0C21.9351 0 17.4669 4.47955 17.4669 9.97461C17.4669 10.5501 17.5233 11.1255 17.6135 11.6897C17.0719 11.2948 16.4852 10.9111 15.8646 10.5726C12.0508 8.45134 8.63188 8.57546 8.48519 8.57546L7.95487 8.59803L7.70663 9.07193C5.68688 12.9986 8.88012 17.6023 9.01552 17.7941C9.30889 18.2116 9.87306 18.3018 10.2906 18.0198C10.708 17.7264 10.8096 17.1622 10.5162 16.7447C10.4937 16.7109 8.13541 13.2807 9.12836 10.426C10.1552 10.4824 12.4683 10.7757 14.9845 12.1636C16.598 13.055 18.0085 14.2172 19.2045 15.6615C19.9605 16.6319 19.9492 16.6319 19.9605 16.6319C21.3597 18.6065 22.4316 21.0099 23.1425 23.842C19.1368 21.0889 13.6192 18.8886 7.50353 20.8632C3.19323 22.2511 0.665727 25.0719 0.564175 25.1848L0 25.8166L0.586743 26.426C5.59662 31.5938 10.9788 32.0451 14.6234 31.5148C18.5388 30.9394 21.2468 29.1678 21.371 29.0889C21.7884 28.8068 21.9126 28.2426 21.6305 27.8138C21.3484 27.3963 20.7842 27.2722 20.3554 27.5543C20.3329 27.5656 17.8166 29.2017 14.2962 29.6982C9.92948 30.3188 5.98026 28.9986 2.56136 25.7828C3.49789 24.9365 5.44993 23.4245 8.14669 22.567C13.2807 20.9422 18.5952 22.3413 23.9662 26.7306C28.1298 30.1382 32.316 31.8646 36.4344 31.8646C36.9309 31.8646 37.4161 31.842 37.9126 31.7856C44.22 31.1537 47.9662 26.6516 48.1129 26.4598L48.598 25.8731L48.0903 25.3089Z" fill="black"/>
</svg>
