<svg width="48" height="48" viewBox="0 0 48 48" fill="none" xmlns="http://www.w3.org/2000/svg">
<path d="M44 33.4801V9.34013C44 6.94013 42.04 5.16013 39.66 5.36013H39.54C35.34 5.72013 28.96 7.86013 25.4 10.1001L25.06 10.3201C24.48 10.6801 23.52 10.6801 22.94 10.3201L22.44 10.0201C18.88 7.80013 12.52 5.68013 8.32 5.34013C5.94 5.14013 4 6.94013 4 9.32013V33.4801C4 35.4001 5.56 37.2001 7.48 37.4401L8.06 37.5201C12.4 38.1001 19.1 40.3001 22.94 42.4001L23.02 42.4401C23.56 42.7401 24.42 42.7401 24.94 42.4401C28.78 40.3201 35.5 38.1001 39.86 37.5201L40.52 37.4401C42.44 37.2001 44 35.4001 44 33.4801Z" stroke="#0C0C0D" stroke-width="3" stroke-linecap="round" stroke-linejoin="round"/>
<path d="M24 10.9802V40.9802" stroke="#0C0C0D" stroke-width="3" stroke-linecap="round" stroke-linejoin="round"/>
<path d="M15.5 16.9802H11" stroke="#0C0C0D" stroke-width="3" stroke-linecap="round" stroke-linejoin="round"/>
<path d="M17 22.9802H11" stroke="#0C0C0D" stroke-width="3" stroke-linecap="round" stroke-linejoin="round"/>
</svg>
