<svg width="48" height="48" viewBox="0 0 48 48" fill="none" xmlns="http://www.w3.org/2000/svg">
<path d="M38.6019 15.839V26.139C38.6019 32.299 35.0819 34.939 29.8019 34.939H12.2219C11.3219 34.939 10.4619 34.8591 9.66187 34.6791C9.16187 34.5991 8.68188 34.4591 8.24188 34.2991C5.24188 33.1791 3.42188 30.579 3.42188 26.139V15.839C3.42188 9.67899 6.94186 7.03906 12.2219 7.03906H29.8019C34.2819 7.03906 37.5019 8.93905 38.3619 13.2791C38.5019 14.0791 38.6019 14.899 38.6019 15.839Z" stroke="#0C0C0D" stroke-width="3" stroke-miterlimit="10" stroke-linecap="round" stroke-linejoin="round"/>
<path d="M44.6041 21.8392V32.1393C44.6041 38.2993 41.0841 40.9392 35.8041 40.9392H18.2241C16.7441 40.9392 15.4041 40.7393 14.2441 40.2993C11.8641 39.4193 10.2441 37.5993 9.66406 34.6793C10.4641 34.8593 11.3241 34.9392 12.2241 34.9392H29.8041C35.0841 34.9392 38.6041 32.2993 38.6041 26.1393V15.8392C38.6041 14.8992 38.5241 14.0593 38.3641 13.2793C42.1641 14.0793 44.6041 16.7592 44.6041 21.8392Z" stroke="#0C0C0D" stroke-width="3" stroke-miterlimit="10" stroke-linecap="round" stroke-linejoin="round"/>
<path d="M20.9988 26.2788C23.9148 26.2788 26.2788 23.9148 26.2788 20.9988C26.2788 18.0827 23.9148 15.7188 20.9988 15.7188C18.0827 15.7188 15.7188 18.0827 15.7188 20.9988C15.7188 23.9148 18.0827 26.2788 20.9988 26.2788Z" stroke="#0C0C0D" stroke-width="3" stroke-miterlimit="10" stroke-linecap="round" stroke-linejoin="round"/>
<path d="M9.5625 16.5996V25.3997" stroke="#0C0C0D" stroke-width="3" stroke-miterlimit="10" stroke-linecap="round" stroke-linejoin="round"/>
<path d="M32.4453 16.5996V25.3997" stroke="#0C0C0D" stroke-width="3" stroke-miterlimit="10" stroke-linecap="round" stroke-linejoin="round"/>
</svg>
