<svg width="71" height="50" viewBox="0 0 71 50" fill="none" xmlns="http://www.w3.org/2000/svg">
<rect x="0.5" y="0.808594" width="70" height="49" rx="18" fill="url(#paint0_linear_5592_4145)"/>
<path d="M24.8477 26.0391L22.1523 25.3945L23.125 16.7461H32.7109V19.4766H25.9023L25.4805 23.2617C25.707 23.1289 26.0508 22.9883 26.5117 22.8398C26.9727 22.6836 27.4883 22.6055 28.0586 22.6055C28.8867 22.6055 29.6211 22.7344 30.2617 22.9922C30.9023 23.25 31.4453 23.625 31.8906 24.1172C32.3438 24.6094 32.6875 25.2109 32.9219 25.9219C33.1562 26.6328 33.2734 27.4375 33.2734 28.3359C33.2734 29.0938 33.1562 29.8164 32.9219 30.5039C32.6875 31.1836 32.332 31.793 31.8555 32.332C31.3789 32.8633 30.7812 33.2812 30.0625 33.5859C29.3438 33.8906 28.4922 34.043 27.5078 34.043C26.7734 34.043 26.0625 33.9336 25.375 33.7148C24.6953 33.4961 24.082 33.1719 23.5352 32.7422C22.9961 32.3125 22.5625 31.793 22.2344 31.1836C21.9141 30.5664 21.7461 29.8633 21.7305 29.0742H25.082C25.1289 29.5586 25.2539 29.9766 25.457 30.3281C25.668 30.6719 25.9453 30.9375 26.2891 31.125C26.6328 31.3125 27.0352 31.4062 27.4961 31.4062C27.9258 31.4062 28.293 31.3242 28.5977 31.1602C28.9023 30.9961 29.1484 30.7695 29.3359 30.4805C29.5234 30.1836 29.6602 29.8398 29.7461 29.4492C29.8398 29.0508 29.8867 28.6211 29.8867 28.1602C29.8867 27.6992 29.832 27.2812 29.7227 26.9062C29.6133 26.5312 29.4453 26.207 29.2188 25.9336C28.9922 25.6602 28.7031 25.4492 28.3516 25.3008C28.0078 25.1523 27.6055 25.0781 27.1445 25.0781C26.5195 25.0781 26.0352 25.1758 25.6914 25.3711C25.3555 25.5664 25.0742 25.7891 24.8477 26.0391ZM39.3203 16.7461V33.8086H35.8047V16.7461H39.3203ZM49.5391 16.7461L42.7773 25.1719L38.875 29.3672L38.2422 26.0391L40.8789 22.4297L45.2266 16.7461H49.5391ZM45.543 33.8086L40.5156 25.9219L43.1172 23.7422L49.7031 33.8086H45.543Z" fill="#18191B"/>
<defs>
<linearGradient id="paint0_linear_5592_4145" x1="7.16604" y1="8.49028" x2="72.6563" y2="36.706" gradientUnits="userSpaceOnUse">
<stop stop-color="white"/>
<stop offset="1" stop-color="white" stop-opacity="0"/>
</linearGradient>
</defs>
</svg>
