<svg width="122" height="30" viewBox="0 0 122 30" fill="none" xmlns="http://www.w3.org/2000/svg">
<path d="M0.000213623 16.1439C0.64816 15.9651 1.3144 15.822 1.95087 15.5973C4.4944 14.7008 6.42899 13.0956 7.76724 10.822C8.71333 9.21342 9.92661 7.84073 11.5952 6.904C14.2052 5.43852 17.5721 5.74704 19.884 7.62723C20.1237 7.82173 20.3714 8.00952 20.5984 8.21855C20.7441 8.35158 20.837 8.32363 20.9837 8.21409C21.5915 7.75802 22.1695 7.24717 22.8347 6.88499C25.6098 5.37481 28.9148 5.77387 31.3437 7.85638C32.355 8.72382 33.1624 9.74104 33.8413 10.8712C35.5213 13.6668 38.0064 15.3961 41.2895 16.0445C41.3882 16.0635 41.4856 16.0869 41.6496 16.1216C41.2597 16.2077 40.9272 16.2703 40.6015 16.3552C37.6073 17.1388 35.3413 18.839 33.8012 21.4391C32.8597 23.0309 31.6602 24.3935 30.0111 25.3269C27.3839 26.8158 24.0078 26.5107 21.6799 24.6149C21.447 24.4248 21.2051 24.2426 20.9849 24.0391C20.8335 23.8994 20.7349 23.9285 20.5801 24.0436C19.9574 24.5075 19.3645 25.0295 18.6833 25.394C15.9231 26.8706 12.6502 26.4637 10.2397 24.4013C9.24089 23.5473 8.43237 22.5491 7.76613 21.4313C6.08266 18.6054 3.58503 16.8538 0.271994 16.2032C0.175674 16.1875 0.0816495 16.1629 0.000213623 16.1439ZM9.79134 16.1462C10.7465 16.647 11.4151 17.3702 11.8704 18.2935C12.352 19.2694 13.0068 20.1346 13.797 20.8981C15.3967 22.4451 17.3221 23.3875 19.5515 23.7474C19.9918 23.8189 20.4402 23.905 20.8828 23.8938C21.3771 23.8804 21.8748 23.7865 22.361 23.687C25.7601 22.9895 28.237 21.1317 29.7909 18.127C30.2038 17.3288 30.8024 16.7006 31.5982 16.2468C31.6579 16.2133 31.7129 16.1708 31.7989 16.1126C30.823 15.6063 30.1579 14.8808 29.7015 13.9586C29.2187 12.9827 28.565 12.1176 27.7749 11.3529C26.1752 9.80587 24.2498 8.86354 22.0204 8.5036C21.5801 8.43206 21.1317 8.34599 20.6891 8.35717C20.1948 8.37058 19.6971 8.46448 19.2108 8.56396C15.8118 9.26261 13.3348 11.1182 11.7809 14.124C11.5126 14.6427 11.1674 15.1066 10.7099 15.4822C10.4289 15.7147 10.1193 15.9114 9.79134 16.1462ZM18.3049 7.76919C18.2659 7.72895 18.2521 7.70659 18.2327 7.69541C18.1604 7.65294 18.0882 7.61046 18.0113 7.57581C15.9655 6.65137 13.9392 6.68378 11.9885 7.79378C10.5401 8.61874 9.48166 9.83158 8.66061 11.2378C7.40032 13.3997 5.60218 14.9881 3.26276 16.0065C3.19169 16.0378 3.12402 16.0735 3.01505 16.126C3.12402 16.1797 3.18133 16.2121 3.241 16.2378C5.585 17.2494 7.38996 18.8323 8.64684 20.9964C9.26266 22.0572 10.0425 22.9873 11.0011 23.7753C12.6754 25.1514 14.586 25.6164 16.7304 25.1313C17.2808 25.0072 17.806 24.8082 18.3428 24.4919C18.0354 24.3968 17.7785 24.3253 17.5262 24.2392C14.5079 23.2187 12.305 21.3094 10.8876 18.5428C10.2901 17.3747 9.3441 16.5945 8.05398 16.2066C7.98742 16.1864 7.92323 16.1585 7.81885 16.1193C9.26378 15.7236 10.2798 14.9043 10.9278 13.6445C12.4404 10.708 14.8359 8.78306 18.0825 7.84073C18.1524 7.82061 18.22 7.79602 18.3049 7.76919ZM23.2715 7.7323C23.306 7.76807 23.3151 7.78707 23.3289 7.79155C23.5697 7.86756 23.8128 7.93463 24.0513 8.01623C27.0697 9.03793 29.2703 10.9483 30.6865 13.716C31.284 14.8841 32.2324 15.6622 33.5225 16.049C33.5867 16.0679 33.6475 16.0981 33.745 16.1372C32.3126 16.5307 31.2966 17.3412 30.6522 18.5931C29.1373 21.5386 26.7394 23.4713 23.4825 24.4147C23.4149 24.4337 23.3496 24.4595 23.2418 24.4964C23.3335 24.5511 23.3805 24.5846 23.4321 24.6092C25.5112 25.6153 27.5823 25.5941 29.5879 24.4572C31.0375 23.6356 32.0924 22.4172 32.9136 21.0121C34.1796 18.8435 35.9846 17.2494 38.3378 16.2367C38.3997 16.2099 38.457 16.1719 38.5499 16.1205C38.4364 16.0679 38.3699 16.0355 38.3022 16.0053C35.9892 14.9971 34.1956 13.4343 32.9491 11.2948C32.4216 10.3894 31.7748 9.5756 31.0019 8.85237C29.4137 7.36454 27.5467 6.68713 25.3323 7.0236C24.6087 7.13091 23.9275 7.36453 23.2715 7.7323Z" fill="white"/>
<path d="M26.5647 11.7987C24.934 14.4402 23.348 17.01 21.739 19.6152C21.5632 19.2657 21.3981 18.9631 21.2624 18.6491C21.232 18.5804 21.2852 18.4608 21.3319 18.3828C22.4154 16.5951 23.5032 14.8105 24.5899 13.0237C24.6366 12.9468 24.68 12.8667 24.7462 12.7502C24.6268 12.743 24.5443 12.7347 24.4628 12.7336C23.9092 12.7315 23.3555 12.7336 22.8029 12.7295C20.7663 12.716 18.7297 12.7014 16.693 12.6868C16.3564 12.6848 16.0741 12.5589 15.8299 12.3405C15.7289 12.2511 15.7094 12.1835 15.8027 12.0742C16.8145 10.896 18.0923 10.1264 19.6774 9.87782C21.916 9.5263 23.8376 10.1399 25.44 11.6687C25.5138 11.7394 25.6408 11.7841 25.7472 11.7924C25.9947 11.8112 26.2422 11.7987 26.5647 11.7987ZM17.6006 11.7612C19.7545 11.7612 21.9084 11.7612 24.0623 11.7612C22.5066 10.4321 19.5298 10.221 17.6006 11.7612Z" fill="white"/>
<path d="M14.1018 13.2705C17.2853 13.2705 20.4244 13.2705 23.6123 13.2705C23.3715 13.5717 23.1536 13.8538 22.9226 14.1244C22.8879 14.1645 22.7925 14.1666 22.7242 14.1677C21.7548 14.1772 20.7855 14.1825 19.8161 14.1899C18.5659 14.1983 17.3167 14.2068 16.0665 14.2163C16.0036 14.2163 15.9408 14.2237 15.841 14.2311C15.9093 14.3579 15.9635 14.4657 16.0253 14.5692C17.2885 16.6786 18.5496 18.789 19.8182 20.8951C20.0329 21.2513 20.0904 21.6137 19.9765 22.0079C19.9397 22.1357 19.8768 22.1696 19.7326 22.1452C17.0586 21.694 15.0841 19.888 14.503 17.3338C14.2807 16.3583 14.3186 15.383 14.6005 14.4203C14.645 14.2681 14.6385 14.1423 14.5474 14.006C14.3956 13.7798 14.2633 13.541 14.1018 13.2705ZM18.6461 20.8539C17.5575 19.0383 16.484 17.2482 15.3964 15.4347C14.6884 17.0485 16.7778 20.5316 18.6461 20.8539Z" fill="white"/>
<path d="M16.7268 14.7627C17.1009 14.8085 17.416 14.8607 17.7334 14.8809C17.9093 14.8927 17.9873 14.9769 18.0674 15.1068C19.1899 16.9329 20.3179 18.7558 21.4448 20.5797C21.4905 20.6533 21.5384 20.7236 21.6085 20.8312C21.6731 20.7396 21.7244 20.6735 21.7667 20.6032C23.0528 18.4884 24.3401 16.3746 25.6228 14.2577C25.8222 13.9285 26.0972 13.7058 26.4836 13.6057C26.6384 13.5652 26.742 13.5801 26.8021 13.7517C27.6495 16.1562 27.2219 18.3211 25.4258 20.209C24.5784 21.0986 23.5093 21.6654 22.2822 21.9648C22.172 21.9914 22.0606 22.0884 21.9916 22.18C21.8591 22.3558 21.7577 22.5518 21.6141 22.7862C19.9783 20.1024 18.3659 17.4539 16.7268 14.7627ZM26.1651 15.2975C25.0538 17.1278 23.9626 18.9242 22.849 20.7566C24.7788 20.4114 26.7721 17.1204 26.1651 15.2975Z" fill="white"/>
<path d="M44.9627 24.7139L49.0734 10.8724H51.5955L55.7063 24.7139H54.7133L53.5218 20.7024H47.1472L45.9556 24.7139H44.9627ZM47.4053 19.7889H53.2636L50.8806 11.766H49.7884L47.4053 19.7889ZM55.5032 29.0828L55.106 28.2686C55.662 27.9773 56.1122 27.7059 56.4564 27.4544C56.8006 27.2161 57.0654 26.9645 57.2507 26.6997C57.4361 26.4482 57.5618 26.1503 57.628 25.8061C57.7075 25.4751 57.7472 25.0515 57.7472 24.5351V14.7845H58.7004V24.555C58.7004 25.1375 58.6541 25.634 58.5614 26.0444C58.4687 26.4681 58.3032 26.8454 58.0649 27.1763C57.8399 27.5073 57.5155 27.8184 57.0919 28.1097C56.6814 28.4142 56.1519 28.7386 55.5032 29.0828ZM57.7472 12.1235V10.8128H58.7004V12.1235H57.7472ZM61.7422 24.7139V14.7845H62.6954V15.5391C62.947 15.4068 63.2515 15.2677 63.6089 15.1221C63.9796 14.9765 64.3768 14.8573 64.8004 14.7647C65.2241 14.6587 65.6345 14.6058 66.0317 14.6058C66.9319 14.6058 67.6204 14.758 68.097 15.0625C68.5736 15.3538 68.898 15.8569 69.0701 16.5718C69.2422 17.2867 69.3282 18.2664 69.3282 19.5109V24.7139H68.3552V19.5705C68.3552 18.5246 68.2956 17.7037 68.1764 17.108C68.0705 16.5122 67.8454 16.0952 67.5012 15.8569C67.1703 15.6053 66.6539 15.4796 65.9523 15.4796C65.5551 15.4796 65.1447 15.5259 64.721 15.6186C64.3106 15.7113 63.9267 15.8304 63.5692 15.976C63.225 16.1084 62.9337 16.2408 62.6954 16.3732V24.7139H61.7422ZM74.3182 24.8926C73.4709 24.8926 72.8089 24.6477 72.3323 24.1578C71.869 23.668 71.6373 22.9332 71.6373 21.9535C71.6373 21.3577 71.7366 20.8613 71.9351 20.4641C72.1337 20.0669 72.4449 19.7558 72.8685 19.5307C73.2922 19.2924 73.835 19.1402 74.4969 19.074L78.0318 18.6967V17.7236C78.0318 16.9293 77.8597 16.36 77.5154 16.0158C77.1712 15.6583 76.6549 15.4796 75.9665 15.4796C75.6222 15.4796 75.2185 15.4994 74.7551 15.5391C74.305 15.5789 73.8548 15.6252 73.4047 15.6782C72.9546 15.7179 72.5574 15.7576 72.2132 15.7973L72.1536 14.9831C72.4713 14.9301 72.8553 14.8772 73.3054 14.8242C73.7555 14.758 74.2189 14.7051 74.6955 14.6654C75.1721 14.6256 75.609 14.6058 76.0062 14.6058C76.7079 14.6058 77.2771 14.7249 77.714 14.9632C78.1509 15.1883 78.4753 15.5325 78.6871 15.9959C78.8989 16.446 79.0048 17.0219 79.0048 17.7236V23.2245C79.0313 23.5157 79.1836 23.7276 79.4616 23.8599C79.7396 23.9791 80.0441 24.0519 80.3751 24.0784L80.3354 24.8926C80.0838 24.8926 79.8455 24.8727 79.6205 24.833C79.4086 24.8065 79.2034 24.7536 79.0048 24.6741C78.846 24.608 78.6937 24.5285 78.5481 24.4358C78.4157 24.3299 78.2899 24.2108 78.1708 24.0784C77.8928 24.1843 77.5419 24.3035 77.1183 24.4358C76.6946 24.5682 76.2379 24.6741 75.748 24.7536C75.2582 24.8463 74.7816 24.8926 74.3182 24.8926ZM74.3976 24.0585C74.8345 24.0585 75.278 24.0188 75.7282 23.9394C76.1783 23.8599 76.6086 23.7606 77.019 23.6415C77.4294 23.5223 77.767 23.4098 78.0318 23.3039V19.5109L74.5962 19.8485C73.8813 19.9147 73.3782 20.1199 73.087 20.4641C72.7957 20.8083 72.6501 21.2982 72.6501 21.9336C72.6501 22.6088 72.7957 23.1318 73.087 23.5025C73.3915 23.8732 73.8283 24.0585 74.3976 24.0585ZM81.8659 24.7139V11.1504H84.6064V22.3904H89.9682V24.7139H81.8659ZM95.3186 24.9323C94.2198 24.9323 93.346 24.747 92.6973 24.3763C92.0618 24.0056 91.605 23.4429 91.327 22.6883C91.049 21.9336 90.91 20.9871 90.91 19.8485C90.91 18.6172 91.0821 17.6111 91.4263 16.83C91.7838 16.0489 92.3001 15.473 92.9753 15.1023C93.6505 14.7183 94.4845 14.5264 95.4775 14.5264C96.947 14.5264 98.0525 14.8971 98.7939 15.6384C99.5485 16.3798 99.9258 17.5515 99.9258 19.1534L99.8067 20.623H93.571C93.5843 21.3644 93.7365 21.9204 94.0278 22.2911C94.3191 22.6618 94.8221 22.8471 95.5371 22.8471C95.9475 22.8471 96.3976 22.8405 96.8874 22.8273C97.3773 22.8008 97.8605 22.7743 98.3371 22.7479C98.827 22.7214 99.244 22.6949 99.5882 22.6684L99.6478 24.5153C99.3168 24.5682 98.8998 24.6278 98.3967 24.694C97.8936 24.7602 97.3707 24.8132 96.8279 24.8529C96.2983 24.9058 95.7952 24.9323 95.3186 24.9323ZM93.571 18.935H97.2846C97.2846 18.0347 97.139 17.4059 96.8477 17.0484C96.5697 16.691 96.113 16.5122 95.4775 16.5122C94.8552 16.5122 94.3786 16.6976 94.0477 17.0683C93.7299 17.439 93.571 18.0612 93.571 18.935ZM101.682 24.7139V14.7448H104.323V15.3803C104.535 15.2479 104.793 15.1221 105.098 15.003C105.402 14.8706 105.72 14.758 106.051 14.6654C106.395 14.5727 106.726 14.5264 107.044 14.5264C107.971 14.5264 108.686 14.6918 109.189 15.0228C109.705 15.3406 110.069 15.8701 110.281 16.6115C110.493 17.3397 110.599 18.3194 110.599 19.5506V24.7139H107.938V19.6896C107.938 19.0012 107.898 18.4518 107.818 18.0413C107.739 17.6177 107.587 17.3132 107.362 17.1278C107.137 16.9425 106.806 16.8498 106.369 16.8498C106.13 16.8498 105.879 16.8763 105.614 16.9293C105.363 16.969 105.118 17.0286 104.879 17.108C104.654 17.1874 104.469 17.2669 104.323 17.3463V24.7139H101.682ZM116.253 24.9323C115.816 24.9323 115.346 24.9058 114.843 24.8529C114.353 24.8132 113.89 24.7602 113.453 24.694C113.029 24.6278 112.665 24.5616 112.361 24.4954L112.44 22.5294C112.784 22.5691 113.168 22.6155 113.592 22.6684C114.029 22.7214 114.453 22.7677 114.863 22.8074C115.287 22.8339 115.631 22.8471 115.896 22.8471C116.293 22.8471 116.617 22.8141 116.869 22.7479C117.133 22.6817 117.332 22.5757 117.464 22.4301C117.597 22.2712 117.663 22.0462 117.663 21.7549C117.663 21.5299 117.603 21.3577 117.484 21.2386C117.378 21.1194 117.167 21.0201 116.849 20.9407C116.544 20.848 116.094 20.7554 115.498 20.6627C114.757 20.5568 114.141 20.4045 113.652 20.2059C113.175 20.0074 112.824 19.7161 112.599 19.3322C112.374 18.935 112.261 18.3988 112.261 17.7236C112.261 16.9028 112.44 16.2607 112.798 15.7973C113.155 15.3339 113.632 15.0096 114.228 14.8242C114.823 14.6256 115.472 14.5264 116.174 14.5264C116.637 14.5264 117.114 14.5528 117.603 14.6058C118.093 14.6455 118.557 14.6985 118.994 14.7647C119.43 14.8309 119.795 14.8971 120.086 14.9632L120.006 16.969C119.675 16.916 119.291 16.8697 118.855 16.83C118.418 16.777 117.981 16.7373 117.544 16.7108C117.12 16.6843 116.763 16.6711 116.472 16.6711C116.167 16.6711 115.896 16.7042 115.657 16.7704C115.419 16.8233 115.234 16.916 115.101 17.0484C114.982 17.1808 114.923 17.3794 114.923 17.6442C114.923 17.8295 114.976 17.9818 115.081 18.1009C115.187 18.2201 115.386 18.326 115.677 18.4187C115.982 18.4981 116.419 18.5775 116.988 18.657C117.809 18.7761 118.464 18.9416 118.954 19.1534C119.444 19.3653 119.795 19.6698 120.006 20.0669C120.231 20.4641 120.344 21.0003 120.344 21.6755C120.344 22.8802 119.987 23.7276 119.272 24.2174C118.57 24.694 117.564 24.9323 116.253 24.9323Z" fill="white"/>
</svg>
