<svg width="26" height="26" viewBox="0 0 26 26" fill="none" xmlns="http://www.w3.org/2000/svg">
<g id="vuesax/linear/health">
<g id="health">
<path id="Vector" d="M9.77508 23.645H16.0142C21.2135 23.645 23.2932 21.5653 23.2932 16.366V10.1269C23.2932 4.92761 21.2135 2.8479 16.0142 2.8479H9.77508C4.5758 2.8479 2.49609 4.92761 2.49609 10.1269V16.366C2.49609 21.5653 4.5758 23.645 9.77508 23.645Z" stroke="#0C0C0D" stroke-width="1.03986" stroke-linecap="round" stroke-linejoin="round"/>
<path id="Vector_2" d="M2.49609 13.973L8.73522 13.9522C9.51512 13.9522 10.3886 14.5449 10.6798 15.2728L11.8652 18.2676C12.1355 18.9435 12.5619 18.9435 12.8323 18.2676L15.2135 12.226C15.4423 11.6437 15.8686 11.6229 16.1598 12.174L17.2412 14.2225C17.5636 14.836 18.3955 15.3352 19.0818 15.3352H23.3036" stroke="#0C0C0D" stroke-width="1.03986" stroke-linecap="round" stroke-linejoin="round"/>
</g>
</g>
</svg>
