<svg width="888" height="956" viewBox="0 0 888 956" fill="none" xmlns="http://www.w3.org/2000/svg">
<rect x="18.6797" y="452.621" width="7.18447" height="7.18447" rx="3.59223" fill="#F1E6FF"/>
<rect x="18.6797" y="474.175" width="7.18447" height="7.18447" rx="3.59223" fill="#F1E6FF"/>
<rect y="462.68" width="7.18447" height="7.18447" rx="3.59223" fill="#F1E6FF"/>
<rect x="18.6797" y="517.281" width="7.18447" height="7.18447" rx="3.59223" fill="#F1E6FF"/>
<rect x="40.2324" y="344.854" width="7.18447" height="7.18447" rx="3.59223" fill="#F1E6FF"/>
<rect x="40.2324" y="366.408" width="7.18447" height="7.18447" rx="3.59223" fill="#F1E6FF"/>
<rect x="40.2324" y="452.621" width="7.18447" height="7.18447" rx="3.59223" fill="#F1E6FF"/>
<rect x="40.2324" y="474.175" width="7.18447" height="7.18447" rx="3.59223" fill="#F1E6FF"/>
<rect x="40.2324" y="517.281" width="7.18447" height="7.18447" rx="3.59223" fill="#F1E6FF"/>
<rect x="40.2324" y="538.835" width="7.18447" height="7.18447" rx="3.59223" fill="#F1E6FF"/>
<rect x="61.7861" y="323.301" width="7.18447" height="7.18447" rx="3.59223" fill="#F1E6FF"/>
<rect x="61.7861" y="344.854" width="7.18447" height="7.18447" rx="3.59223" fill="#F1E6FF"/>
<rect x="61.7861" y="366.408" width="7.18447" height="7.18447" rx="3.59223" fill="#F1E6FF"/>
<rect x="61.7861" y="387.961" width="7.18447" height="7.18447" rx="3.59223" fill="#F1E6FF"/>
<rect x="61.7861" y="452.621" width="7.18447" height="7.18447" rx="3.59223" fill="#F1E6FF"/>
<rect x="61.7861" y="474.175" width="7.18447" height="7.18447" rx="3.59223" fill="#F1E6FF"/>
<rect x="61.7861" y="495.728" width="7.18447" height="7.18447" rx="3.59223" fill="#F1E6FF"/>
<rect x="61.7861" y="517.281" width="7.18447" height="7.18447" rx="3.59223" fill="#F1E6FF"/>
<rect x="61.7861" y="538.835" width="7.18447" height="7.18447" rx="3.59223" fill="#F1E6FF"/>
<rect x="61.7861" y="560.388" width="7.18447" height="7.18447" rx="3.59223" fill="#F1E6FF"/>
<rect x="83.3398" y="323.301" width="7.18447" height="7.18447" rx="3.59223" fill="#F1E6FF"/>
<rect x="83.3398" y="344.854" width="7.18447" height="7.18447" rx="3.59223" fill="#F1E6FF"/>
<rect x="83.3398" y="366.408" width="7.18447" height="7.18447" rx="3.59223" fill="#F1E6FF"/>
<rect x="83.3398" y="387.961" width="7.18447" height="7.18447" rx="3.59223" fill="#F1E6FF"/>
<rect x="83.3398" y="409.515" width="7.18447" height="7.18447" rx="3.59223" fill="#F1E6FF"/>
<rect x="83.3398" y="431.068" width="7.18447" height="7.18447" rx="3.59223" fill="#F1E6FF"/>
<rect x="83.3398" y="452.621" width="7.18447" height="7.18447" rx="3.59223" fill="#F1E6FF"/>
<rect x="83.3398" y="474.175" width="7.18447" height="7.18447" rx="3.59223" fill="#F1E6FF"/>
<rect x="83.3398" y="495.728" width="7.18447" height="7.18447" rx="3.59223" fill="#F1E6FF"/>
<rect x="83.3398" y="517.281" width="7.18447" height="7.18447" rx="3.59223" fill="#F1E6FF"/>
<rect x="83.3398" y="538.835" width="7.18447" height="7.18447" rx="3.59223" fill="#F1E6FF"/>
<rect x="83.3398" y="560.388" width="7.18447" height="7.18447" rx="3.59223" fill="#F1E6FF"/>
<rect x="104.894" y="323.301" width="7.18447" height="7.18447" rx="3.59223" fill="#F1E6FF"/>
<rect x="104.894" y="344.854" width="7.18447" height="7.18447" rx="3.59223" fill="#F1E6FF"/>
<rect x="104.894" y="366.408" width="7.18447" height="7.18447" rx="3.59223" fill="#F1E6FF"/>
<rect x="104.894" y="387.961" width="7.18447" height="7.18447" rx="3.59223" fill="#F1E6FF"/>
<rect x="104.894" y="409.515" width="7.18447" height="7.18447" rx="3.59223" fill="#F1E6FF"/>
<rect x="104.894" y="431.068" width="7.18447" height="7.18447" rx="3.59223" fill="#F1E6FF"/>
<rect x="104.894" y="452.621" width="7.18447" height="7.18447" rx="3.59223" fill="#F1E6FF"/>
<rect x="104.894" y="474.175" width="7.18447" height="7.18447" rx="3.59223" fill="#F1E6FF"/>
<rect x="104.894" y="495.728" width="7.18447" height="7.18447" rx="3.59223" fill="#F1E6FF"/>
<rect x="104.894" y="517.281" width="7.18447" height="7.18447" rx="3.59223" fill="#F1E6FF"/>
<rect x="104.894" y="538.835" width="7.18447" height="7.18447" rx="3.59223" fill="#F1E6FF"/>
<rect x="104.894" y="560.388" width="7.18447" height="7.18447" rx="3.59223" fill="#F1E6FF"/>
<rect x="126.446" y="43.1068" width="7.18447" height="7.18447" rx="3.59223" fill="#F1E6FF"/>
<rect x="126.446" y="301.748" width="7.18447" height="7.18447" rx="3.59223" fill="#F1E6FF"/>
<rect x="126.446" y="323.301" width="7.18447" height="7.18447" rx="3.59223" fill="#F1E6FF"/>
<rect x="126.446" y="344.854" width="7.18447" height="7.18447" rx="3.59223" fill="#F1E6FF"/>
<rect x="126.446" y="366.408" width="7.18447" height="7.18447" rx="3.59223" fill="#F1E6FF"/>
<rect x="126.446" y="387.961" width="7.18447" height="7.18447" rx="3.59223" fill="#F1E6FF"/>
<rect x="126.446" y="409.515" width="7.18447" height="7.18447" rx="3.59223" fill="#F1E6FF"/>
<rect x="126.446" y="431.068" width="7.18447" height="7.18447" rx="3.59223" fill="#F1E6FF"/>
<rect x="126.446" y="452.621" width="7.18447" height="7.18447" rx="3.59223" fill="#F1E6FF"/>
<rect x="126.446" y="474.175" width="7.18447" height="7.18447" rx="3.59223" fill="#F1E6FF"/>
<rect x="126.446" y="495.728" width="7.18447" height="7.18447" rx="3.59223" fill="#F1E6FF"/>
<rect x="126.446" y="517.281" width="7.18447" height="7.18447" rx="3.59223" fill="#F1E6FF"/>
<rect x="148" y="21.5533" width="7.18447" height="7.18447" rx="3.59223" fill="#F1E6FF"/>
<rect x="148" y="43.1068" width="7.18447" height="7.18447" rx="3.59223" fill="#F1E6FF"/>
<rect x="148" y="258.641" width="7.18447" height="7.18447" rx="3.59223" fill="#F1E6FF"/>
<rect x="148" y="280.194" width="7.18447" height="7.18447" rx="3.59223" fill="#F1E6FF"/>
<rect x="148" y="301.748" width="7.18447" height="7.18447" rx="3.59223" fill="#F1E6FF"/>
<rect x="148" y="323.301" width="7.18447" height="7.18447" rx="3.59223" fill="#F1E6FF"/>
<rect x="148" y="344.854" width="7.18447" height="7.18447" rx="3.59223" fill="#F1E6FF"/>
<rect x="148" y="366.408" width="7.18447" height="7.18447" rx="3.59223" fill="#F1E6FF"/>
<rect x="148" y="387.961" width="7.18447" height="7.18447" rx="3.59223" fill="#F1E6FF"/>
<rect x="148" y="409.515" width="7.18447" height="7.18447" rx="3.59223" fill="#F1E6FF"/>
<rect x="148" y="431.068" width="7.18447" height="7.18447" rx="3.59223" fill="#F1E6FF"/>
<rect x="148" y="452.621" width="7.18447" height="7.18447" rx="3.59223" fill="#F1E6FF"/>
<rect x="148" y="474.175" width="7.18447" height="7.18447" rx="3.59223" fill="#F1E6FF"/>
<rect x="148" y="495.728" width="7.18447" height="7.18447" rx="3.59223" fill="#F1E6FF"/>
<rect x="148" y="517.281" width="7.18447" height="7.18447" rx="3.59223" fill="#F1E6FF"/>
<rect x="148" y="538.835" width="7.18447" height="7.18447" rx="3.59223" fill="#F1E6FF"/>
<rect x="148" y="560.388" width="7.18447" height="7.18447" rx="3.59223" fill="#F1E6FF"/>
<rect x="148" y="581.942" width="7.18447" height="7.18447" rx="3.59223" fill="#F1E6FF"/>
<rect x="148" y="603.495" width="7.18447" height="7.18447" rx="3.59223" fill="#F1E6FF"/>
<rect x="148" y="625.049" width="7.18447" height="7.18447" rx="3.59223" fill="#7000FF"/>
<rect x="148" y="646.602" width="7.18447" height="7.18447" rx="3.59223" fill="#7000FF"/>
<rect x="148" y="668.155" width="7.18447" height="7.18447" rx="3.59223" fill="#7000FF"/>
<rect x="169.554" width="7.18447" height="7.18447" rx="3.59223" fill="#F1E6FF"/>
<rect x="169.554" y="21.5533" width="7.18447" height="7.18447" rx="3.59223" fill="#F1E6FF"/>
<rect x="169.554" y="43.1068" width="7.18447" height="7.18447" rx="3.59223" fill="#F1E6FF"/>
<rect x="169.554" y="64.6602" width="7.18447" height="7.18447" rx="3.59223" fill="#F1E6FF"/>
<rect x="169.554" y="86.2136" width="7.18447" height="7.18447" rx="3.59223" fill="#F1E6FF"/>
<rect x="169.554" y="107.767" width="7.18447" height="7.18447" rx="3.59223" fill="#F1E6FF"/>
<rect x="169.554" y="129.32" width="7.18447" height="7.18447" rx="3.59223" fill="#F1E6FF"/>
<rect x="169.554" y="237.087" width="7.18447" height="7.18447" rx="3.59223" fill="#F1E6FF"/>
<rect x="169.554" y="258.641" width="7.18447" height="7.18447" rx="3.59223" fill="#F1E6FF"/>
<rect x="169.554" y="280.194" width="7.18447" height="7.18447" rx="3.59223" fill="#F1E6FF"/>
<rect x="169.554" y="301.748" width="7.18447" height="7.18447" rx="3.59223" fill="#F1E6FF"/>
<rect x="169.554" y="323.301" width="7.18447" height="7.18447" rx="3.59223" fill="#F1E6FF"/>
<rect x="169.554" y="344.854" width="7.18447" height="7.18447" rx="3.59223" fill="#F1E6FF"/>
<rect x="169.554" y="366.408" width="7.18447" height="7.18447" rx="3.59223" fill="#F1E6FF"/>
<rect x="169.554" y="387.961" width="7.18447" height="7.18447" rx="3.59223" fill="#F1E6FF"/>
<rect x="169.554" y="409.515" width="7.18447" height="7.18447" rx="3.59223" fill="#F1E6FF"/>
<rect x="169.554" y="431.068" width="7.18447" height="7.18447" rx="3.59223" fill="#F1E6FF"/>
<rect x="169.554" y="452.621" width="7.18447" height="7.18447" rx="3.59223" fill="#F1E6FF"/>
<rect x="169.554" y="474.175" width="7.18447" height="7.18447" rx="3.59223" fill="#F1E6FF"/>
<rect x="169.554" y="495.728" width="7.18447" height="7.18447" rx="3.59223" fill="#F1E6FF"/>
<rect x="169.554" y="517.281" width="7.18447" height="7.18447" rx="3.59223" fill="#F1E6FF"/>
<rect x="169.554" y="538.835" width="7.18447" height="7.18447" rx="3.59223" fill="#F1E6FF"/>
<rect x="169.554" y="560.388" width="7.18447" height="7.18447" rx="3.59223" fill="#F1E6FF"/>
<rect x="169.554" y="581.942" width="7.18447" height="7.18447" rx="3.59223" fill="#F1E6FF"/>
<rect x="169.554" y="603.495" width="7.18447" height="7.18447" rx="3.59223" fill="#7000FF"/>
<rect x="169.554" y="625.049" width="7.18447" height="7.18447" rx="3.59223" fill="#7000FF"/>
<rect x="169.554" y="646.602" width="7.18447" height="7.18447" rx="3.59223" fill="#7000FF"/>
<rect x="169.554" y="668.155" width="7.18447" height="7.18447" rx="3.59223" fill="#7000FF"/>
<rect x="169.554" y="689.709" width="7.18447" height="7.18447" rx="3.59223" fill="#F1E6FF"/>
<rect x="169.554" y="711.262" width="7.18447" height="7.18447" rx="3.59223" fill="#F1E6FF"/>
<rect x="169.554" y="732.815" width="7.18447" height="7.18447" rx="3.59223" fill="#F1E6FF"/>
<rect x="191.106" width="7.18447" height="7.18447" rx="3.59223" fill="#F1E6FF"/>
<rect x="191.106" y="21.5533" width="7.18447" height="7.18447" rx="3.59223" fill="#F1E6FF"/>
<rect x="191.106" y="43.1068" width="7.18447" height="7.18447" rx="3.59223" fill="#F1E6FF"/>
<rect x="191.106" y="64.6602" width="7.18447" height="7.18447" rx="3.59223" fill="#F1E6FF"/>
<rect x="191.106" y="86.2136" width="7.18447" height="7.18447" rx="3.59223" fill="#F1E6FF"/>
<rect x="191.106" y="107.767" width="7.18447" height="7.18447" rx="3.59223" fill="#F1E6FF"/>
<rect x="191.106" y="129.32" width="7.18447" height="7.18447" rx="3.59223" fill="#F1E6FF"/>
<rect x="191.106" y="150.874" width="7.18447" height="7.18447" rx="3.59223" fill="#F1E6FF"/>
<rect x="191.106" y="172.427" width="7.18447" height="7.18447" rx="3.59223" fill="#F1E6FF"/>
<rect x="191.106" y="193.981" width="7.18447" height="7.18447" rx="3.59223" fill="#F1E6FF"/>
<rect x="191.106" y="215.534" width="7.18447" height="7.18447" rx="3.59223" fill="#F1E6FF"/>
<rect x="191.106" y="237.087" width="7.18447" height="7.18447" rx="3.59223" fill="#F1E6FF"/>
<rect x="191.106" y="258.641" width="7.18447" height="7.18447" rx="3.59223" fill="#F1E6FF"/>
<rect x="191.106" y="280.194" width="7.18447" height="7.18447" rx="3.59223" fill="#F1E6FF"/>
<rect x="191.106" y="301.748" width="7.18447" height="7.18447" rx="3.59223" fill="#F1E6FF"/>
<rect x="191.106" y="323.301" width="7.18447" height="7.18447" rx="3.59223" fill="#F1E6FF"/>
<rect x="191.106" y="344.854" width="7.18447" height="7.18447" rx="3.59223" fill="#F1E6FF"/>
<rect x="191.106" y="366.408" width="7.18447" height="7.18447" rx="3.59223" fill="#F1E6FF"/>
<rect x="191.106" y="387.961" width="7.18447" height="7.18447" rx="3.59223" fill="#F1E6FF"/>
<rect x="191.106" y="409.515" width="7.18447" height="7.18447" rx="3.59223" fill="#F1E6FF"/>
<rect x="191.106" y="431.068" width="7.18447" height="7.18447" rx="3.59223" fill="#F1E6FF"/>
<rect x="191.106" y="452.621" width="7.18447" height="7.18447" rx="3.59223" fill="#F1E6FF"/>
<rect x="191.106" y="474.175" width="7.18447" height="7.18447" rx="3.59223" fill="#F1E6FF"/>
<rect x="191.106" y="495.728" width="7.18447" height="7.18447" rx="3.59223" fill="#F1E6FF"/>
<rect x="191.106" y="517.281" width="7.18447" height="7.18447" rx="3.59223" fill="#F1E6FF"/>
<rect x="191.106" y="538.835" width="7.18447" height="7.18447" rx="3.59223" fill="#F1E6FF"/>
<rect x="191.106" y="560.388" width="7.18447" height="7.18447" rx="3.59223" fill="#F1E6FF"/>
<rect x="191.106" y="581.942" width="7.18447" height="7.18447" rx="3.59223" fill="#F1E6FF"/>
<rect x="191.106" y="603.495" width="7.18447" height="7.18447" rx="3.59223" fill="#F1E6FF"/>
<rect x="191.106" y="625.049" width="7.18447" height="7.18447" rx="3.59223" fill="#7000FF"/>
<rect x="191.106" y="646.602" width="7.18447" height="7.18447" rx="3.59223" fill="#7000FF"/>
<rect x="191.106" y="668.155" width="7.18447" height="7.18447" rx="3.59223" fill="#F1E6FF"/>
<rect x="191.106" y="689.709" width="7.18447" height="7.18447" rx="3.59223" fill="#F1E6FF"/>
<rect x="191.106" y="711.262" width="7.18447" height="7.18447" rx="3.59223" fill="#F1E6FF"/>
<rect x="191.106" y="732.815" width="7.18447" height="7.18447" rx="3.59223" fill="#F1E6FF"/>
<rect x="191.106" y="754.369" width="7.18447" height="7.18447" rx="3.59223" fill="#F1E6FF"/>
<rect x="191.106" y="775.922" width="7.18447" height="7.18447" rx="3.59223" fill="#F1E6FF"/>
<rect x="191.106" y="797.476" width="7.18447" height="7.18447" rx="3.59223" fill="#F1E6FF"/>
<rect x="212.66" width="7.18447" height="7.18447" rx="3.59223" fill="#F1E6FF"/>
<rect x="212.66" y="21.5533" width="7.18447" height="7.18447" rx="3.59223" fill="#F1E6FF"/>
<rect x="212.66" y="43.1068" width="7.18447" height="7.18447" rx="3.59223" fill="#F1E6FF"/>
<rect x="212.66" y="64.6602" width="7.18447" height="7.18447" rx="3.59223" fill="#F1E6FF"/>
<rect x="212.66" y="86.2136" width="7.18447" height="7.18447" rx="3.59223" fill="#F1E6FF"/>
<rect x="212.66" y="107.767" width="7.18447" height="7.18447" rx="3.59223" fill="#F1E6FF"/>
<rect x="212.66" y="129.32" width="7.18447" height="7.18447" rx="3.59223" fill="#F1E6FF"/>
<rect x="212.66" y="150.874" width="7.18447" height="7.18447" rx="3.59223" fill="#F1E6FF"/>
<rect x="212.66" y="172.427" width="7.18447" height="7.18447" rx="3.59223" fill="#F1E6FF"/>
<rect x="212.66" y="193.981" width="7.18447" height="7.18447" rx="3.59223" fill="#F1E6FF"/>
<rect x="212.66" y="215.534" width="7.18447" height="7.18447" rx="3.59223" fill="#F1E6FF"/>
<rect x="212.66" y="237.087" width="7.18447" height="7.18447" rx="3.59223" fill="#F1E6FF"/>
<rect x="212.66" y="258.641" width="7.18447" height="7.18447" rx="3.59223" fill="#F1E6FF"/>
<rect x="212.66" y="280.194" width="7.18447" height="7.18447" rx="3.59223" fill="#F1E6FF"/>
<rect x="212.66" y="301.748" width="7.18447" height="7.18447" rx="3.59223" fill="#F1E6FF"/>
<rect x="212.66" y="323.301" width="7.18447" height="7.18447" rx="3.59223" fill="#F1E6FF"/>
<rect x="212.66" y="344.854" width="7.18447" height="7.18447" rx="3.59223" fill="#F1E6FF"/>
<rect x="212.66" y="366.408" width="7.18447" height="7.18447" rx="3.59223" fill="#F1E6FF"/>
<rect x="212.66" y="387.961" width="7.18447" height="7.18447" rx="3.59223" fill="#F1E6FF"/>
<rect x="212.66" y="409.515" width="7.18447" height="7.18447" rx="3.59223" fill="#F1E6FF"/>
<rect x="212.66" y="431.068" width="7.18447" height="7.18447" rx="3.59223" fill="#F1E6FF"/>
<rect x="212.66" y="452.621" width="7.18447" height="7.18447" rx="3.59223" fill="#F1E6FF"/>
<rect x="212.66" y="474.175" width="7.18447" height="7.18447" rx="3.59223" fill="#F1E6FF"/>
<rect x="212.66" y="495.728" width="7.18447" height="7.18447" rx="3.59223" fill="#F1E6FF"/>
<rect x="212.66" y="517.281" width="7.18447" height="7.18447" rx="3.59223" fill="#F1E6FF"/>
<rect x="212.66" y="538.835" width="7.18447" height="7.18447" rx="3.59223" fill="#F1E6FF"/>
<rect x="212.66" y="560.388" width="7.18447" height="7.18447" rx="3.59223" fill="#F1E6FF"/>
<rect x="212.66" y="581.942" width="7.18447" height="7.18447" rx="3.59223" fill="#F1E6FF"/>
<rect x="212.66" y="603.495" width="7.18447" height="7.18447" rx="3.59223" fill="#F1E6FF"/>
<rect x="212.66" y="625.049" width="7.18447" height="7.18447" rx="3.59223" fill="#F1E6FF"/>
<rect x="212.66" y="646.602" width="7.18447" height="7.18447" rx="3.59223" fill="#F1E6FF"/>
<rect x="212.66" y="668.155" width="7.18447" height="7.18447" rx="3.59223" fill="#F1E6FF"/>
<rect x="212.66" y="689.709" width="7.18447" height="7.18447" rx="3.59223" fill="#F1E6FF"/>
<rect x="212.66" y="711.262" width="7.18447" height="7.18447" rx="3.59223" fill="#F1E6FF"/>
<rect x="212.66" y="732.815" width="7.18447" height="7.18447" rx="3.59223" fill="#F1E6FF"/>
<rect x="212.66" y="754.369" width="7.18447" height="7.18447" rx="3.59223" fill="#F1E6FF"/>
<rect x="212.66" y="775.922" width="7.18447" height="7.18447" rx="3.59223" fill="#F1E6FF"/>
<rect x="212.66" y="797.476" width="7.18447" height="7.18447" rx="3.59223" fill="#F1E6FF"/>
<rect x="212.66" y="819.029" width="7.18447" height="7.18447" rx="3.59223" fill="#F1E6FF"/>
<rect x="212.66" y="840.583" width="7.18447" height="7.18447" rx="3.59223" fill="#F1E6FF"/>
<rect x="234.214" y="21.5533" width="7.18447" height="7.18447" rx="3.59223" fill="#F1E6FF"/>
<rect x="234.214" y="43.1068" width="7.18447" height="7.18447" rx="3.59223" fill="#F1E6FF"/>
<rect x="234.214" y="64.6602" width="7.18447" height="7.18447" rx="3.59223" fill="#F1E6FF"/>
<rect x="234.214" y="86.2136" width="7.18447" height="7.18447" rx="3.59223" fill="#F1E6FF"/>
<rect x="234.214" y="107.767" width="7.18447" height="7.18447" rx="3.59223" fill="#F1E6FF"/>
<rect x="234.214" y="129.32" width="7.18447" height="7.18447" rx="3.59223" fill="#F1E6FF"/>
<rect x="234.214" y="150.874" width="7.18447" height="7.18447" rx="3.59223" fill="#F1E6FF"/>
<rect x="234.214" y="172.427" width="7.18447" height="7.18447" rx="3.59223" fill="#F1E6FF"/>
<rect x="234.214" y="193.981" width="7.18447" height="7.18447" rx="3.59223" fill="#F1E6FF"/>
<rect x="234.214" y="215.534" width="7.18447" height="7.18447" rx="3.59223" fill="#F1E6FF"/>
<rect x="234.214" y="237.087" width="7.18447" height="7.18447" rx="3.59223" fill="#F1E6FF"/>
<rect x="234.214" y="258.641" width="7.18447" height="7.18447" rx="3.59223" fill="#F1E6FF"/>
<rect x="234.214" y="280.194" width="7.18447" height="7.18447" rx="3.59223" fill="#F1E6FF"/>
<rect x="234.214" y="301.748" width="7.18447" height="7.18447" rx="3.59223" fill="#F1E6FF"/>
<rect x="234.214" y="323.301" width="7.18447" height="7.18447" rx="3.59223" fill="#F1E6FF"/>
<rect x="234.214" y="344.854" width="7.18447" height="7.18447" rx="3.59223" fill="#F1E6FF"/>
<rect x="234.214" y="366.408" width="7.18447" height="7.18447" rx="3.59223" fill="#F1E6FF"/>
<rect x="234.214" y="387.961" width="7.18447" height="7.18447" rx="3.59223" fill="#F1E6FF"/>
<rect x="234.214" y="409.515" width="7.18447" height="7.18447" rx="3.59223" fill="#F1E6FF"/>
<rect x="234.214" y="431.068" width="7.18447" height="7.18447" rx="3.59223" fill="#F1E6FF"/>
<rect x="234.214" y="452.621" width="7.18447" height="7.18447" rx="3.59223" fill="#F1E6FF"/>
<rect x="234.214" y="474.175" width="7.18447" height="7.18447" rx="3.59223" fill="#F1E6FF"/>
<rect x="234.214" y="495.728" width="7.18447" height="7.18447" rx="3.59223" fill="#F1E6FF"/>
<rect x="234.214" y="517.281" width="7.18447" height="7.18447" rx="3.59223" fill="#F1E6FF"/>
<rect x="234.214" y="538.835" width="7.18447" height="7.18447" rx="3.59223" fill="#F1E6FF"/>
<rect x="234.214" y="560.388" width="7.18447" height="7.18447" rx="3.59223" fill="#F1E6FF"/>
<rect x="234.214" y="581.942" width="7.18447" height="7.18447" rx="3.59223" fill="#F1E6FF"/>
<rect x="234.214" y="603.495" width="7.18447" height="7.18447" rx="3.59223" fill="#F1E6FF"/>
<rect x="234.214" y="625.049" width="7.18447" height="7.18447" rx="3.59223" fill="#F1E6FF"/>
<rect x="234.214" y="646.602" width="7.18447" height="7.18447" rx="3.59223" fill="#F1E6FF"/>
<rect x="234.214" y="668.155" width="7.18447" height="7.18447" rx="3.59223" fill="#F1E6FF"/>
<rect x="234.214" y="689.709" width="7.18447" height="7.18447" rx="3.59223" fill="#F1E6FF"/>
<rect x="234.214" y="711.262" width="7.18447" height="7.18447" rx="3.59223" fill="#F1E6FF"/>
<rect x="234.214" y="732.815" width="7.18447" height="7.18447" rx="3.59223" fill="#F1E6FF"/>
<rect x="234.214" y="754.369" width="7.18447" height="7.18447" rx="3.59223" fill="#F1E6FF"/>
<rect x="234.214" y="775.922" width="7.18447" height="7.18447" rx="3.59223" fill="#F1E6FF"/>
<rect x="234.214" y="797.476" width="7.18447" height="7.18447" rx="3.59223" fill="#F1E6FF"/>
<rect x="234.214" y="819.029" width="7.18447" height="7.18447" rx="3.59223" fill="#F1E6FF"/>
<rect x="234.214" y="840.583" width="7.18447" height="7.18447" rx="3.59223" fill="#F1E6FF"/>
<rect x="234.214" y="862.136" width="7.18447" height="7.18447" rx="3.59223" fill="#F1E6FF"/>
<rect x="234.214" y="883.689" width="7.18447" height="7.18447" rx="3.59223" fill="#F1E6FF"/>
<rect x="255.767" y="21.5533" width="7.18447" height="7.18447" rx="3.59223" fill="#F1E6FF"/>
<rect x="255.767" y="43.1068" width="7.18447" height="7.18447" rx="3.59223" fill="#F1E6FF"/>
<rect x="255.767" y="64.6602" width="7.18447" height="7.18447" rx="3.59223" fill="#F1E6FF"/>
<rect x="255.767" y="86.2136" width="7.18447" height="7.18447" rx="3.59223" fill="#F1E6FF"/>
<rect x="255.767" y="107.767" width="7.18447" height="7.18447" rx="3.59223" fill="#F1E6FF"/>
<rect x="255.767" y="129.32" width="7.18447" height="7.18447" rx="3.59223" fill="#F1E6FF"/>
<rect x="255.767" y="150.874" width="7.18447" height="7.18447" rx="3.59223" fill="#F1E6FF"/>
<rect x="255.767" y="172.427" width="7.18447" height="7.18447" rx="3.59223" fill="#F1E6FF"/>
<rect x="255.767" y="193.981" width="7.18447" height="7.18447" rx="3.59223" fill="#F1E6FF"/>
<rect x="255.767" y="215.534" width="7.18447" height="7.18447" rx="3.59223" fill="#F1E6FF"/>
<rect x="255.767" y="237.087" width="7.18447" height="7.18447" rx="3.59223" fill="#F1E6FF"/>
<rect x="255.767" y="258.641" width="7.18447" height="7.18447" rx="3.59223" fill="#F1E6FF"/>
<rect x="255.767" y="280.194" width="7.18447" height="7.18447" rx="3.59223" fill="#F1E6FF"/>
<rect x="255.767" y="301.748" width="7.18447" height="7.18447" rx="3.59223" fill="#F1E6FF"/>
<rect x="255.767" y="323.301" width="7.18447" height="7.18447" rx="3.59223" fill="#F1E6FF"/>
<rect x="255.767" y="344.854" width="7.18447" height="7.18447" rx="3.59223" fill="#F1E6FF"/>
<rect x="255.767" y="366.408" width="7.18447" height="7.18447" rx="3.59223" fill="#F1E6FF"/>
<rect x="255.767" y="387.961" width="7.18447" height="7.18447" rx="3.59223" fill="#F1E6FF"/>
<rect x="255.767" y="409.515" width="7.18447" height="7.18447" rx="3.59223" fill="#F1E6FF"/>
<rect x="255.767" y="431.068" width="7.18447" height="7.18447" rx="3.59223" fill="#F1E6FF"/>
<rect x="255.767" y="452.621" width="7.18447" height="7.18447" rx="3.59223" fill="#F1E6FF"/>
<rect x="255.767" y="474.175" width="7.18447" height="7.18447" rx="3.59223" fill="#F1E6FF"/>
<rect x="255.767" y="495.728" width="7.18447" height="7.18447" rx="3.59223" fill="#F1E6FF"/>
<rect x="255.767" y="517.281" width="7.18447" height="7.18447" rx="3.59223" fill="#F1E6FF"/>
<rect x="255.767" y="538.835" width="7.18447" height="7.18447" rx="3.59223" fill="#F1E6FF"/>
<rect x="255.767" y="560.388" width="7.18447" height="7.18447" rx="3.59223" fill="#F1E6FF"/>
<rect x="255.767" y="581.942" width="7.18447" height="7.18447" rx="3.59223" fill="#F1E6FF"/>
<rect x="255.767" y="603.495" width="7.18447" height="7.18447" rx="3.59223" fill="#F1E6FF"/>
<rect x="255.767" y="625.049" width="7.18447" height="7.18447" rx="3.59223" fill="#F1E6FF"/>
<rect x="255.767" y="646.602" width="7.18447" height="7.18447" rx="3.59223" fill="#F1E6FF"/>
<rect x="255.767" y="668.155" width="7.18447" height="7.18447" rx="3.59223" fill="#F1E6FF"/>
<rect x="255.767" y="689.709" width="7.18447" height="7.18447" rx="3.59223" fill="#F1E6FF"/>
<rect x="255.767" y="711.262" width="7.18447" height="7.18447" rx="3.59223" fill="#F1E6FF"/>
<rect x="255.767" y="732.815" width="7.18447" height="7.18447" rx="3.59223" fill="#F1E6FF"/>
<rect x="255.767" y="754.369" width="7.18447" height="7.18447" rx="3.59223" fill="#F1E6FF"/>
<rect x="255.767" y="775.922" width="7.18447" height="7.18447" rx="3.59223" fill="#F1E6FF"/>
<rect x="255.767" y="797.476" width="7.18447" height="7.18447" rx="3.59223" fill="#F1E6FF"/>
<rect x="255.767" y="819.029" width="7.18447" height="7.18447" rx="3.59223" fill="#F1E6FF"/>
<rect x="255.767" y="840.583" width="7.18447" height="7.18447" rx="3.59223" fill="#F1E6FF"/>
<rect x="255.767" y="862.136" width="7.18447" height="7.18447" rx="3.59223" fill="#F1E6FF"/>
<rect x="255.767" y="883.689" width="7.18447" height="7.18447" rx="3.59223" fill="#F1E6FF"/>
<rect x="255.767" y="905.243" width="7.18447" height="7.18447" rx="3.59223" fill="#F1E6FF"/>
<rect x="255.767" y="926.796" width="7.18447" height="7.18447" rx="3.59223" fill="#F1E6FF"/>
<rect x="277.32" y="43.1068" width="7.18447" height="7.18447" rx="3.59223" fill="#F1E6FF"/>
<rect x="277.32" y="64.6602" width="7.18447" height="7.18447" rx="3.59223" fill="#F1E6FF"/>
<rect x="277.32" y="86.2136" width="7.18447" height="7.18447" rx="3.59223" fill="#F1E6FF"/>
<rect x="277.32" y="107.767" width="7.18447" height="7.18447" rx="3.59223" fill="#F1E6FF"/>
<rect x="277.32" y="129.32" width="7.18447" height="7.18447" rx="3.59223" fill="#F1E6FF"/>
<rect x="277.32" y="150.874" width="7.18447" height="7.18447" rx="3.59223" fill="#F1E6FF"/>
<rect x="277.32" y="172.427" width="7.18447" height="7.18447" rx="3.59223" fill="#F1E6FF"/>
<rect x="277.32" y="193.981" width="7.18447" height="7.18447" rx="3.59223" fill="#F1E6FF"/>
<rect x="277.32" y="215.534" width="7.18447" height="7.18447" rx="3.59223" fill="#F1E6FF"/>
<rect x="277.32" y="237.087" width="7.18447" height="7.18447" rx="3.59223" fill="#F1E6FF"/>
<rect x="277.32" y="258.641" width="7.18447" height="7.18447" rx="3.59223" fill="#F1E6FF"/>
<rect x="277.32" y="280.194" width="7.18447" height="7.18447" rx="3.59223" fill="#F1E6FF"/>
<rect x="277.32" y="301.748" width="7.18447" height="7.18447" rx="3.59223" fill="#F1E6FF"/>
<rect x="277.32" y="323.301" width="7.18447" height="7.18447" rx="3.59223" fill="#F1E6FF"/>
<rect x="277.32" y="344.854" width="7.18447" height="7.18447" rx="3.59223" fill="#F1E6FF"/>
<rect x="277.32" y="366.408" width="7.18447" height="7.18447" rx="3.59223" fill="#F1E6FF"/>
<rect x="277.32" y="387.961" width="7.18447" height="7.18447" rx="3.59223" fill="#F1E6FF"/>
<rect x="277.32" y="409.515" width="7.18447" height="7.18447" rx="3.59223" fill="#F1E6FF"/>
<rect x="277.32" y="431.068" width="7.18447" height="7.18447" rx="3.59223" fill="#F1E6FF"/>
<rect x="277.32" y="452.621" width="7.18447" height="7.18447" rx="3.59223" fill="#F1E6FF"/>
<rect x="277.32" y="474.175" width="7.18447" height="7.18447" rx="3.59223" fill="#F1E6FF"/>
<rect x="277.32" y="495.728" width="7.18447" height="7.18447" rx="3.59223" fill="#F1E6FF"/>
<rect x="277.32" y="517.281" width="7.18447" height="7.18447" rx="3.59223" fill="#F1E6FF"/>
<rect x="277.32" y="538.835" width="7.18447" height="7.18447" rx="3.59223" fill="#F1E6FF"/>
<rect x="277.32" y="560.388" width="7.18447" height="7.18447" rx="3.59223" fill="#F1E6FF"/>
<rect x="277.32" y="581.942" width="7.18447" height="7.18447" rx="3.59223" fill="#F1E6FF"/>
<rect x="277.32" y="603.495" width="7.18447" height="7.18447" rx="3.59223" fill="#F1E6FF"/>
<rect x="277.32" y="625.049" width="7.18447" height="7.18447" rx="3.59223" fill="#F1E6FF"/>
<rect x="277.32" y="646.602" width="7.18447" height="7.18447" rx="3.59223" fill="#F1E6FF"/>
<rect x="277.32" y="668.155" width="7.18447" height="7.18447" rx="3.59223" fill="#F1E6FF"/>
<rect x="277.32" y="689.709" width="7.18447" height="7.18447" rx="3.59223" fill="#F1E6FF"/>
<rect x="277.32" y="711.262" width="7.18447" height="7.18447" rx="3.59223" fill="#F1E6FF"/>
<rect x="277.32" y="732.815" width="7.18447" height="7.18447" rx="3.59223" fill="#F1E6FF"/>
<rect x="277.32" y="754.369" width="7.18447" height="7.18447" rx="3.59223" fill="#F1E6FF"/>
<rect x="277.32" y="775.922" width="7.18447" height="7.18447" rx="3.59223" fill="#F1E6FF"/>
<rect x="277.32" y="797.476" width="7.18447" height="7.18447" rx="3.59223" fill="#F1E6FF"/>
<rect x="277.32" y="819.029" width="7.18447" height="7.18447" rx="3.59223" fill="#F1E6FF"/>
<rect x="277.32" y="840.583" width="7.18447" height="7.18447" rx="3.59223" fill="#F1E6FF"/>
<rect x="277.32" y="862.136" width="7.18447" height="7.18447" rx="3.59223" fill="#F1E6FF"/>
<rect x="277.32" y="883.689" width="7.18447" height="7.18447" rx="3.59223" fill="#F1E6FF"/>
<rect x="277.32" y="905.243" width="7.18447" height="7.18447" rx="3.59223" fill="#F1E6FF"/>
<rect x="277.32" y="926.796" width="7.18447" height="7.18447" rx="3.59223" fill="#F1E6FF"/>
<rect x="277.32" y="948.35" width="7.18447" height="7.18447" rx="3.59223" fill="#F1E6FF"/>
<rect x="298.874" y="43.1068" width="7.18447" height="7.18447" rx="3.59223" fill="#F1E6FF"/>
<rect x="298.874" y="64.6602" width="7.18447" height="7.18447" rx="3.59223" fill="#F1E6FF"/>
<rect x="298.874" y="86.2136" width="7.18447" height="7.18447" rx="3.59223" fill="#F1E6FF"/>
<rect x="298.874" y="107.767" width="7.18447" height="7.18447" rx="3.59223" fill="#F1E6FF"/>
<rect x="298.874" y="129.32" width="7.18447" height="7.18447" rx="3.59223" fill="#F1E6FF"/>
<rect x="298.874" y="150.874" width="7.18447" height="7.18447" rx="3.59223" fill="#F1E6FF"/>
<rect x="298.874" y="172.427" width="7.18447" height="7.18447" rx="3.59223" fill="#F1E6FF"/>
<rect x="298.874" y="193.981" width="7.18447" height="7.18447" rx="3.59223" fill="#F1E6FF"/>
<rect x="298.874" y="215.534" width="7.18447" height="7.18447" rx="3.59223" fill="#F1E6FF"/>
<rect x="298.874" y="237.087" width="7.18447" height="7.18447" rx="3.59223" fill="#F1E6FF"/>
<rect x="298.874" y="258.641" width="7.18447" height="7.18447" rx="3.59223" fill="#F1E6FF"/>
<rect x="298.874" y="280.194" width="7.18447" height="7.18447" rx="3.59223" fill="#F1E6FF"/>
<rect x="298.874" y="301.748" width="7.18447" height="7.18447" rx="3.59223" fill="#F1E6FF"/>
<rect x="298.874" y="323.301" width="7.18447" height="7.18447" rx="3.59223" fill="#F1E6FF"/>
<rect x="298.874" y="344.854" width="7.18447" height="7.18447" rx="3.59223" fill="#F1E6FF"/>
<rect x="298.874" y="366.408" width="7.18447" height="7.18447" rx="3.59223" fill="#F1E6FF"/>
<rect x="298.874" y="387.961" width="7.18447" height="7.18447" rx="3.59223" fill="#F1E6FF"/>
<rect x="298.874" y="409.515" width="7.18447" height="7.18447" rx="3.59223" fill="#F1E6FF"/>
<rect x="298.874" y="431.068" width="7.18447" height="7.18447" rx="3.59223" fill="#F1E6FF"/>
<rect x="298.874" y="452.621" width="7.18447" height="7.18447" rx="3.59223" fill="#F1E6FF"/>
<rect x="298.874" y="474.175" width="7.18447" height="7.18447" rx="3.59223" fill="#F1E6FF"/>
<rect x="298.874" y="495.728" width="7.18447" height="7.18447" rx="3.59223" fill="#F1E6FF"/>
<rect x="298.874" y="517.281" width="7.18447" height="7.18447" rx="3.59223" fill="#F1E6FF"/>
<rect x="298.874" y="538.835" width="7.18447" height="7.18447" rx="3.59223" fill="#F1E6FF"/>
<rect x="298.874" y="560.388" width="7.18447" height="7.18447" rx="3.59223" fill="#F1E6FF"/>
<rect x="298.874" y="581.942" width="7.18447" height="7.18447" rx="3.59223" fill="#F1E6FF"/>
<rect x="298.874" y="603.495" width="7.18447" height="7.18447" rx="3.59223" fill="#F1E6FF"/>
<rect x="298.874" y="625.049" width="7.18447" height="7.18447" rx="3.59223" fill="#F1E6FF"/>
<rect x="298.874" y="646.602" width="7.18447" height="7.18447" rx="3.59223" fill="#F1E6FF"/>
<rect x="298.874" y="668.155" width="7.18447" height="7.18447" rx="3.59223" fill="#F1E6FF"/>
<rect x="298.874" y="689.709" width="7.18447" height="7.18447" rx="3.59223" fill="#F1E6FF"/>
<rect x="298.874" y="711.262" width="7.18447" height="7.18447" rx="3.59223" fill="#F1E6FF"/>
<rect x="298.874" y="732.815" width="7.18447" height="7.18447" rx="3.59223" fill="#F1E6FF"/>
<rect x="298.874" y="754.369" width="7.18447" height="7.18447" rx="3.59223" fill="#F1E6FF"/>
<rect x="298.874" y="775.922" width="7.18447" height="7.18447" rx="3.59223" fill="#F1E6FF"/>
<rect x="298.874" y="797.476" width="7.18447" height="7.18447" rx="3.59223" fill="#F1E6FF"/>
<rect x="298.874" y="819.029" width="7.18447" height="7.18447" rx="3.59223" fill="#F1E6FF"/>
<rect x="298.874" y="840.583" width="7.18447" height="7.18447" rx="3.59223" fill="#F1E6FF"/>
<rect x="298.874" y="862.136" width="7.18447" height="7.18447" rx="3.59223" fill="#F1E6FF"/>
<rect x="298.874" y="883.689" width="7.18447" height="7.18447" rx="3.59223" fill="#F1E6FF"/>
<rect x="298.874" y="905.243" width="7.18447" height="7.18447" rx="3.59223" fill="#F1E6FF"/>
<rect x="298.874" y="926.796" width="7.18447" height="7.18447" rx="3.59223" fill="#F1E6FF"/>
<rect x="320.428" y="43.1068" width="7.18447" height="7.18447" rx="3.59223" fill="#F1E6FF"/>
<rect x="320.428" y="64.6602" width="7.18447" height="7.18447" rx="3.59223" fill="#F1E6FF"/>
<rect x="320.428" y="86.2136" width="7.18447" height="7.18447" rx="3.59223" fill="#F1E6FF"/>
<rect x="320.428" y="107.767" width="7.18447" height="7.18447" rx="3.59223" fill="#F1E6FF"/>
<rect x="320.428" y="129.32" width="7.18447" height="7.18447" rx="3.59223" fill="#F1E6FF"/>
<rect x="320.428" y="150.874" width="7.18447" height="7.18447" rx="3.59223" fill="#F1E6FF"/>
<rect x="320.428" y="172.427" width="7.18447" height="7.18447" rx="3.59223" fill="#F1E6FF"/>
<rect x="320.428" y="193.981" width="7.18447" height="7.18447" rx="3.59223" fill="#F1E6FF"/>
<rect x="320.428" y="215.534" width="7.18447" height="7.18447" rx="3.59223" fill="#F1E6FF"/>
<rect x="320.428" y="237.087" width="7.18447" height="7.18447" rx="3.59223" fill="#F1E6FF"/>
<rect x="320.428" y="258.641" width="7.18447" height="7.18447" rx="3.59223" fill="#F1E6FF"/>
<rect x="320.428" y="280.194" width="7.18447" height="7.18447" rx="3.59223" fill="#F1E6FF"/>
<rect x="320.428" y="301.748" width="7.18447" height="7.18447" rx="3.59223" fill="#F1E6FF"/>
<rect x="320.428" y="323.301" width="7.18447" height="7.18447" rx="3.59223" fill="#F1E6FF"/>
<rect x="320.428" y="344.854" width="7.18447" height="7.18447" rx="3.59223" fill="#F1E6FF"/>
<rect x="320.428" y="366.408" width="7.18447" height="7.18447" rx="3.59223" fill="#F1E6FF"/>
<rect x="320.428" y="387.961" width="7.18447" height="7.18447" rx="3.59223" fill="#F1E6FF"/>
<rect x="320.428" y="409.515" width="7.18447" height="7.18447" rx="3.59223" fill="#F1E6FF"/>
<rect x="320.428" y="431.068" width="7.18447" height="7.18447" rx="3.59223" fill="#F1E6FF"/>
<rect x="320.428" y="452.621" width="7.18447" height="7.18447" rx="3.59223" fill="#F1E6FF"/>
<rect x="320.428" y="474.175" width="7.18447" height="7.18447" rx="3.59223" fill="#F1E6FF"/>
<rect x="320.428" y="495.728" width="7.18447" height="7.18447" rx="3.59223" fill="#F1E6FF"/>
<rect x="320.428" y="517.281" width="7.18447" height="7.18447" rx="3.59223" fill="#F1E6FF"/>
<rect x="320.428" y="538.835" width="7.18447" height="7.18447" rx="3.59223" fill="#F1E6FF"/>
<rect x="320.428" y="560.388" width="7.18447" height="7.18447" rx="3.59223" fill="#F1E6FF"/>
<rect x="320.428" y="581.942" width="7.18447" height="7.18447" rx="3.59223" fill="#F1E6FF"/>
<rect x="320.428" y="603.495" width="7.18447" height="7.18447" rx="3.59223" fill="#F1E6FF"/>
<rect x="320.428" y="625.049" width="7.18447" height="7.18447" rx="3.59223" fill="#F1E6FF"/>
<rect x="320.428" y="646.602" width="7.18447" height="7.18447" rx="3.59223" fill="#F1E6FF"/>
<rect x="320.428" y="668.155" width="7.18447" height="7.18447" rx="3.59223" fill="#F1E6FF"/>
<rect x="320.428" y="689.709" width="7.18447" height="7.18447" rx="3.59223" fill="#F1E6FF"/>
<rect x="320.428" y="711.262" width="7.18447" height="7.18447" rx="3.59223" fill="#F1E6FF"/>
<rect x="320.428" y="732.815" width="7.18447" height="7.18447" rx="3.59223" fill="#F1E6FF"/>
<rect x="320.428" y="754.369" width="7.18447" height="7.18447" rx="3.59223" fill="#F1E6FF"/>
<rect x="320.428" y="775.922" width="7.18447" height="7.18447" rx="3.59223" fill="#F1E6FF"/>
<rect x="320.428" y="797.476" width="7.18447" height="7.18447" rx="3.59223" fill="#F1E6FF"/>
<rect x="320.428" y="819.029" width="7.18447" height="7.18447" rx="3.59223" fill="#F1E6FF"/>
<rect x="320.428" y="840.583" width="7.18447" height="7.18447" rx="3.59223" fill="#F1E6FF"/>
<rect x="320.428" y="862.136" width="7.18447" height="7.18447" rx="3.59223" fill="#F1E6FF"/>
<rect x="320.428" y="883.689" width="7.18447" height="7.18447" rx="3.59223" fill="#F1E6FF"/>
<rect x="320.428" y="905.243" width="7.18447" height="7.18447" rx="3.59223" fill="#F1E6FF"/>
<rect x="341.98" y="43.1068" width="7.18447" height="7.18447" rx="3.59223" fill="#F1E6FF"/>
<rect x="341.98" y="64.6602" width="7.18447" height="7.18447" rx="3.59223" fill="#F1E6FF"/>
<rect x="341.98" y="86.2136" width="7.18447" height="7.18447" rx="3.59223" fill="#F1E6FF"/>
<rect x="341.98" y="107.767" width="7.18447" height="7.18447" rx="3.59223" fill="#F1E6FF"/>
<rect x="341.98" y="129.32" width="7.18447" height="7.18447" rx="3.59223" fill="#F1E6FF"/>
<rect x="341.98" y="150.874" width="7.18447" height="7.18447" rx="3.59223" fill="#F1E6FF"/>
<rect x="341.98" y="215.534" width="7.18447" height="7.18447" rx="3.59223" fill="#F1E6FF"/>
<rect x="341.98" y="237.087" width="7.18447" height="7.18447" rx="3.59223" fill="#F1E6FF"/>
<rect x="341.98" y="258.641" width="7.18447" height="7.18447" rx="3.59223" fill="#F1E6FF"/>
<rect x="341.98" y="280.194" width="7.18447" height="7.18447" rx="3.59223" fill="#F1E6FF"/>
<rect x="341.98" y="301.748" width="7.18447" height="7.18447" rx="3.59223" fill="#F1E6FF"/>
<rect x="341.98" y="323.301" width="7.18447" height="7.18447" rx="3.59223" fill="#F1E6FF"/>
<rect x="341.98" y="344.854" width="7.18447" height="7.18447" rx="3.59223" fill="#F1E6FF"/>
<rect x="341.98" y="366.408" width="7.18447" height="7.18447" rx="3.59223" fill="#F1E6FF"/>
<rect x="341.98" y="387.961" width="7.18447" height="7.18447" rx="3.59223" fill="#F1E6FF"/>
<rect x="341.98" y="409.515" width="7.18447" height="7.18447" rx="3.59223" fill="#F1E6FF"/>
<rect x="341.98" y="431.068" width="7.18447" height="7.18447" rx="3.59223" fill="#F1E6FF"/>
<rect x="341.98" y="452.621" width="7.18447" height="7.18447" rx="3.59223" fill="#F1E6FF"/>
<rect x="341.98" y="474.175" width="7.18447" height="7.18447" rx="3.59223" fill="#F1E6FF"/>
<rect x="341.98" y="495.728" width="7.18447" height="7.18447" rx="3.59223" fill="#F1E6FF"/>
<rect x="341.98" y="517.281" width="7.18447" height="7.18447" rx="3.59223" fill="#F1E6FF"/>
<rect x="341.98" y="538.835" width="7.18447" height="7.18447" rx="3.59223" fill="#F1E6FF"/>
<rect x="341.98" y="560.388" width="7.18447" height="7.18447" rx="3.59223" fill="#F1E6FF"/>
<rect x="341.98" y="581.942" width="7.18447" height="7.18447" rx="3.59223" fill="#F1E6FF"/>
<rect x="341.98" y="603.495" width="7.18447" height="7.18447" rx="3.59223" fill="#F1E6FF"/>
<rect x="341.98" y="625.049" width="7.18447" height="7.18447" rx="3.59223" fill="#F1E6FF"/>
<rect x="341.98" y="646.602" width="7.18447" height="7.18447" rx="3.59223" fill="#F1E6FF"/>
<rect x="341.98" y="668.155" width="7.18447" height="7.18447" rx="3.59223" fill="#F1E6FF"/>
<rect x="341.98" y="689.709" width="7.18447" height="7.18447" rx="3.59223" fill="#F1E6FF"/>
<rect x="341.98" y="711.262" width="7.18447" height="7.18447" rx="3.59223" fill="#F1E6FF"/>
<rect x="341.98" y="732.815" width="7.18447" height="7.18447" rx="3.59223" fill="#F1E6FF"/>
<rect x="341.98" y="754.369" width="7.18447" height="7.18447" rx="3.59223" fill="#F1E6FF"/>
<rect x="341.98" y="775.922" width="7.18447" height="7.18447" rx="3.59223" fill="#F1E6FF"/>
<rect x="341.98" y="797.476" width="7.18447" height="7.18447" rx="3.59223" fill="#F1E6FF"/>
<rect x="341.98" y="819.029" width="7.18447" height="7.18447" rx="3.59223" fill="#F1E6FF"/>
<rect x="341.98" y="840.583" width="7.18447" height="7.18447" rx="3.59223" fill="#F1E6FF"/>
<rect x="341.98" y="862.136" width="7.18447" height="7.18447" rx="3.59223" fill="#F1E6FF"/>
<rect x="341.98" y="883.689" width="7.18447" height="7.18447" rx="3.59223" fill="#F1E6FF"/>
<rect x="363.534" y="43.1068" width="7.18447" height="7.18447" rx="3.59223" fill="#F1E6FF"/>
<rect x="363.534" y="64.6602" width="7.18447" height="7.18447" rx="3.59223" fill="#F1E6FF"/>
<rect x="363.534" y="86.2136" width="7.18447" height="7.18447" rx="3.59223" fill="#F1E6FF"/>
<rect x="363.534" y="215.534" width="7.18447" height="7.18447" rx="3.59223" fill="#F1E6FF"/>
<rect x="363.534" y="237.087" width="7.18447" height="7.18447" rx="3.59223" fill="#F1E6FF"/>
<rect x="363.534" y="258.641" width="7.18447" height="7.18447" rx="3.59223" fill="#F1E6FF"/>
<rect x="363.534" y="280.194" width="7.18447" height="7.18447" rx="3.59223" fill="#F1E6FF"/>
<rect x="363.534" y="301.748" width="7.18447" height="7.18447" rx="3.59223" fill="#F1E6FF"/>
<rect x="363.534" y="323.301" width="7.18447" height="7.18447" rx="3.59223" fill="#F1E6FF"/>
<rect x="363.534" y="344.854" width="7.18447" height="7.18447" rx="3.59223" fill="#F1E6FF"/>
<rect x="363.534" y="366.408" width="7.18447" height="7.18447" rx="3.59223" fill="#F1E6FF"/>
<rect x="363.534" y="387.961" width="7.18447" height="7.18447" rx="3.59223" fill="#F1E6FF"/>
<rect x="363.534" y="409.515" width="7.18447" height="7.18447" rx="3.59223" fill="#F1E6FF"/>
<rect x="363.534" y="431.068" width="7.18447" height="7.18447" rx="3.59223" fill="#F1E6FF"/>
<rect x="363.534" y="452.621" width="7.18447" height="7.18447" rx="3.59223" fill="#F1E6FF"/>
<rect x="363.534" y="474.175" width="7.18447" height="7.18447" rx="3.59223" fill="#F1E6FF"/>
<rect x="363.534" y="495.728" width="7.18447" height="7.18447" rx="3.59223" fill="#F1E6FF"/>
<rect x="363.534" y="517.281" width="7.18447" height="7.18447" rx="3.59223" fill="#F1E6FF"/>
<rect x="363.534" y="538.835" width="7.18447" height="7.18447" rx="3.59223" fill="#F1E6FF"/>
<rect x="363.534" y="560.388" width="7.18447" height="7.18447" rx="3.59223" fill="#F1E6FF"/>
<rect x="363.534" y="581.942" width="7.18447" height="7.18447" rx="3.59223" fill="#F1E6FF"/>
<rect x="363.534" y="603.495" width="7.18447" height="7.18447" rx="3.59223" fill="#F1E6FF"/>
<rect x="363.534" y="625.049" width="7.18447" height="7.18447" rx="3.59223" fill="#F1E6FF"/>
<rect x="363.534" y="646.602" width="7.18447" height="7.18447" rx="3.59223" fill="#F1E6FF"/>
<rect x="363.534" y="668.155" width="7.18447" height="7.18447" rx="3.59223" fill="#F1E6FF"/>
<rect x="363.534" y="689.709" width="7.18447" height="7.18447" rx="3.59223" fill="#F1E6FF"/>
<rect x="363.534" y="711.262" width="7.18447" height="7.18447" rx="3.59223" fill="#F1E6FF"/>
<rect x="363.534" y="732.815" width="7.18447" height="7.18447" rx="3.59223" fill="#F1E6FF"/>
<rect x="363.534" y="754.369" width="7.18447" height="7.18447" rx="3.59223" fill="#F1E6FF"/>
<rect x="363.534" y="775.922" width="7.18447" height="7.18447" rx="3.59223" fill="#F1E6FF"/>
<rect x="363.534" y="797.476" width="7.18447" height="7.18447" rx="3.59223" fill="#F1E6FF"/>
<rect x="363.534" y="819.029" width="7.18447" height="7.18447" rx="3.59223" fill="#F1E6FF"/>
<rect x="385.088" y="237.087" width="7.18447" height="7.18447" rx="3.59223" fill="#F1E6FF"/>
<rect x="385.088" y="301.748" width="7.18447" height="7.18447" rx="3.59223" fill="#F1E6FF"/>
<rect x="385.088" y="323.301" width="7.18447" height="7.18447" rx="3.59223" fill="#F1E6FF"/>
<rect x="385.088" y="344.854" width="7.18447" height="7.18447" rx="3.59223" fill="#F1E6FF"/>
<rect x="385.088" y="366.408" width="7.18447" height="7.18447" rx="3.59223" fill="#F1E6FF"/>
<rect x="385.088" y="387.961" width="7.18447" height="7.18447" rx="3.59223" fill="#F1E6FF"/>
<rect x="385.088" y="409.515" width="7.18447" height="7.18447" rx="3.59223" fill="#F1E6FF"/>
<rect x="385.088" y="431.068" width="7.18447" height="7.18447" rx="3.59223" fill="#F1E6FF"/>
<rect x="385.088" y="452.621" width="7.18447" height="7.18447" rx="3.59223" fill="#F1E6FF"/>
<rect x="385.088" y="474.175" width="7.18447" height="7.18447" rx="3.59223" fill="#F1E6FF"/>
<rect x="385.088" y="495.728" width="7.18447" height="7.18447" rx="3.59223" fill="#F1E6FF"/>
<rect x="385.088" y="517.281" width="7.18447" height="7.18447" rx="3.59223" fill="#F1E6FF"/>
<rect x="385.088" y="538.835" width="7.18447" height="7.18447" rx="3.59223" fill="#F1E6FF"/>
<rect x="385.088" y="560.388" width="7.18447" height="7.18447" rx="3.59223" fill="#F1E6FF"/>
<rect x="385.088" y="581.942" width="7.18447" height="7.18447" rx="3.59223" fill="#F1E6FF"/>
<rect x="385.088" y="603.495" width="7.18447" height="7.18447" rx="3.59223" fill="#F1E6FF"/>
<rect x="385.088" y="625.049" width="7.18447" height="7.18447" rx="3.59223" fill="#F1E6FF"/>
<rect x="385.088" y="646.602" width="7.18447" height="7.18447" rx="3.59223" fill="#F1E6FF"/>
<rect x="385.088" y="668.155" width="7.18447" height="7.18447" rx="3.59223" fill="#F1E6FF"/>
<rect x="385.088" y="689.709" width="7.18447" height="7.18447" rx="3.59223" fill="#F1E6FF"/>
<rect x="385.088" y="711.262" width="7.18447" height="7.18447" rx="3.59223" fill="#F1E6FF"/>
<rect x="406.641" y="323.301" width="7.18447" height="7.18447" rx="3.59223" fill="#F1E6FF"/>
<rect x="406.641" y="344.854" width="7.18447" height="7.18447" rx="3.59223" fill="#F1E6FF"/>
<rect x="406.641" y="366.408" width="7.18447" height="7.18447" rx="3.59223" fill="#F1E6FF"/>
<rect x="406.641" y="387.961" width="7.18447" height="7.18447" rx="3.59223" fill="#F1E6FF"/>
<rect x="406.641" y="409.515" width="7.18447" height="7.18447" rx="3.59223" fill="#F1E6FF"/>
<rect x="406.641" y="431.068" width="7.18447" height="7.18447" rx="3.59223" fill="#F1E6FF"/>
<rect x="406.641" y="452.621" width="7.18447" height="7.18447" rx="3.59223" fill="#F1E6FF"/>
<rect x="406.641" y="474.175" width="7.18447" height="7.18447" rx="3.59223" fill="#F1E6FF"/>
<rect x="406.641" y="495.728" width="7.18447" height="7.18447" rx="3.59223" fill="#F1E6FF"/>
<rect x="406.641" y="517.281" width="7.18447" height="7.18447" rx="3.59223" fill="#F1E6FF"/>
<rect x="406.641" y="538.835" width="7.18447" height="7.18447" rx="3.59223" fill="#F1E6FF"/>
<rect x="406.641" y="560.388" width="7.18447" height="7.18447" rx="3.59223" fill="#F1E6FF"/>
<rect x="406.641" y="581.942" width="7.18447" height="7.18447" rx="3.59223" fill="#F1E6FF"/>
<rect x="406.641" y="603.495" width="7.18447" height="7.18447" rx="3.59223" fill="#F1E6FF"/>
<rect x="406.641" y="625.049" width="7.18447" height="7.18447" rx="3.59223" fill="#F1E6FF"/>
<rect x="406.641" y="646.602" width="7.18447" height="7.18447" rx="3.59223" fill="#F1E6FF"/>
<rect x="406.641" y="668.155" width="7.18447" height="7.18447" rx="3.59223" fill="#F1E6FF"/>
<rect x="406.641" y="689.709" width="7.18447" height="7.18447" rx="3.59223" fill="#F1E6FF"/>
<rect x="428.194" y="323.301" width="7.18447" height="7.18447" rx="3.59223" fill="#F1E6FF"/>
<rect x="428.194" y="344.854" width="7.18447" height="7.18447" rx="3.59223" fill="#F1E6FF"/>
<rect x="428.194" y="366.408" width="7.18447" height="7.18447" rx="3.59223" fill="#F1E6FF"/>
<rect x="428.194" y="387.961" width="7.18447" height="7.18447" rx="3.59223" fill="#F1E6FF"/>
<rect x="428.194" y="409.515" width="7.18447" height="7.18447" rx="3.59223" fill="#F1E6FF"/>
<rect x="428.194" y="431.068" width="7.18447" height="7.18447" rx="3.59223" fill="#F1E6FF"/>
<rect x="428.194" y="452.621" width="7.18447" height="7.18447" rx="3.59223" fill="#F1E6FF"/>
<rect x="428.194" y="474.175" width="7.18447" height="7.18447" rx="3.59223" fill="#F1E6FF"/>
<rect x="428.194" y="495.728" width="7.18447" height="7.18447" rx="3.59223" fill="#F1E6FF"/>
<rect x="428.194" y="517.281" width="7.18447" height="7.18447" rx="3.59223" fill="#F1E6FF"/>
<rect x="428.194" y="538.835" width="7.18447" height="7.18447" rx="3.59223" fill="#F1E6FF"/>
<rect x="428.194" y="560.388" width="7.18447" height="7.18447" rx="3.59223" fill="#F1E6FF"/>
<rect x="428.194" y="581.942" width="7.18447" height="7.18447" rx="3.59223" fill="#F1E6FF"/>
<rect x="428.194" y="603.495" width="7.18447" height="7.18447" rx="3.59223" fill="#F1E6FF"/>
<rect x="428.194" y="625.049" width="7.18447" height="7.18447" rx="3.59223" fill="#F1E6FF"/>
<rect x="428.194" y="646.602" width="7.18447" height="7.18447" rx="3.59223" fill="#F1E6FF"/>
<rect x="428.194" y="668.155" width="7.18447" height="7.18447" rx="3.59223" fill="#F1E6FF"/>
<rect x="428.194" y="689.709" width="7.18447" height="7.18447" rx="3.59223" fill="#F1E6FF"/>
<rect x="449.747" y="323.301" width="7.18447" height="7.18447" rx="3.59223" fill="#F1E6FF"/>
<rect x="449.747" y="344.854" width="7.18447" height="7.18447" rx="3.59223" fill="#F1E6FF"/>
<rect x="449.747" y="366.408" width="7.18447" height="7.18447" rx="3.59223" fill="#F1E6FF"/>
<rect x="449.747" y="387.961" width="7.18447" height="7.18447" rx="3.59223" fill="#F1E6FF"/>
<rect x="449.747" y="409.515" width="7.18447" height="7.18447" rx="3.59223" fill="#F1E6FF"/>
<rect x="449.747" y="431.068" width="7.18447" height="7.18447" rx="3.59223" fill="#F1E6FF"/>
<rect x="449.747" y="452.621" width="7.18447" height="7.18447" rx="3.59223" fill="#F1E6FF"/>
<rect x="449.747" y="474.175" width="7.18447" height="7.18447" rx="3.59223" fill="#F1E6FF"/>
<rect x="449.747" y="495.728" width="7.18447" height="7.18447" rx="3.59223" fill="#F1E6FF"/>
<rect x="449.747" y="517.281" width="7.18447" height="7.18447" rx="3.59223" fill="#F1E6FF"/>
<rect x="449.747" y="538.835" width="7.18447" height="7.18447" rx="3.59223" fill="#F1E6FF"/>
<rect x="449.747" y="560.388" width="7.18447" height="7.18447" rx="3.59223" fill="#F1E6FF"/>
<rect x="449.747" y="581.942" width="7.18447" height="7.18447" rx="3.59223" fill="#F1E6FF"/>
<rect x="449.747" y="603.495" width="7.18447" height="7.18447" rx="3.59223" fill="#F1E6FF"/>
<rect x="449.747" y="625.049" width="7.18447" height="7.18447" rx="3.59223" fill="#F1E6FF"/>
<rect x="449.747" y="646.602" width="7.18447" height="7.18447" rx="3.59223" fill="#F1E6FF"/>
<rect x="449.747" y="668.155" width="7.18447" height="7.18447" rx="3.59223" fill="#F1E6FF"/>
<rect x="471.301" y="344.854" width="7.18447" height="7.18447" rx="3.59223" fill="#F1E6FF"/>
<rect x="471.301" y="366.408" width="7.18447" height="7.18447" rx="3.59223" fill="#F1E6FF"/>
<rect x="471.301" y="387.961" width="7.18447" height="7.18447" rx="3.59223" fill="#F1E6FF"/>
<rect x="471.301" y="409.515" width="7.18447" height="7.18447" rx="3.59223" fill="#F1E6FF"/>
<rect x="471.301" y="431.068" width="7.18447" height="7.18447" rx="3.59223" fill="#F1E6FF"/>
<rect x="471.301" y="452.621" width="7.18447" height="7.18447" rx="3.59223" fill="#F1E6FF"/>
<rect x="471.301" y="474.175" width="7.18447" height="7.18447" rx="3.59223" fill="#F1E6FF"/>
<rect x="471.301" y="495.728" width="7.18447" height="7.18447" rx="3.59223" fill="#F1E6FF"/>
<rect x="471.301" y="517.281" width="7.18447" height="7.18447" rx="3.59223" fill="#F1E6FF"/>
<rect x="471.301" y="538.835" width="7.18447" height="7.18447" rx="3.59223" fill="#F1E6FF"/>
<rect x="471.301" y="560.388" width="7.18447" height="7.18447" rx="3.59223" fill="#F1E6FF"/>
<rect x="471.301" y="581.942" width="7.18447" height="7.18447" rx="3.59223" fill="#F1E6FF"/>
<rect x="471.301" y="603.495" width="7.18447" height="7.18447" rx="3.59223" fill="#F1E6FF"/>
<rect x="471.301" y="625.049" width="7.18447" height="7.18447" rx="3.59223" fill="#F1E6FF"/>
<rect x="471.301" y="646.602" width="7.18447" height="7.18447" rx="3.59223" fill="#F1E6FF"/>
<rect x="492.854" y="344.854" width="7.18447" height="7.18447" rx="3.59223" fill="#F1E6FF"/>
<rect x="492.854" y="366.408" width="7.18447" height="7.18447" rx="3.59223" fill="#F1E6FF"/>
<rect x="492.854" y="387.961" width="7.18447" height="7.18447" rx="3.59223" fill="#F1E6FF"/>
<rect x="492.854" y="409.515" width="7.18447" height="7.18447" rx="3.59223" fill="#F1E6FF"/>
<rect x="492.854" y="431.068" width="7.18447" height="7.18447" rx="3.59223" fill="#F1E6FF"/>
<rect x="492.854" y="452.621" width="7.18447" height="7.18447" rx="3.59223" fill="#F1E6FF"/>
<rect x="492.854" y="474.175" width="7.18447" height="7.18447" rx="3.59223" fill="#F1E6FF"/>
<rect x="492.854" y="495.728" width="7.18447" height="7.18447" rx="3.59223" fill="#F1E6FF"/>
<rect x="492.854" y="517.281" width="7.18447" height="7.18447" rx="3.59223" fill="#F1E6FF"/>
<rect x="492.854" y="538.835" width="7.18447" height="7.18447" rx="3.59223" fill="#F1E6FF"/>
<rect x="492.854" y="560.388" width="7.18447" height="7.18447" rx="3.59223" fill="#F1E6FF"/>
<rect x="492.854" y="581.942" width="7.18447" height="7.18447" rx="3.59223" fill="#F1E6FF"/>
<rect x="492.854" y="603.495" width="7.18447" height="7.18447" rx="3.59223" fill="#F1E6FF"/>
<rect x="492.854" y="625.049" width="7.18447" height="7.18447" rx="3.59223" fill="#F1E6FF"/>
<rect x="514.407" y="366.408" width="7.18447" height="7.18447" rx="3.59223" fill="#F1E6FF"/>
<rect x="514.407" y="387.961" width="7.18447" height="7.18447" rx="3.59223" fill="#F1E6FF"/>
<rect x="514.407" y="409.515" width="7.18447" height="7.18447" rx="3.59223" fill="#F1E6FF"/>
<rect x="514.407" y="431.068" width="7.18447" height="7.18447" rx="3.59223" fill="#F1E6FF"/>
<rect x="514.407" y="452.621" width="7.18447" height="7.18447" rx="3.59223" fill="#F1E6FF"/>
<rect x="514.407" y="474.175" width="7.18447" height="7.18447" rx="3.59223" fill="#F1E6FF"/>
<rect x="514.407" y="495.728" width="7.18447" height="7.18447" rx="3.59223" fill="#F1E6FF"/>
<rect x="514.407" y="517.281" width="7.18447" height="7.18447" rx="3.59223" fill="#F1E6FF"/>
<rect x="514.407" y="538.835" width="7.18447" height="7.18447" rx="3.59223" fill="#F1E6FF"/>
<rect x="514.407" y="560.388" width="7.18447" height="7.18447" rx="3.59223" fill="#F1E6FF"/>
<rect x="514.407" y="581.942" width="7.18447" height="7.18447" rx="3.59223" fill="#F1E6FF"/>
<rect x="514.407" y="603.495" width="7.18447" height="7.18447" rx="3.59223" fill="#F1E6FF"/>
<rect x="514.407" y="625.049" width="7.18447" height="7.18447" rx="3.59223" fill="#F1E6FF"/>
<rect x="535.961" y="366.408" width="7.18447" height="7.18447" rx="3.59223" fill="#F1E6FF"/>
<rect x="535.961" y="387.961" width="7.18447" height="7.18447" rx="3.59223" fill="#F1E6FF"/>
<rect x="535.961" y="409.515" width="7.18447" height="7.18447" rx="3.59223" fill="#F1E6FF"/>
<rect x="535.961" y="431.068" width="7.18447" height="7.18447" rx="3.59223" fill="#F1E6FF"/>
<rect x="535.961" y="452.621" width="7.18447" height="7.18447" rx="3.59223" fill="#F1E6FF"/>
<rect x="535.961" y="474.175" width="7.18447" height="7.18447" rx="3.59223" fill="#F1E6FF"/>
<rect x="535.961" y="495.728" width="7.18447" height="7.18447" rx="3.59223" fill="#F1E6FF"/>
<rect x="535.961" y="517.281" width="7.18447" height="7.18447" rx="3.59223" fill="#F1E6FF"/>
<rect x="535.961" y="538.835" width="7.18447" height="7.18447" rx="3.59223" fill="#F1E6FF"/>
<rect x="535.961" y="560.388" width="7.18447" height="7.18447" rx="3.59223" fill="#F1E6FF"/>
<rect x="535.961" y="581.942" width="7.18447" height="7.18447" rx="3.59223" fill="#F1E6FF"/>
<rect x="535.961" y="603.495" width="7.18447" height="7.18447" rx="3.59223" fill="#F1E6FF"/>
<rect x="535.961" y="625.049" width="7.18447" height="7.18447" rx="3.59223" fill="#F1E6FF"/>
<rect x="557.515" y="366.408" width="7.18447" height="7.18447" rx="3.59223" fill="#F1E6FF"/>
<rect x="557.515" y="387.961" width="7.18447" height="7.18447" rx="3.59223" fill="#F1E6FF"/>
<rect x="557.515" y="409.515" width="7.18447" height="7.18447" rx="3.59223" fill="#F1E6FF"/>
<rect x="557.515" y="431.068" width="7.18447" height="7.18447" rx="3.59223" fill="#F1E6FF"/>
<rect x="557.515" y="452.621" width="7.18447" height="7.18447" rx="3.59223" fill="#F1E6FF"/>
<rect x="557.515" y="474.175" width="7.18447" height="7.18447" rx="3.59223" fill="#F1E6FF"/>
<rect x="557.515" y="495.728" width="7.18447" height="7.18447" rx="3.59223" fill="#F1E6FF"/>
<rect x="557.515" y="517.281" width="7.18447" height="7.18447" rx="3.59223" fill="#F1E6FF"/>
<rect x="557.515" y="538.835" width="7.18447" height="7.18447" rx="3.59223" fill="#F1E6FF"/>
<rect x="557.515" y="560.388" width="7.18447" height="7.18447" rx="3.59223" fill="#F1E6FF"/>
<rect x="557.515" y="581.942" width="7.18447" height="7.18447" rx="3.59223" fill="#F1E6FF"/>
<rect x="557.515" y="603.495" width="7.18447" height="7.18447" rx="3.59223" fill="#F1E6FF"/>
<rect x="557.515" y="625.049" width="7.18447" height="7.18447" rx="3.59223" fill="#F1E6FF"/>
<rect x="579.068" y="366.408" width="7.18447" height="7.18447" rx="3.59223" fill="#F1E6FF"/>
<rect x="579.068" y="387.961" width="7.18447" height="7.18447" rx="3.59223" fill="#F1E6FF"/>
<rect x="579.068" y="409.515" width="7.18447" height="7.18447" rx="3.59223" fill="#F1E6FF"/>
<rect x="579.068" y="431.068" width="7.18447" height="7.18447" rx="3.59223" fill="#F1E6FF"/>
<rect x="579.068" y="452.621" width="7.18447" height="7.18447" rx="3.59223" fill="#F1E6FF"/>
<rect x="579.068" y="474.175" width="7.18447" height="7.18447" rx="3.59223" fill="#F1E6FF"/>
<rect x="579.068" y="495.728" width="7.18447" height="7.18447" rx="3.59223" fill="#F1E6FF"/>
<rect x="579.068" y="517.281" width="7.18447" height="7.18447" rx="3.59223" fill="#F1E6FF"/>
<rect x="600.621" y="323.301" width="7.18447" height="7.18447" rx="3.59223" fill="#F1E6FF"/>
<rect x="600.621" y="344.854" width="7.18447" height="7.18447" rx="3.59223" fill="#F1E6FF"/>
<rect x="600.621" y="366.408" width="7.18447" height="7.18447" rx="3.59223" fill="#F1E6FF"/>
<rect x="600.621" y="387.961" width="7.18447" height="7.18447" rx="3.59223" fill="#F1E6FF"/>
<rect x="600.621" y="409.515" width="7.18447" height="7.18447" rx="3.59223" fill="#F1E6FF"/>
<rect x="600.621" y="431.068" width="7.18447" height="7.18447" rx="3.59223" fill="#F1E6FF"/>
<rect x="600.621" y="452.621" width="7.18447" height="7.18447" rx="3.59223" fill="#F1E6FF"/>
<rect x="600.621" y="474.175" width="7.18447" height="7.18447" rx="3.59223" fill="#F1E6FF"/>
<rect x="600.621" y="495.728" width="7.18447" height="7.18447" rx="3.59223" fill="#F1E6FF"/>
<rect x="600.621" y="517.281" width="7.18447" height="7.18447" rx="3.59223" fill="#F1E6FF"/>
<rect x="622.175" y="323.301" width="7.18447" height="7.18447" rx="3.59223" fill="#F1E6FF"/>
<rect x="622.175" y="344.854" width="7.18447" height="7.18447" rx="3.59223" fill="#F1E6FF"/>
<rect x="622.175" y="366.408" width="7.18447" height="7.18447" rx="3.59223" fill="#F1E6FF"/>
<rect x="622.175" y="387.961" width="7.18447" height="7.18447" rx="3.59223" fill="#F1E6FF"/>
<rect x="622.175" y="409.515" width="7.18447" height="7.18447" rx="3.59223" fill="#F1E6FF"/>
<rect x="622.175" y="431.068" width="7.18447" height="7.18447" rx="3.59223" fill="#F1E6FF"/>
<rect x="622.175" y="452.621" width="7.18447" height="7.18447" rx="3.59223" fill="#F1E6FF"/>
<rect x="622.175" y="474.175" width="7.18447" height="7.18447" rx="3.59223" fill="#F1E6FF"/>
<rect x="622.175" y="495.728" width="7.18447" height="7.18447" rx="3.59223" fill="#F1E6FF"/>
<rect x="622.175" y="517.281" width="7.18447" height="7.18447" rx="3.59223" fill="#F1E6FF"/>
<rect x="643.729" y="344.854" width="7.18447" height="7.18447" rx="3.59223" fill="#F1E6FF"/>
<rect x="643.729" y="366.408" width="7.18447" height="7.18447" rx="3.59223" fill="#F1E6FF"/>
<rect x="643.729" y="387.961" width="7.18447" height="7.18447" rx="3.59223" fill="#F1E6FF"/>
<rect x="643.729" y="409.515" width="7.18447" height="7.18447" rx="3.59223" fill="#F1E6FF"/>
<rect x="665.281" y="366.408" width="7.18447" height="7.18447" rx="3.59223" fill="#F1E6FF"/>
<rect x="665.281" y="387.961" width="7.18447" height="7.18447" rx="3.59223" fill="#F1E6FF"/>
<rect x="665.281" y="409.515" width="7.18447" height="7.18447" rx="3.59223" fill="#F1E6FF"/>
<rect x="686.835" y="366.408" width="7.18447" height="7.18447" rx="3.59223" fill="#F1E6FF"/>
<rect x="686.835" y="387.961" width="7.18447" height="7.18447" rx="3.59223" fill="#F1E6FF"/>
<rect x="686.835" y="409.515" width="7.18447" height="7.18447" rx="3.59223" fill="#F1E6FF"/>
<rect x="686.835" y="431.068" width="7.18447" height="7.18447" rx="3.59223" fill="#F1E6FF"/>
<rect x="686.835" y="452.621" width="7.18447" height="7.18447" rx="3.59223" fill="#F1E6FF"/>
<rect x="686.835" y="474.175" width="7.18447" height="7.18447" rx="3.59223" fill="#F1E6FF"/>
<rect x="708.388" y="323.301" width="7.18447" height="7.18447" rx="3.59223" fill="#F1E6FF"/>
<rect x="708.388" y="344.854" width="7.18447" height="7.18447" rx="3.59223" fill="#F1E6FF"/>
<rect x="708.388" y="366.408" width="7.18447" height="7.18447" rx="3.59223" fill="#F1E6FF"/>
<rect x="708.388" y="387.961" width="7.18447" height="7.18447" rx="3.59223" fill="#F1E6FF"/>
<rect x="708.388" y="409.515" width="7.18447" height="7.18447" rx="3.59223" fill="#F1E6FF"/>
<rect x="708.388" y="431.068" width="7.18447" height="7.18447" rx="3.59223" fill="#F1E6FF"/>
<rect x="708.388" y="452.621" width="7.18447" height="7.18447" rx="3.59223" fill="#F1E6FF"/>
<rect x="708.388" y="474.175" width="7.18447" height="7.18447" rx="3.59223" fill="#F1E6FF"/>
<rect x="708.388" y="495.728" width="7.18447" height="7.18447" rx="3.59223" fill="#F1E6FF"/>
<rect x="729.941" y="323.301" width="7.18447" height="7.18447" rx="3.59223" fill="#F1E6FF"/>
<rect x="729.941" y="344.854" width="7.18447" height="7.18447" rx="3.59223" fill="#F1E6FF"/>
<rect x="729.941" y="366.408" width="7.18447" height="7.18447" rx="3.59223" fill="#F1E6FF"/>
<rect x="729.941" y="387.961" width="7.18447" height="7.18447" rx="3.59223" fill="#F1E6FF"/>
<rect x="729.941" y="409.515" width="7.18447" height="7.18447" rx="3.59223" fill="#F1E6FF"/>
<rect x="729.941" y="431.068" width="7.18447" height="7.18447" rx="3.59223" fill="#F1E6FF"/>
<rect x="729.941" y="452.621" width="7.18447" height="7.18447" rx="3.59223" fill="#F1E6FF"/>
<rect x="729.941" y="474.175" width="7.18447" height="7.18447" rx="3.59223" fill="#F1E6FF"/>
<rect x="729.941" y="495.728" width="7.18447" height="7.18447" rx="3.59223" fill="#F1E6FF"/>
<rect x="729.941" y="517.281" width="7.18447" height="7.18447" rx="3.59223" fill="#F1E6FF"/>
<rect x="751.495" y="301.748" width="7.18447" height="7.18447" rx="3.59223" fill="#F1E6FF"/>
<rect x="751.495" y="323.301" width="7.18447" height="7.18447" rx="3.59223" fill="#F1E6FF"/>
<rect x="751.495" y="344.854" width="7.18447" height="7.18447" rx="3.59223" fill="#F1E6FF"/>
<rect x="751.495" y="366.408" width="7.18447" height="7.18447" rx="3.59223" fill="#F1E6FF"/>
<rect x="751.495" y="387.961" width="7.18447" height="7.18447" rx="3.59223" fill="#F1E6FF"/>
<rect x="751.495" y="409.515" width="7.18447" height="7.18447" rx="3.59223" fill="#F1E6FF"/>
<rect x="751.495" y="431.068" width="7.18447" height="7.18447" rx="3.59223" fill="#F1E6FF"/>
<rect x="751.495" y="452.621" width="7.18447" height="7.18447" rx="3.59223" fill="#F1E6FF"/>
<rect x="751.495" y="474.175" width="7.18447" height="7.18447" rx="3.59223" fill="#F1E6FF"/>
<rect x="751.495" y="495.728" width="7.18447" height="7.18447" rx="3.59223" fill="#F1E6FF"/>
<rect x="751.495" y="517.281" width="7.18447" height="7.18447" rx="3.59223" fill="#F1E6FF"/>
<rect x="773.049" y="280.194" width="7.18447" height="7.18447" rx="3.59223" fill="#F1E6FF"/>
<rect x="773.049" y="301.748" width="7.18447" height="7.18447" rx="3.59223" fill="#F1E6FF"/>
<rect x="773.049" y="323.301" width="7.18447" height="7.18447" rx="3.59223" fill="#F1E6FF"/>
<rect x="773.049" y="344.854" width="7.18447" height="7.18447" rx="3.59223" fill="#F1E6FF"/>
<rect x="773.049" y="366.408" width="7.18447" height="7.18447" rx="3.59223" fill="#F1E6FF"/>
<rect x="773.049" y="387.961" width="7.18447" height="7.18447" rx="3.59223" fill="#F1E6FF"/>
<rect x="773.049" y="409.515" width="7.18447" height="7.18447" rx="3.59223" fill="#F1E6FF"/>
<rect x="773.049" y="431.068" width="7.18447" height="7.18447" rx="3.59223" fill="#F1E6FF"/>
<rect x="773.049" y="452.621" width="7.18447" height="7.18447" rx="3.59223" fill="#F1E6FF"/>
<rect x="794.602" y="280.194" width="7.18447" height="7.18447" rx="3.59223" fill="#F1E6FF"/>
<rect x="794.602" y="301.748" width="7.18447" height="7.18447" rx="3.59223" fill="#F1E6FF"/>
<rect x="794.602" y="323.301" width="7.18447" height="7.18447" rx="3.59223" fill="#F1E6FF"/>
<rect x="794.602" y="344.854" width="7.18447" height="7.18447" rx="3.59223" fill="#F1E6FF"/>
<rect x="794.602" y="366.408" width="7.18447" height="7.18447" rx="3.59223" fill="#F1E6FF"/>
<rect x="794.602" y="387.961" width="7.18447" height="7.18447" rx="3.59223" fill="#F1E6FF"/>
<rect x="794.602" y="409.515" width="7.18447" height="7.18447" rx="3.59223" fill="#F1E6FF"/>
<rect x="794.602" y="431.068" width="7.18447" height="7.18447" rx="3.59223" fill="#F1E6FF"/>
<rect x="816.155" y="280.194" width="7.18447" height="7.18447" rx="3.59223" fill="#F1E6FF"/>
<rect x="816.155" y="301.748" width="7.18447" height="7.18447" rx="3.59223" fill="#F1E6FF"/>
<rect x="816.155" y="323.301" width="7.18447" height="7.18447" rx="3.59223" fill="#F1E6FF"/>
<rect x="816.155" y="344.854" width="7.18447" height="7.18447" rx="3.59223" fill="#F1E6FF"/>
<rect x="816.155" y="366.408" width="7.18447" height="7.18447" rx="3.59223" fill="#F1E6FF"/>
<rect x="837.709" y="280.194" width="7.18447" height="7.18447" rx="3.59223" fill="#F1E6FF"/>
<rect x="837.709" y="301.748" width="7.18447" height="7.18447" rx="3.59223" fill="#F1E6FF"/>
<rect x="837.709" y="323.301" width="7.18447" height="7.18447" rx="3.59223" fill="#F1E6FF"/>
<rect x="837.709" y="344.854" width="7.18447" height="7.18447" rx="3.59223" fill="#F1E6FF"/>
<rect x="859.262" y="301.748" width="7.18447" height="7.18447" rx="3.59223" fill="#F1E6FF"/>
<rect x="859.262" y="323.301" width="7.18447" height="7.18447" rx="3.59223" fill="#F1E6FF"/>
<rect x="859.262" y="344.854" width="7.18447" height="7.18447" rx="3.59223" fill="#F1E6FF"/>
<rect x="880.815" y="323.301" width="7.18447" height="7.18447" rx="3.59223" fill="#F1E6FF"/>
</svg>
