<svg width="26" height="25" viewBox="0 0 26 25" fill="none" xmlns="http://www.w3.org/2000/svg">
<g id="vuesax/linear/setting-2">
<g id="setting-2">
<path id="Vector" d="M13.0701 15.5573C14.756 15.5573 16.1226 14.1906 16.1226 12.5048C16.1226 10.8189 14.756 9.45227 13.0701 9.45227C11.3842 9.45227 10.0176 10.8189 10.0176 12.5048C10.0176 14.1906 11.3842 15.5573 13.0701 15.5573Z" stroke="#0C0C0D" stroke-width="1.01751" stroke-miterlimit="10" stroke-linecap="round" stroke-linejoin="round"/>
<path id="Vector_2" d="M2.89648 13.3999V11.6091C2.89648 10.5509 3.76136 9.67586 4.82974 9.67586C6.67143 9.67586 7.42438 8.37345 6.49845 6.77597C5.96935 5.86021 6.28478 4.66973 7.21071 4.14063L8.97099 3.1333C9.77482 2.65507 10.8127 2.93997 11.2909 3.7438L11.4028 3.93713C12.3186 5.53461 13.8245 5.53461 14.7504 3.93713L14.8623 3.7438C15.3406 2.93997 16.3784 2.65507 17.1823 3.1333L18.9425 4.14063C19.8685 4.66973 20.1839 5.86021 19.6548 6.77597C18.7289 8.37345 19.4818 9.67586 21.3235 9.67586C22.3817 9.67586 23.2568 10.5407 23.2568 11.6091V13.3999C23.2568 14.4581 22.3919 15.3332 21.3235 15.3332C19.4818 15.3332 18.7289 16.6356 19.6548 18.2331C20.1839 19.159 19.8685 20.3393 18.9425 20.8684L17.1823 21.8758C16.3784 22.354 15.3406 22.0691 14.8623 21.2652L14.7504 21.0719C13.8347 19.4744 12.3288 19.4744 11.4028 21.0719L11.2909 21.2652C10.8127 22.0691 9.77482 22.354 8.97099 21.8758L7.21071 20.8684C6.28478 20.3393 5.96935 19.1488 6.49845 18.2331C7.42438 16.6356 6.67143 15.3332 4.82974 15.3332C3.76136 15.3332 2.89648 14.4581 2.89648 13.3999Z" stroke="#0C0C0D" stroke-width="1.01751" stroke-miterlimit="10" stroke-linecap="round" stroke-linejoin="round"/>
</g>
</g>
</svg>
