<svg width="44" height="44" viewBox="0 0 44 44" fill="none" xmlns="http://www.w3.org/2000/svg">
<path id="Vector" d="M43.9271 22.4596C43.8857 22.0022 43.5677 21.6195 43.1225 21.4975L27.8697 17.2814L39.7639 7.68945C40.08 7.43333 40.2332 7.02157 40.1524 6.61777C40.076 6.2166 39.787 5.89381 39.391 5.77243L20.7661 0.122342C20.3351 -0.00643866 19.8703 0.1357 19.587 0.485118L3.28896 20.5753C3.06064 20.856 2.98619 21.2321 3.08529 21.5776C3.18858 21.9247 3.45727 22.2058 3.79917 22.3165L16.8472 26.607L1.07983 41.8926C0.691269 42.2697 0.635027 42.8754 0.94578 43.3226C1.04236 43.4556 1.16254 43.5656 1.29645 43.6429C1.60848 43.8231 1.99595 43.8452 2.33667 43.6797L43.3191 23.5526C43.7245 23.3527 43.9713 22.9134 43.9271 22.4595L43.9271 22.4596Z" fill="url(#paint0_linear_5592_4158)"/>
<defs>
<linearGradient id="paint0_linear_5592_4158" x1="7.1754" y1="5.01096" x2="31.3295" y2="36.6308" gradientUnits="userSpaceOnUse">
<stop stop-color="white"/>
<stop offset="1" stop-color="white" stop-opacity="0"/>
</linearGradient>
</defs>
</svg>
