<svg width="85" height="52" viewBox="0 0 85 52" fill="none" xmlns="http://www.w3.org/2000/svg">
<g id="Group 3169">
<path id="Vector" d="M47.0335 34.1139C45.8739 34.5771 44.6852 34.9853 43.4768 35.3361C44.7079 35.0614 45.9257 34.7263 47.1125 34.3352C49.8938 33.4223 52.6164 32.1704 55.2023 30.6168C60.0579 27.7041 64.5347 23.6913 68.5075 18.688C70.3381 16.3842 72.0513 13.883 73.5984 11.2523C74.3672 9.94586 75.0923 8.60836 75.755 7.27818C76.1009 6.58589 76.4286 5.89637 76.7299 5.22723C77.0644 4.48113 77.3442 3.83086 77.6234 3.09196C77.9153 2.31783 77.5229 1.44913 76.7469 1.15764C76.4886 1.06018 76.2099 1.03539 75.9421 1.08575C75.422 1.18356 74.9997 1.53769 74.8122 2.03227C74.8006 2.06276 74.7917 2.09081 74.7831 2.11687C74.7806 2.12441 74.7788 2.13183 74.7751 2.1396C74.6118 2.67725 74.3843 3.33185 74.0854 4.12654C73.8403 4.77672 73.5693 5.45299 73.2816 6.13312C72.7239 7.45067 72.1086 8.7765 71.451 10.0723C70.1202 12.7004 68.619 15.2162 66.9908 17.5501C63.4373 22.6451 59.3291 26.8158 54.7776 29.9485C52.3304 31.6387 49.7249 33.0384 47.0335 34.1139Z" fill="url(#paint0_linear_5592_4162)"/>
<path id="Vector_2" d="M55.5701 31.2273C52.9695 32.7888 50.204 34.0693 47.3357 35.0114C45.6891 35.5533 44.011 35.9834 42.3147 36.3024C41.0553 36.5393 39.7883 36.7151 38.5165 36.8289C32.5384 37.3748 26.5495 36.5698 20.88 34.9302C26.6427 36.2158 32.6126 36.6249 38.3826 35.7315C38.8147 35.6657 39.2453 35.5912 39.6746 35.5104C42.1066 35.0531 44.4871 34.3635 46.7689 33.4525C49.4551 32.3799 52.0053 30.9978 54.3739 29.3654C59.008 26.1753 62.9322 22.0528 66.1718 17.4774C64.12 16.7278 59.4397 15.961 53.1388 20.7113C49.3762 23.5484 44.0555 25.8723 38.5724 27.4117C39.3151 27.7384 40.0782 28.0195 40.8644 28.2352C41.8142 28.4927 42.789 28.6748 43.7821 28.7422C44.7747 28.8173 45.7834 28.7962 46.7898 28.6166C45.8586 29.0599 44.8198 29.2553 43.7841 29.3484C42.7431 29.4233 41.6868 29.3685 40.6529 29.1762C39.3097 28.9335 38.0085 28.484 36.785 27.8824C34.9013 28.3511 33.0181 28.7227 31.1883 28.9883C31.5828 29.2628 31.9918 29.5185 32.4163 29.7506C33.2853 30.2357 34.2107 30.6407 35.1994 30.9005C34.1677 30.9118 33.1431 30.6529 32.1641 30.3011C31.3727 30.0029 30.6114 29.6153 29.8938 29.1584C25.9392 29.63 22.3117 29.58 19.6109 28.885C11.4082 26.7754 5.55588 22.6439 3.26291 28.6122C3.26291 28.6122 12.3438 40.9528 24.8959 44.5457C25.609 43.9008 26.2854 43.1939 26.8783 42.3715C26.799 42.8901 26.6198 43.3915 26.4111 43.8759C26.2727 44.2005 26.1099 44.5148 25.932 44.821C28.5941 45.4707 31.2523 45.7961 33.868 45.8428C35.1454 45.3832 36.3751 44.8103 37.5314 44.0898C38.3472 43.5838 39.1261 43.0044 39.8587 42.3507C40.5909 41.6944 41.2855 40.9719 41.8916 40.1304C41.8122 40.649 41.6331 41.1504 41.4257 41.6346C41.2177 42.1228 40.9565 42.5881 40.6684 43.0367C40.0853 43.9318 39.3615 44.7422 38.5474 45.4524C38.4633 45.5254 38.3744 45.593 38.2875 45.6646C43.1304 45.1855 47.7313 43.8056 51.8175 41.8547C52.5952 41.1462 53.3201 40.3788 53.9718 39.5441C54.565 38.7886 55.0963 37.9772 55.5599 37.1102C56.0217 36.2411 56.4252 35.325 56.7057 34.3259C56.8088 34.8398 56.813 35.3717 56.7849 35.9C56.757 36.4289 56.6727 36.9556 56.5559 37.4768C56.3816 38.2333 56.1219 38.9731 55.7923 39.6835C59.8416 37.167 63.1564 34.097 65.3781 30.9039C65.3369 30.6711 65.2915 30.4396 65.2406 30.2067C65.0267 29.2472 64.7359 28.2892 64.2989 27.3479C64.7123 27.6715 65.061 28.0717 65.3823 28.4906C65.6743 28.8699 65.9286 29.2776 66.1594 29.7012C68.1104 26.4677 68.9035 23.1655 68.1821 20.223C64.5917 24.5265 60.3781 28.3451 55.5698 31.2283L55.5701 31.2273Z" fill="url(#paint1_linear_5592_4162)"/>
</g>
<defs>
<linearGradient id="paint0_linear_5592_4162" x1="2.95054" y1="18.0723" x2="79.9396" y2="10.1583" gradientUnits="userSpaceOnUse">
<stop stop-color="white"/>
<stop offset="1" stop-color="white" stop-opacity="0"/>
</linearGradient>
<linearGradient id="paint1_linear_5592_4162" x1="-1.2504" y1="25.9458" x2="60.7718" y2="51.1605" gradientUnits="userSpaceOnUse">
<stop stop-color="white"/>
<stop offset="1" stop-color="white" stop-opacity="0"/>
</linearGradient>
</defs>
</svg>
