<svg width="26" height="26" viewBox="0 0 26 26" fill="none" xmlns="http://www.w3.org/2000/svg">
<g id="vuesax/linear/chart-2">
<g id="chart-2">
<path id="Vector" d="M10.2303 23.6008H16.4829C21.6934 23.6008 23.7776 21.5166 23.7776 16.3061V10.0535C23.7776 4.84299 21.6934 2.75879 16.4829 2.75879H10.2303C5.01975 2.75879 2.93555 4.84299 2.93555 10.0535V16.3061C2.93555 21.5166 5.01975 23.6008 10.2303 23.6008Z" stroke="#0C0C0D" stroke-width="1.0421" stroke-linecap="round" stroke-linejoin="round"/>
<path id="Vector_2" d="M17.0041 19.9523C18.1504 19.9523 19.0883 19.0145 19.0883 17.8681V8.48923C19.0883 7.34292 18.1504 6.40503 17.0041 6.40503C15.8578 6.40503 14.9199 7.34292 14.9199 8.48923V17.8681C14.9199 19.0145 15.8474 19.9523 17.0041 19.9523Z" stroke="#0C0C0D" stroke-width="1.0421" stroke-linecap="round" stroke-linejoin="round"/>
<path id="Vector_3" d="M9.7092 19.9505C10.8555 19.9505 11.7934 19.0126 11.7934 17.8663V14.219C11.7934 13.0727 10.8555 12.1348 9.7092 12.1348C8.56289 12.1348 7.625 13.0727 7.625 14.219V17.8663C7.625 19.0126 8.55247 19.9505 9.7092 19.9505Z" stroke="#0C0C0D" stroke-width="1.0421" stroke-linecap="round" stroke-linejoin="round"/>
</g>
</g>
</svg>
