<svg width="25" height="25" viewBox="0 0 25 25" fill="none" xmlns="http://www.w3.org/2000/svg">
<path d="M9.04297 2.56348H15.043C20.043 2.56348 22.043 4.56348 22.043 9.56348V15.5635C22.043 20.5635 20.043 22.5635 15.043 22.5635H9.04297C4.04297 22.5635 2.04297 20.5635 2.04297 15.5635V9.56348C2.04297 4.56348 4.04297 2.56348 9.04297 2.56348Z" stroke="#808080" stroke-width="1.5" stroke-linecap="round" stroke-linejoin="round"/>
<path d="M8.61328 15.8334L15.1533 9.29346" stroke="#808080" stroke-width="1.5" stroke-linecap="round" stroke-linejoin="round"/>
<path d="M9.02298 10.9335C9.70229 10.9335 10.253 10.3828 10.253 9.70352C10.253 9.02421 9.70229 8.47351 9.02298 8.47351C8.34367 8.47351 7.79297 9.02421 7.79297 9.70352C7.79297 10.3828 8.34367 10.9335 9.02298 10.9335Z" stroke="#808080" stroke-width="1.5" stroke-linecap="round" stroke-linejoin="round"/>
<path d="M15.563 16.6535C16.2423 16.6535 16.793 16.1028 16.793 15.4235C16.793 14.7442 16.2423 14.1935 15.563 14.1935C14.8837 14.1935 14.333 14.7442 14.333 15.4235C14.333 16.1028 14.8837 16.6535 15.563 16.6535Z" stroke="#808080" stroke-width="1.5" stroke-linecap="round" stroke-linejoin="round"/>
</svg>
