<svg width="48" height="47" viewBox="0 0 48 47" fill="none" xmlns="http://www.w3.org/2000/svg">
<g id="vuesax/linear/layer">
<g id="layer">
<path id="Vector" d="M25.9308 5.65035L37.3315 10.713C40.6165 12.1623 40.6165 14.5584 37.3315 16.0076L25.9308 21.0703C24.6362 21.65 22.5106 21.65 21.216 21.0703L9.81527 16.0076C6.53033 14.5584 6.53033 12.1623 9.81527 10.713L21.216 5.65035C22.5106 5.07065 24.6362 5.07065 25.9308 5.65035Z" stroke="#0C0C0D" stroke-width="2.89848" stroke-linecap="round" stroke-linejoin="round"/>
<path id="Vector_2" d="M6.58984 21.2634C6.58984 22.8866 7.80721 24.7609 9.29509 25.4179L22.4156 31.2535C23.4204 31.698 24.5604 31.698 25.5459 31.2535L38.6664 25.4179C40.1543 24.7609 41.3716 22.8866 41.3716 21.2634" stroke="#0C0C0D" stroke-width="2.89848" stroke-linecap="round" stroke-linejoin="round"/>
<path id="Vector_3" d="M6.58984 30.925C6.58984 32.7221 7.65262 34.3453 9.29509 35.0795L22.4156 40.9152C23.4204 41.3596 24.5604 41.3596 25.5459 40.9152L38.6664 35.0795C40.3089 34.3453 41.3716 32.7221 41.3716 30.925" stroke="#0C0C0D" stroke-width="2.89848" stroke-linecap="round" stroke-linejoin="round"/>
</g>
</g>
</svg>
