<svg width="25" height="24" viewBox="0 0 25 24" fill="none" xmlns="http://www.w3.org/2000/svg">
<path d="M21.9141 5.97998C18.5841 5.64998 15.2341 5.47998 11.8941 5.47998C9.91406 5.47998 7.93406 5.57998 5.95406 5.77998L3.91406 5.97998" stroke="#0C0C0D" stroke-linecap="round" stroke-linejoin="round"/>
<path d="M9.41406 4.97L9.63406 3.66C9.79406 2.71 9.91406 2 11.6041 2H14.2241C15.9141 2 16.0441 2.75 16.1941 3.67L16.4141 4.97" stroke="#0C0C0D" stroke-linecap="round" stroke-linejoin="round"/>
<path d="M19.764 9.14014L19.114 19.2101C19.004 20.7801 18.914 22.0001 16.124 22.0001H9.70396C6.91396 22.0001 6.82396 20.7801 6.71396 19.2101L6.06396 9.14014" stroke="#0C0C0D" stroke-linecap="round" stroke-linejoin="round"/>
<path d="M11.2441 16.5H14.5741" stroke="#0C0C0D" stroke-linecap="round" stroke-linejoin="round"/>
<path d="M10.4141 12.5H15.4141" stroke="#0C0C0D" stroke-linecap="round" stroke-linejoin="round"/>
</svg>
